<svg width="60" height="60" viewBox="0 0 60 60" fill="none" xmlns="http://www.w3.org/2000/svg">
<g id="Frame" clip-path="url(#clip0_0_680)">
<g id="Group">
<path id="Vector" d="M36.9111 44.9941C37.2613 44.9942 37.612 44.9942 37.9621 44.9942H38.8558L36.9111 44.9941Z" fill="url(#paint0_linear_0_680)"/>
<path id="Vector_2" d="M48.293 23.5533C48.2418 27.1624 47.017 30.4123 44.8739 33.3877C43.0298 35.9473 41.2292 38.5356 39.4299 41.1233C39.2681 41.3561 39.2182 41.6771 39.1828 41.9642C39.0596 42.9582 38.9648 43.9557 38.8555 44.9944L36.9108 44.9932L29.3105 44.9884C29.2631 44.9956 29.2119 44.9967 29.1556 44.9961C28.712 44.9932 28.2683 44.9896 27.8247 44.9878L27.2319 44.9872C27.0303 44.9878 26.8287 44.9884 26.6277 44.9902C26.1859 44.9932 25.8554 45.2403 25.7347 45.6209C25.6279 45.9586 25.777 46.36 26.1234 46.5476C26.2889 46.6375 26.4994 46.6947 26.6896 46.6959C29.1639 46.7072 31.6387 46.706 34.1136 46.7072C35.6184 46.7084 37.1232 46.7078 38.6842 46.7078C38.4036 49.427 38.1268 52.11 37.8474 54.8221C37.7191 54.8281 37.6073 54.837 37.4954 54.837C34.4625 54.8376 31.4296 54.8376 28.3966 54.8376C27.5017 54.8376 26.6068 54.8364 25.7119 54.837C25.1166 54.8376 24.7083 55.1801 24.6988 55.6839C24.69 56.183 25.0907 56.5475 25.6835 56.5492C27.8209 56.5558 29.9589 56.5546 32.0969 56.5546C33.8867 56.5546 35.6772 56.5522 37.4676 56.5516C37.5182 56.5516 37.5694 56.5606 37.6502 56.5677C37.6521 57.118 37.4764 57.6117 37.2047 58.0691C36.4558 59.3305 35.2853 59.9731 33.7679 59.9874C31.2722 60.0118 28.7765 59.9921 26.2807 59.9856C24.1275 59.9796 22.5419 58.6027 22.3415 56.5892C22.1898 55.0586 22.023 53.5292 21.8637 51.9992C21.853 51.8926 21.8524 51.7854 21.8454 51.6586C21.9649 51.6508 22.0666 51.6389 22.1684 51.6389C24.9377 51.6377 27.7071 51.6377 30.4759 51.6377C31.9086 51.6377 33.3407 51.6431 34.7728 51.6359C35.528 51.6324 35.9793 51.0952 35.753 50.4925C35.6178 50.1328 35.3005 49.9285 34.8455 49.9267C33.8665 49.9226 32.8876 49.9255 31.908 49.9249C29.8546 49.9226 27.8013 49.9178 25.748 49.9172C24.5162 49.9172 23.2838 49.913 22.0521 49.9315C21.7506 49.9362 21.6299 49.8684 21.6034 49.5676C21.4896 48.2824 21.3493 46.9996 21.2185 45.7156C21.0851 44.4125 20.9638 43.1077 20.8083 41.807C20.7767 41.5431 20.6629 41.2644 20.5081 41.0411C18.4845 38.1294 16.4179 35.2434 14.422 32.3151C12.8345 29.9853 11.9807 27.3988 11.7601 24.6432C11.5256 21.7107 12.0375 18.8884 13.3565 16.2114C13.6655 15.5849 14.0125 14.975 14.3424 14.3574C14.3797 14.3658 14.417 14.3741 14.4543 14.3824C14.4543 14.7314 14.4543 15.0798 14.4549 15.4282C14.4555 16.1 14.7715 16.4192 15.4844 16.4264C16.5165 16.4377 17.5485 16.4347 18.5805 16.4258C18.7998 16.424 18.9187 16.4746 18.9913 16.6872C19.1007 17.007 19.2416 17.3197 19.4009 17.6204C19.4944 17.7967 19.4571 17.8926 19.3155 18.0236C18.5717 18.7109 17.8379 19.4089 17.1036 20.1057C16.6277 20.5571 16.6264 21.0407 17.0966 21.485C18.353 22.6713 19.6101 23.8571 20.8683 25.0416C21.4093 25.5502 21.877 25.5484 22.4211 25.0374C23.1372 24.3657 23.8577 23.6969 24.5604 23.0126C24.7323 22.8452 24.8613 22.8357 25.0717 22.9369C25.3612 23.0757 25.6677 23.1883 25.9774 23.2824C26.1998 23.3502 26.2889 23.4461 26.2851 23.6802C26.2693 24.6622 26.2776 25.6449 26.2795 26.627C26.2801 27.2172 26.6214 27.5715 27.2432 27.5757C29.0855 27.5888 30.9284 27.59 32.7713 27.5852C33.3634 27.584 33.7287 27.2189 33.73 26.6591C33.7338 25.6568 33.737 24.6545 33.7262 23.6522C33.7237 23.4652 33.7749 23.3741 33.9689 23.3097C34.3159 23.1948 34.659 23.0626 34.9851 22.9042C35.1785 22.8101 35.286 22.8577 35.4187 22.9846C36.1442 23.676 36.8735 24.3639 37.6047 25.0499C38.1306 25.5437 38.6102 25.5431 39.1335 25.0505C40.3779 23.8803 41.6217 22.7094 42.8648 21.5374C43.4026 21.0306 43.4007 20.5893 42.8585 20.0771C42.1374 19.3958 41.4182 18.7121 40.6882 18.0391C40.5403 17.9033 40.4923 17.8027 40.5947 17.6121C40.7603 17.303 40.8917 16.9767 41.0162 16.6503C41.0763 16.4931 41.161 16.4395 41.3367 16.4407C42.3794 16.446 43.4216 16.4329 44.4644 16.4413C45.1823 16.4466 45.5495 16.128 45.5539 15.4592C45.5565 15.1025 45.5546 14.7457 45.5546 14.3592C45.6039 14.3884 45.6456 14.3997 45.6614 14.4253C47.4316 17.2393 48.3391 20.2802 48.293 23.5533Z" fill="url(#paint1_linear_0_680)"/>
<path id="Vector_3" d="M39.9229 6.12502L39.9235 6.12565C39.9658 6.08331 40.0082 6.04033 40.0518 5.99609L39.9229 6.12502Z" fill="url(#paint2_linear_0_680)"/>
<path id="Vector_4" d="M43.3632 11.1177C42.4152 11.1201 41.4679 11.1261 40.5199 11.1237C40.0036 11.1225 39.7103 10.8873 39.5308 10.443C39.2407 9.72178 38.9279 9.00831 38.5999 8.30139C38.4015 7.87319 38.4343 7.55635 38.7687 7.21153L39.9233 6.1181L40.0522 5.99661L40.2526 5.80603C40.2734 5.78638 40.2949 5.76613 40.3158 5.74588H40.3164C40.5471 5.52672 40.7891 5.29743 41.0242 5.07469C40.1338 4.21948 39.2521 3.37261 38.301 2.45963C38.1721 2.61507 38.0684 2.76753 37.9363 2.89378C37.3081 3.4941 36.6761 4.09084 36.0366 4.68103C35.6984 4.99251 35.3369 5.01395 34.9394 4.846C34.1924 4.53155 33.4391 4.22841 32.6737 3.95565C32.1447 3.76746 31.9204 3.53936 31.9153 2.99503C31.9065 2.1023 31.9128 1.20956 31.9109 0.316238C31.9109 0.210825 31.8989 0.106008 31.8926 0H28.1234C28.112 0.0541952 28.1006 0.0827816 28.1 0.111964C28.0981 1.05413 28.0918 1.99688 28.0981 2.93964C28.1013 3.48278 27.858 3.76865 27.3189 3.95327C26.6098 4.19744 25.9083 4.46663 25.2244 4.76798C24.6241 5.03241 24.2689 4.99548 23.8119 4.5512C23.1028 3.86275 22.383 3.18441 21.7017 2.53467C20.7683 3.39405 19.8671 4.22365 18.9551 5.06338C19.211 5.29385 19.4645 5.52195 19.7179 5.75005L19.7185 5.75064L21.2821 7.25977L21.284 7.26156C21.6 7.61591 21.5937 7.91904 21.3655 8.38596C21.0318 9.06727 20.736 9.76704 20.4542 10.4698C20.2867 10.8885 20.0251 11.1094 19.5504 11.1136C19.0025 11.1189 18.4552 11.1172 17.9072 11.1177C17.3732 11.1183 16.8392 11.1177 16.2881 11.1177V14.7238C16.4126 14.7238 16.515 14.7232 16.618 14.7238C17.5236 14.7268 18.4293 14.7292 19.3343 14.7333C20.08 14.7363 20.2785 14.9019 20.518 15.5552C20.7405 16.1627 20.9926 16.7636 21.2871 17.3425C21.6404 18.0363 21.6284 18.2757 21.0552 18.8123C20.3549 19.4674 19.6528 20.1207 18.9418 20.7835C19.1466 20.97 19.3419 21.148 19.5346 21.3243L20.0914 21.8686L20.2083 21.983L21.1797 22.9329L21.1803 22.9335C21.3175 23.0734 21.4641 23.2104 21.6107 23.3581C21.7592 23.2283 21.8768 23.1318 21.9874 23.0282C22.6434 22.4118 23.2931 21.7894 23.9548 21.179C24.2967 20.8639 24.6569 20.8449 25.0835 21.0206C25.8432 21.3332 26.6098 21.6316 27.3833 21.9121C27.8491 22.0813 28.0931 22.3516 28.0962 22.8174C28.1 23.2938 28.0918 23.7702 28.0905 24.2467C28.0893 24.7785 28.0905 25.3109 28.0905 25.8505H31.9027V25.5063C31.9059 24.6129 31.9059 23.7202 31.9134 22.8269C31.9172 22.3504 32.1549 22.0908 32.6219 21.9199C33.3847 21.6411 34.1406 21.3446 34.8863 21.0271C35.3515 20.8294 35.7092 20.8508 36.0669 21.1855C36.7766 21.8502 37.4819 22.5178 38.1897 23.1836C38.246 23.2366 38.3079 23.2837 38.392 23.3545L40.9901 20.8133C41.0148 20.7895 41.0394 20.7657 41.064 20.7419C40.9218 20.6263 40.7708 20.5173 40.6362 20.3923C40.0225 19.8205 39.4089 19.2482 38.804 18.6681C38.397 18.2775 38.3844 17.9696 38.622 17.4842C38.9519 16.8112 39.2559 16.1257 39.5346 15.4325C39.7337 14.9364 39.9916 14.7268 40.5604 14.7262C41.2025 14.7256 41.8452 14.7316 42.4873 14.7333C42.8943 14.7339 43.3013 14.7333 43.7051 14.7333V11.1177C43.5712 11.1177 43.4675 11.1172 43.3632 11.1177ZM34.6803 13.1647C34.5798 15.4331 32.3388 17.436 29.9953 17.3389C27.1425 17.2216 25.1834 15.2562 25.3433 12.5822C25.4817 10.2762 27.5691 8.51996 29.9897 8.5146C32.7243 8.52472 34.7915 10.6681 34.6803 13.1647Z" fill="url(#paint3_linear_0_680)"/>
<path id="Vector_5" d="M8.86291 14.3798C8.56082 14.2774 8.23597 14.2125 7.95979 14.066C6.70403 13.4001 5.46027 12.7147 4.21651 12.0304C3.60348 11.6933 3.26789 11.1841 3.29443 10.5111C3.32161 9.81313 3.70017 9.31286 4.38399 9.03772C4.89021 8.83404 5.40023 8.87037 5.87422 9.12348C7.19192 9.82682 8.5071 10.5349 9.81279 11.2585C10.5067 11.6433 10.7949 12.4097 10.5661 13.1452C10.355 13.8236 9.63963 14.325 8.86291 14.3798Z" fill="url(#paint4_linear_0_680)"/>
<path id="Vector_6" d="M7.03373 24.0523C6.71584 24.0945 6.39605 24.1803 6.07942 24.172C4.63912 24.1362 3.20007 24.0773 1.7604 24.0195C1.0513 23.9909 0.5021 23.689 0.191792 23.0821C-0.129891 22.4532 -0.0433085 21.844 0.424365 21.2996C0.771328 20.8964 1.23963 20.7047 1.78441 20.7196C3.29803 20.7618 4.81228 20.8083 6.32464 20.8738C7.12916 20.9083 7.76368 21.4598 7.9261 22.2102C8.07715 22.904 7.6929 23.6622 7.03373 24.0523Z" fill="url(#paint5_linear_0_680)"/>
<path id="Vector_7" d="M59.0747 24.0523C58.7569 24.0945 58.4371 24.1803 58.1204 24.172C56.6801 24.1362 55.2411 24.0773 53.8014 24.0195C53.0923 23.9909 52.5431 23.689 52.2328 23.0821C51.9111 22.4532 51.9977 21.844 52.4654 21.2996C52.8123 20.8964 53.2806 20.7047 53.8254 20.7196C55.339 20.7618 56.8533 20.8083 58.3657 20.8738C59.1702 20.9083 59.8047 21.4598 59.9671 22.2102C60.1182 22.904 59.7345 23.6622 59.0747 24.0523Z" fill="url(#paint6_linear_0_680)"/>
<path id="Vector_8" d="M51.1402 14.3504C50.3363 14.3242 49.6487 13.8478 49.4269 13.1361C49.2076 12.4339 49.5027 11.6537 50.1815 11.2732C51.4916 10.5389 52.8081 9.81349 54.1378 9.11193C54.9549 8.68075 55.9977 8.98329 56.473 9.74202C56.9451 10.4954 56.734 11.4852 55.932 11.942C54.5915 12.7049 53.2245 13.4279 51.8588 14.1509C51.6458 14.2623 51.381 14.2855 51.1402 14.3504Z" fill="url(#paint7_linear_0_680)"/>
<path id="Vector_9" d="M54.9373 37.8526C54.6339 37.7526 54.3065 37.6918 54.0303 37.5453C52.7657 36.8747 51.5138 36.1845 50.2612 35.4936C49.389 35.0124 49.1014 33.9976 49.5982 33.1984C50.0753 32.4313 51.1409 32.1728 52.001 32.632C53.2821 33.3157 54.5593 34.0054 55.8315 34.7033C56.5444 35.0946 56.8661 35.8486 56.6531 36.5632C56.4344 37.2976 55.7487 37.7966 54.9373 37.8526Z" fill="url(#paint8_linear_0_680)"/>
<path id="Vector_10" d="M5.08278 37.8522C4.25298 37.7939 3.56537 37.318 3.35555 36.6135C3.14383 35.9012 3.4396 35.1258 4.11394 34.7494C5.41647 34.0217 6.72596 33.3052 8.04556 32.6054C8.79573 32.2076 9.67799 32.3791 10.2202 32.9812C10.7593 33.5798 10.8042 34.4117 10.2917 35.0383C10.1235 35.2437 9.88718 35.417 9.64766 35.5498C8.43297 36.2228 7.21133 36.8857 5.98147 37.533C5.70466 37.6778 5.38298 37.7474 5.08278 37.8522Z" fill="url(#paint9_linear_0_680)"/>
<path id="Vector_11" d="M20.2083 21.9905C20.1697 21.9709 20.1293 21.933 20.0869 21.8723C20.0882 21.871 20.0901 21.8698 20.0913 21.8691L20.2083 21.9905Z" fill="url(#paint10_linear_0_680)"/>
<path id="Vector_12" d="M40.3168 5.74585L40.2529 5.80968C40.2738 5.78882 40.2953 5.76734 40.3161 5.74585H40.3168Z" fill="url(#paint11_linear_0_680)"/>
</g>
</g>
<defs>
<linearGradient id="paint0_linear_0_680" x1="36.9111" y1="44.9941" x2="36.9111" y2="44.9944" gradientUnits="userSpaceOnUse">
<stop stop-color="#021624"/>
<stop offset="1" stop-color="#092030"/>
</linearGradient>
<linearGradient id="paint1_linear_0_680" x1="11.7051" y1="14.3574" x2="56.254" y2="50.0708" gradientUnits="userSpaceOnUse">
<stop stop-color="#021624"/>
<stop offset="1" stop-color="#092030"/>
</linearGradient>
<linearGradient id="paint2_linear_0_680" x1="39.9229" y1="5.99609" x2="40.0524" y2="6.12502" gradientUnits="userSpaceOnUse">
<stop stop-color="#021624"/>
<stop offset="1" stop-color="#092030"/>
</linearGradient>
<linearGradient id="paint3_linear_0_680" x1="16.2881" y1="0" x2="42.0939" y2="27.3697" gradientUnits="userSpaceOnUse">
<stop stop-color="#021624"/>
<stop offset="1" stop-color="#092030"/>
</linearGradient>
<linearGradient id="paint4_linear_0_680" x1="3.29297" y1="8.90625" x2="8.53698" y2="15.9483" gradientUnits="userSpaceOnUse">
<stop stop-color="#021624"/>
<stop offset="1" stop-color="#092030"/>
</linearGradient>
<linearGradient id="paint5_linear_0_680" x1="0" y1="20.7188" x2="2.52254" y2="26.5316" gradientUnits="userSpaceOnUse">
<stop stop-color="#021624"/>
<stop offset="1" stop-color="#092030"/>
</linearGradient>
<linearGradient id="paint6_linear_0_680" x1="52.041" y1="20.7188" x2="54.5635" y2="26.5317" gradientUnits="userSpaceOnUse">
<stop stop-color="#021624"/>
<stop offset="1" stop-color="#092030"/>
</linearGradient>
<linearGradient id="paint7_linear_0_680" x1="49.3555" y1="8.91418" x2="54.5501" y2="15.953" gradientUnits="userSpaceOnUse">
<stop stop-color="#021624"/>
<stop offset="1" stop-color="#092030"/>
</linearGradient>
<linearGradient id="paint8_linear_0_680" x1="49.3555" y1="32.4043" x2="54.5658" y2="39.4452" gradientUnits="userSpaceOnUse">
<stop stop-color="#021624"/>
<stop offset="1" stop-color="#092030"/>
</linearGradient>
<linearGradient id="paint9_linear_0_680" x1="3.28809" y1="32.3906" x2="8.51468" y2="39.4372" gradientUnits="userSpaceOnUse">
<stop stop-color="#021624"/>
<stop offset="1" stop-color="#092030"/>
</linearGradient>
<linearGradient id="paint10_linear_0_680" x1="20.0869" y1="21.8691" x2="20.2083" y2="21.9905" gradientUnits="userSpaceOnUse">
<stop stop-color="#021624"/>
<stop offset="1" stop-color="#092030"/>
</linearGradient>
<linearGradient id="paint11_linear_0_680" x1="40.2529" y1="5.74585" x2="40.3168" y2="5.80968" gradientUnits="userSpaceOnUse">
<stop stop-color="#021624"/>
<stop offset="1" stop-color="#092030"/>
</linearGradient>
<clipPath id="clip0_0_680">
<rect width="60" height="60" fill="white"/>
</clipPath>
</defs>
</svg>
