<svg width="40" height="40" viewBox="0 0 40 40" fill="none" xmlns="http://www.w3.org/2000/svg">
<g id="bi:safe" clip-path="url(#clip0_0_631)">
<g id="Group">
<path id="Vector" d="M2.5 3.75C2.5 2.75544 2.89509 1.80161 3.59835 1.09835C4.30161 0.395088 5.25544 0 6.25 0L36.25 0C37.2446 0 38.1984 0.395088 38.9016 1.09835C39.6049 1.80161 40 2.75544 40 3.75V36.25C40 37.2446 39.6049 38.1984 38.9016 38.9016C38.1984 39.6049 37.2446 40 36.25 40H6.25C5.25544 40 4.30161 39.6049 3.59835 38.9016C2.89509 38.1984 2.5 37.2446 2.5 36.25V32.5H1.25C0.918479 32.5 0.600537 32.3683 0.366117 32.1339C0.131696 31.8995 0 31.5815 0 31.25C0 30.9185 0.131696 30.6005 0.366117 30.3661C0.600537 30.1317 0.918479 30 1.25 30H2.5V21.25H1.25C0.918479 21.25 0.600537 21.1183 0.366117 20.8839C0.131696 20.6495 0 20.3315 0 20C0 19.6685 0.131696 19.3505 0.366117 19.1161C0.600537 18.8817 0.918479 18.75 1.25 18.75H2.5V10H1.25C0.918479 10 0.600537 9.8683 0.366117 9.63388C0.131696 9.39946 0 9.08152 0 8.75C0 8.41848 0.131696 8.10054 0.366117 7.86612C0.600537 7.6317 0.918479 7.5 1.25 7.5H2.5V3.75ZM6.25 2.5C5.91848 2.5 5.60054 2.6317 5.36612 2.86612C5.1317 3.10054 5 3.41848 5 3.75V36.25C5 36.5815 5.1317 36.8995 5.36612 37.1339C5.60054 37.3683 5.91848 37.5 6.25 37.5H36.25C36.5815 37.5 36.8995 37.3683 37.1339 37.1339C37.3683 36.8995 37.5 36.5815 37.5 36.25V3.75C37.5 3.41848 37.3683 3.10054 37.1339 2.86612C36.8995 2.6317 36.5815 2.5 36.25 2.5H6.25Z" fill="#5E1914"/>
<path id="Vector_2" d="M33.7504 15C34.0819 15 34.3998 15.1317 34.6342 15.3661C34.8687 15.6005 35.0004 15.9184 35.0004 16.25V23.75C35.0004 24.0815 34.8687 24.3994 34.6342 24.6338C34.3998 24.8683 34.0819 25 33.7504 25C33.4188 25 33.1009 24.8683 32.8665 24.6338C32.6321 24.3994 32.5004 24.0815 32.5004 23.75V16.25C32.5004 15.9184 32.6321 15.6005 32.8665 15.3661C33.1009 15.1317 33.4188 15 33.7504 15ZM12.0704 11.16C12.1865 11.0436 12.3244 10.9512 12.4763 10.8882C12.6281 10.8252 12.7909 10.7927 12.9554 10.7927C13.1198 10.7927 13.2826 10.8252 13.4344 10.8882C13.5863 10.9512 13.7242 11.0436 13.8404 11.16L16.5654 13.885C17.835 12.9839 19.3534 12.4998 20.9104 12.4998C22.4673 12.4998 23.9857 12.9839 25.2554 13.885L27.9804 11.16C28.2151 10.9256 28.5333 10.794 28.865 10.7943C29.1967 10.7945 29.5147 10.9265 29.7491 11.1612C29.9835 11.3959 30.115 11.7141 30.1148 12.0458C30.1146 12.3775 29.9826 12.6956 29.7479 12.93L27.0229 15.655C28.8729 18.2475 28.8729 21.755 27.0229 24.345L29.7479 27.07C29.9826 27.3043 30.1146 27.6224 30.1148 27.9541C30.115 28.2858 29.9835 28.604 29.7491 28.8387C29.5147 29.0734 29.1967 29.2054 28.865 29.2057C28.5333 29.2059 28.2151 29.0743 27.9804 28.84L25.2554 26.115C23.9858 27.0164 22.4674 27.5006 20.9104 27.5006C19.3534 27.5006 17.8349 27.0164 16.5654 26.115L13.8404 28.84C13.7241 28.9562 13.5862 29.0484 13.4343 29.1113C13.2825 29.1742 13.1197 29.2065 12.9554 29.2065C12.791 29.2065 12.6282 29.1742 12.4764 29.1113C12.3246 29.0484 12.1866 28.9562 12.0704 28.84C11.9541 28.7237 11.8619 28.5858 11.7991 28.4339C11.7362 28.2821 11.7038 28.1193 11.7038 27.955C11.7038 27.7906 11.7362 27.6278 11.7991 27.476C11.8619 27.3242 11.9541 27.1862 12.0704 27.07L14.7954 24.345C13.8943 23.0753 13.4102 21.5569 13.4102 20C13.4102 18.443 13.8943 16.9246 14.7954 15.655L12.0704 12.93C11.954 12.8138 11.8616 12.6759 11.7986 12.524C11.7356 12.3722 11.7031 12.2094 11.7031 12.045C11.7031 11.8805 11.7356 11.7177 11.7986 11.5659C11.8616 11.414 11.954 11.2761 12.0704 11.16ZM17.3754 16.465C16.8978 16.9262 16.5169 17.4779 16.2549 18.0879C15.9928 18.698 15.8549 19.3541 15.8491 20.018C15.8433 20.6818 15.9698 21.3402 16.2213 21.9547C16.4727 22.5692 16.8439 23.1275 17.3134 23.5969C17.7828 24.0664 18.3411 24.4377 18.9556 24.6891C19.5701 24.9405 20.2285 25.067 20.8924 25.0612C21.5563 25.0554 22.2124 24.9175 22.8224 24.6555C23.4324 24.3934 23.9841 24.0125 24.4454 23.535C25.3561 22.5919 25.8601 21.3289 25.8487 20.018C25.8373 18.707 25.3115 17.4529 24.3845 16.5259C23.4574 15.5988 22.2033 15.073 20.8924 15.0616C19.5814 15.0502 18.3184 15.5542 17.3754 16.465Z" fill="#5E1914"/>
</g>
</g>
<defs>
<clipPath id="clip0_0_631">
<rect width="40" height="40" fill="white"/>
</clipPath>
</defs>
</svg>
