<svg width="50" height="50" viewBox="0 0 50 50" fill="none" xmlns="http://www.w3.org/2000/svg">
<g id="Frame">
<g id="Group">
<path id="Vector" d="M16.9277 17.2937C15.9079 16.5129 14.9395 15.7651 13.9646 15.0258C11.7163 13.3224 8.54124 14.4899 8.01796 17.2501C7.90667 17.8349 8.02652 18.4826 8.13888 19.0834C8.2491 19.6715 8.46741 20.2425 8.67822 20.8071C8.81412 21.1703 8.73921 21.3546 8.39999 21.5698C7.36733 22.2249 6.24371 22.8066 5.38013 23.645C3.47961 25.4911 2.90495 27.7975 3.68079 30.3403C4.45983 32.8948 6.22659 34.5354 8.84195 35.0542C10.2031 35.3248 11.6424 35.2172 13.0464 35.264C13.7495 35.2875 13.7185 35.2672 13.6617 35.9629C13.6072 36.6319 13.6254 37.3062 13.6136 37.9784C13.6104 38.1509 13.6136 38.3235 13.6136 38.5547C11.0667 38.5451 8.5498 38.8082 6.16131 37.7334C4.18481 36.8449 2.60746 35.5144 1.4817 33.6693C-1.30701 29.1014 -0.0539106 23.1677 4.35496 20.1114C4.69632 19.8749 4.78835 19.6715 4.71987 19.2517C4.08315 15.3666 6.30685 11.9673 10.0736 11.0842C11.8607 10.6655 13.5761 10.9287 15.1834 11.831C15.3354 11.9162 15.4906 11.9961 15.6757 12.0952C15.7774 11.9407 15.8683 11.8139 15.9464 11.6797C18.4548 7.38554 22.1702 4.78837 27.112 4.13429C35.3315 3.04663 42.5238 8.69797 43.8122 16.302C43.9652 17.2053 43.9877 18.1343 44.0241 19.0525C44.038 19.3945 44.1215 19.5841 44.4393 19.7535C48.1365 21.7285 50.0178 24.8125 49.9996 28.9916C49.9793 33.5351 46.2424 37.7941 41.7308 38.4375C40.925 38.5526 40.1 38.5536 39.2824 38.5621C37.4814 38.5792 35.6804 38.5675 33.8794 38.5675C33.6686 38.5675 33.4578 38.5675 33.1539 38.5675C33.1539 37.4681 33.1539 36.4188 33.1539 35.3077C33.3176 35.2971 33.5423 35.2683 33.7681 35.2694C35.872 35.2747 37.9758 35.3013 40.0796 35.2885C43.138 35.2704 45.9567 32.9289 46.526 29.9642C47.1199 26.8728 45.5233 23.8261 42.6575 22.5903C42.1022 22.3507 41.5468 22.1067 40.9785 21.9022C40.6329 21.7775 40.5291 21.5847 40.5494 21.2268C40.6083 20.202 40.7346 19.1676 40.6479 18.1524C40.2327 13.3128 37.7232 9.90387 33.217 8.12058C27.57 5.88562 21.236 8.45189 18.5768 13.888C18.0332 15.0023 17.497 16.1187 16.9277 17.2937Z" fill="url(#paint0_linear_231_115)"/>
<path id="Vector_2" d="M30.3944 32.4519C30.2916 32.6554 30.2156 32.8525 30.1022 33.024C29.7298 33.5875 29.3392 34.1383 28.9658 34.7008C28.6158 35.2281 28.7111 35.4188 29.3553 35.5285C30.0027 35.6382 30.649 35.7618 31.2986 35.863C31.8133 35.9429 32.098 36.1645 32.0445 36.7429C31.9995 37.2361 32.0188 37.7368 32.0391 38.2332C32.0584 38.6988 31.8337 38.9033 31.3938 38.9757C30.6576 39.0972 29.9235 39.2325 29.1948 39.3901C28.6886 39.4999 28.6297 39.6597 28.909 40.0836C29.3103 40.6909 29.7213 41.2927 30.1397 41.8893C30.4168 42.2845 30.4158 42.6265 30.0391 42.9684C29.6699 43.3029 29.3178 43.6566 28.9797 44.022C28.6501 44.3778 28.3237 44.3767 27.9427 44.1125C27.3574 43.7067 26.7645 43.3136 26.1685 42.9237C25.6527 42.586 25.5029 42.6393 25.3787 43.2284C25.2289 43.9378 25.0919 44.6505 24.9721 45.3653C24.8972 45.8117 24.6596 46.0098 24.208 45.9992C23.673 45.9864 23.1379 45.9896 22.6029 45.9981C22.2005 46.0045 21.9704 45.8277 21.8977 45.4282C21.7746 44.7496 21.6323 44.0742 21.5124 43.3945C21.3754 42.6243 21.2181 42.5562 20.5547 43.0025C20.0078 43.37 19.4524 43.7248 18.9152 44.104C18.5364 44.3714 18.2079 44.3821 17.8751 44.0326C17.507 43.647 17.1282 43.2688 16.7408 42.9034C16.4229 42.6041 16.4165 42.3122 16.6627 41.9639C17.0928 41.3545 17.5091 40.7345 17.9179 40.1103C18.2132 39.6586 18.1501 39.4956 17.6204 39.3827C16.9088 39.2314 16.1939 39.0897 15.4748 38.9779C14.9783 38.9012 14.7589 38.6487 14.7739 38.1544C14.7878 37.675 14.7932 37.1957 14.7728 36.7173C14.7514 36.2156 14.9847 35.9663 15.4684 35.8864C16.1169 35.7799 16.76 35.6446 17.4085 35.5349C18.1897 35.4038 18.2571 35.2504 17.8045 34.5825C17.4353 34.0381 17.0779 33.4853 16.6926 32.9537C16.4165 32.5744 16.4133 32.2549 16.7686 31.9246C17.1592 31.5614 17.5337 31.18 17.9051 30.7965C18.2025 30.4886 18.4958 30.4673 18.85 30.7155C19.4621 31.1438 20.0881 31.5528 20.7152 31.9598C21.17 32.2538 21.3947 32.159 21.4942 31.6327C21.6258 30.9371 21.75 30.2404 21.8645 29.5426C21.9394 29.0814 22.1727 28.8673 22.6617 28.895C23.1946 28.9248 23.7318 28.9109 24.2658 28.8992C24.6971 28.8896 24.9122 29.0718 24.9796 29.5064C25.0909 30.2223 25.2385 30.9328 25.3884 31.6423C25.5039 32.1899 25.6741 32.2591 26.1514 31.9523C26.7656 31.5582 27.3766 31.1576 27.9705 30.7358C28.3387 30.4737 28.6458 30.479 28.9615 30.8039C29.3456 31.1992 29.7491 31.5763 30.1279 31.9779C30.237 32.0993 30.2948 32.273 30.3944 32.4519ZM20.2507 37.4566C20.2529 39.2037 21.7061 40.6387 23.4536 40.6173C25.1604 40.596 26.6201 39.1419 26.635 37.4492C26.65 35.7309 25.1776 34.281 23.4204 34.2832C21.6462 34.2832 20.2486 35.684 20.2507 37.4566Z" fill="url(#paint1_linear_231_115)"/>
<path id="Vector_3" d="M31.0105 26.3303C30.7248 25.8957 30.5225 25.5474 30.2786 25.2288C30.072 24.9582 30.0999 24.7569 30.3524 24.5492C30.4755 24.448 30.591 24.334 30.6916 24.2104C30.9217 23.9292 31.1518 23.942 31.4236 24.1572C31.6462 24.3329 31.8923 24.4789 32.1288 24.6376C32.3963 24.8176 32.56 24.7399 32.6232 24.4352C32.6671 24.2275 32.728 24.0187 32.7323 23.8088C32.7409 23.2772 33.0041 23.1174 33.5157 23.1409C34.2519 23.175 34.253 23.1473 34.3814 23.8972C34.3931 23.9675 34.3985 24.0378 34.4135 24.1071C34.5761 24.8794 34.5858 24.8837 35.2631 24.4352C35.322 24.3958 35.3819 24.3564 35.4408 24.3169C36.0358 23.9228 36.6404 24.0879 36.8908 24.7569C36.9475 24.9071 36.8373 25.1617 36.7313 25.3215C35.9844 26.455 35.9459 26.3559 37.2899 26.5807C37.6431 26.6393 37.8689 26.7778 37.809 27.1634C37.7512 27.5288 38.0508 28.0156 37.3456 28.1509C36.1289 28.3831 36.115 28.4353 36.8084 29.4964C37.1465 30.013 36.7078 30.1781 36.4809 30.4572C36.2509 30.7406 36.0336 30.8365 35.6709 30.5947C34.6275 29.899 34.5804 29.9086 34.3311 31.1507C34.2005 31.8006 33.7554 31.5683 33.3904 31.6216C32.9774 31.6813 32.8201 31.4661 32.7495 31.0985C32.5151 29.882 32.4862 29.85 31.4707 30.5702C30.881 30.9878 30.7002 30.4636 30.377 30.2346C30.0228 29.9832 30.133 29.7254 30.3385 29.4239C31.0169 28.43 31.0159 28.3799 29.8355 28.1754C29.1367 28.054 29.3283 27.5948 29.2898 27.1836C29.247 26.7256 29.5059 26.6158 29.8965 26.5732C30.239 26.5349 30.5718 26.4294 31.0105 26.3303ZM33.5456 28.7539C34.3033 28.7602 34.9539 28.1317 34.9592 27.386C34.9646 26.6489 34.3097 25.9894 33.5692 25.9862C32.8297 25.9831 32.162 26.6297 32.148 27.3626C32.1341 28.0902 32.7944 28.7475 33.5456 28.7539Z" fill="url(#paint2_linear_231_115)"/>
</g>
</g>
<defs>
<linearGradient id="paint0_linear_231_115" x1="0" y1="4" x2="32.3508" y2="50.7813" gradientUnits="userSpaceOnUse">
<stop stop-color="#5E1914"/>
<stop offset="1" stop-color="#021624"/>
</linearGradient>
<linearGradient id="paint1_linear_231_115" x1="14.7715" y1="28.8926" x2="31.8776" y2="46.1711" gradientUnits="userSpaceOnUse">
<stop stop-color="#5E1914"/>
<stop offset="1" stop-color="#021624"/>
</linearGradient>
<linearGradient id="paint2_linear_231_115" x1="29.2852" y1="23.1387" x2="37.7778" y2="31.6778" gradientUnits="userSpaceOnUse">
<stop stop-color="#5E1914"/>
<stop offset="1" stop-color="#021624"/>
</linearGradient>
</defs>
</svg>
