<svg width="50" height="50" viewBox="0 0 50 50" fill="none" xmlns="http://www.w3.org/2000/svg">
<g id="Frame" clip-path="url(#clip0_231_139)">
<g id="Group">
<path id="Vector" d="M15.4294 13.995C17.4091 13.4368 19.3041 12.7218 21.1751 11.8723C21.1751 10.5942 21.1751 9.32224 21.1751 8.04415C20.3478 7.49092 19.527 6.9414 18.704 6.39312C18.1299 6.01031 17.5494 5.63861 16.9819 5.24222C16.8297 5.13602 16.7351 5.1459 16.6003 5.26568C16.0904 5.72012 15.5066 5.93745 14.8586 5.872C13.8487 5.76951 12.9246 5.03353 12.5919 3.90362C12.4288 3.34792 12.4049 2.77988 12.5234 2.23407C12.7289 1.28939 13.2518 0.597863 14.052 0.224931C15.1968 -0.308534 16.4198 0.144664 17.0993 1.18566C17.4178 1.6722 17.607 2.21308 17.6092 2.82804C17.6092 3.01327 17.619 3.20097 17.594 3.3825C17.5657 3.57885 17.6353 3.68751 17.7733 3.7789C18.5202 4.27408 19.2649 4.77173 20.0097 5.26939C20.7468 5.7621 21.4817 6.25852 22.221 6.74506C22.5569 6.9661 22.7178 7.27359 22.7124 7.72184C22.7004 8.71962 22.7091 9.71616 22.7091 10.7139C22.7091 10.8238 22.7091 10.9325 22.7091 11.0782C22.8059 11.0449 22.8657 11.035 22.9178 11.0054C23.4908 10.6843 24.0615 10.362 24.6323 10.0372C24.8758 9.89893 25.1183 9.89893 25.3607 10.0348C25.9413 10.3595 26.5218 10.688 27.1023 11.014C27.1415 11.0362 27.1828 11.0498 27.2611 11.0832C27.2687 10.9597 27.2796 10.8646 27.2796 10.7683C27.2806 9.76062 27.2883 8.75296 27.2774 7.74531C27.273 7.28717 27.435 6.97228 27.7807 6.74259C29.2495 5.76704 30.7118 4.77914 32.1816 3.80606C32.3545 3.69122 32.4175 3.58255 32.3958 3.34669C32.2968 2.26618 32.5969 1.34867 33.347 0.658371C33.9363 0.116262 34.6147 -0.101075 35.3735 0.0495792C36.2617 0.226166 36.9064 0.768275 37.2924 1.69566C37.5087 2.21431 37.5816 2.74901 37.5142 3.33064C37.425 4.09255 37.1347 4.70999 36.6183 5.18048C35.9671 5.77568 35.2289 6.01648 34.3918 5.80038C34.0135 5.70283 33.6754 5.52501 33.3797 5.24963C33.2622 5.14096 33.1731 5.13232 33.0426 5.21999C31.7098 6.11404 30.3747 7.00438 29.0386 7.89102C28.8679 8.00463 28.7918 8.138 28.7951 8.38127C28.8092 9.43955 28.8005 10.4991 28.8016 11.5586C28.8016 11.8513 28.8016 11.8574 29.0397 11.9562C29.9866 12.3501 30.9292 12.7651 31.887 13.1232C32.7513 13.4467 33.633 13.706 34.4831 13.9851C34.6582 13.8999 34.6299 13.753 34.631 13.6245C34.6332 12.9972 34.6321 12.3699 34.6321 11.7426C34.6321 11.2486 34.6473 10.7547 34.6277 10.262C34.6103 9.7989 34.7778 9.48895 35.1246 9.25926C36.5553 8.31211 37.9806 7.35385 39.4091 6.3993C39.4243 6.38942 39.4417 6.38077 39.4569 6.37089C39.7809 6.15973 39.7722 6.1622 39.7135 5.74852C39.6885 5.56946 39.6939 5.38053 39.7146 5.199C39.7624 4.76185 39.869 4.34941 40.0744 3.96289C40.6517 2.87497 41.8237 2.29581 42.9435 2.64652C43.8393 2.92683 44.4318 3.58132 44.7373 4.55193C44.8982 5.06316 44.9189 5.59786 44.7928 6.15232C44.6547 6.75864 44.4068 7.26618 43.998 7.66998C43.4414 8.22073 42.7891 8.4603 42.0487 8.39608C41.5574 8.35286 41.1181 8.16022 40.7333 7.81446C40.5909 7.68603 40.468 7.6848 40.3147 7.78853C38.9992 8.6764 37.6838 9.5618 36.3618 10.4373C36.1889 10.5522 36.1259 10.6868 36.1269 10.9053C36.1324 11.9649 36.128 13.0232 36.1302 14.0827C36.1313 14.3988 36.1704 14.4457 36.4498 14.5062C37.2043 14.668 37.9577 14.8347 38.7133 14.9878C39.0514 15.0558 39.395 15.0891 39.7331 15.1508C39.9201 15.1854 40.1179 15.2089 40.2843 15.3003C40.5974 15.4731 40.7181 15.8066 40.7235 16.1869C40.7387 17.1427 40.7452 18.0997 40.7572 19.0555C40.7605 19.3531 40.7702 19.652 40.7778 19.9496C40.7822 20.1508 40.8387 20.2719 41.0355 20.3497C42.0411 20.7448 43.0174 21.219 43.9122 21.8846C44.035 21.976 44.1492 21.9513 44.2698 21.8846C44.8232 21.5808 45.4048 21.4153 46.0213 21.4326C47.1998 21.466 48.1891 21.9809 48.986 22.9614C49.4372 23.5159 49.722 24.1704 49.8872 24.9088C50.022 25.5127 50.0329 26.1215 49.9503 26.7117C49.7905 27.8552 49.3013 28.8159 48.4935 29.542C47.9543 30.0274 47.3498 30.3558 46.6627 30.4682C46.6094 30.4768 46.5572 30.4991 46.5029 30.504C46.3181 30.5201 46.2028 30.609 46.1104 30.8115C45.6658 31.7858 45.0689 32.6366 44.4046 33.4282C43.4436 34.5742 42.3651 35.5583 41.2127 36.4425C40.3615 37.0958 39.4798 37.6885 38.5687 38.2269C38.3611 38.3492 38.2241 38.5183 38.1165 38.7628C37.0815 41.1017 35.6942 43.1368 33.9559 44.8532C32.7556 46.0387 31.4315 47.0204 30.0138 47.8416C28.9125 48.4801 27.7797 49.0308 26.6044 49.468C26.1337 49.6433 25.6608 49.8125 25.1835 49.9656C25.0683 50.0027 24.9269 50.0039 24.8128 49.9644C24.1822 49.7507 23.5495 49.5408 22.9309 49.2889C21.947 48.8888 20.9881 48.4208 20.0553 47.8824C18.3202 46.8797 16.7286 45.6473 15.3337 44.1C15.1902 43.9407 15.0413 43.8357 14.8413 43.8209C14.6695 43.8073 14.4988 43.7888 14.3281 43.7653C13.8345 43.6986 13.3399 43.6394 12.8485 43.5579C12.3756 43.4801 11.9026 43.3899 11.4341 43.2825C11.0014 43.1837 10.5698 43.0664 10.1447 42.933C9.63263 42.7725 9.12057 42.6058 8.62047 42.4045C7.76161 42.06 6.93101 41.6389 6.1689 41.0646C6.01235 40.9461 5.88189 40.93 5.70033 41.0325C4.96541 41.4524 4.17395 41.545 3.37488 41.4018C2.48775 41.2425 1.72456 40.7769 1.09943 40.0348C0.749365 39.6186 0.466701 39.1506 0.28297 38.6134C0.142725 38.2047 0.0285722 37.7848 0.014439 37.3403C-0.00295569 36.7858 -0.0127402 36.2289 0.135115 35.6917C0.29058 35.1261 0.511275 34.5951 0.838513 34.1259C1.35057 33.3911 1.99417 32.8688 2.77476 32.5774C3.01285 32.4885 3.26725 32.4514 3.51621 32.4032C3.6445 32.3786 3.75213 32.3563 3.82497 32.202C4.61099 30.5275 5.72969 29.1716 7.01037 27.9836C7.62245 27.4156 8.27693 26.9068 8.91292 26.3709C8.95641 26.3338 8.99772 26.2919 9.04664 26.2672C9.23037 26.1721 9.26842 26.0115 9.26516 25.793C9.23798 24.3334 9.20428 22.8737 9.20537 21.4141C9.20646 19.7903 9.24016 18.1652 9.26734 16.5413C9.27169 16.3067 9.30321 16.0708 9.34235 15.8399C9.39671 15.5176 9.58479 15.3126 9.85876 15.2459C10.2382 15.1533 10.6241 15.0977 11.0068 15.0224C11.5765 14.91 12.1451 14.7964 12.7148 14.6816C12.9811 14.6273 13.2464 14.5643 13.5138 14.5112C13.8432 14.4457 13.8911 14.3889 13.8911 14.016C13.8911 12.9985 13.8856 11.9797 13.8954 10.9622C13.8976 10.7078 13.8334 10.5534 13.6301 10.4213C12.3136 9.55563 11.0035 8.6764 9.69677 7.79347C9.52934 7.67986 9.40867 7.69097 9.25864 7.82434C8.02253 8.91226 6.11128 8.45042 5.38397 6.73395C5.13609 6.14985 5.05238 5.52377 5.20024 4.8557C5.41767 3.87028 5.91559 3.18369 6.72445 2.77741C7.73334 2.27112 8.94662 2.58601 9.67611 3.56279C9.97074 3.95672 10.1664 4.40127 10.248 4.92239C10.3045 5.28174 10.3545 5.62627 10.2512 5.98314C10.2088 6.13009 10.3034 6.20048 10.4045 6.26716C10.7709 6.50673 11.1329 6.75494 11.4982 6.99821C12.6158 7.74407 13.7302 8.49611 14.8532 9.23086C15.25 9.49018 15.4142 9.86188 15.412 10.3645C15.4066 11.4438 15.4098 12.5243 15.412 13.6035C15.4044 13.7258 15.4196 13.8443 15.4294 13.995ZM39.3123 21.6858C39.3004 21.6858 39.2895 21.6858 39.2776 21.6858C39.2776 21.2338 39.283 20.7819 39.2765 20.3299C39.2602 19.2506 39.2384 18.1713 39.2178 17.0921C39.2134 16.8389 39.1895 16.8056 38.9797 16.7673C38.7122 16.7179 38.4426 16.6796 38.1763 16.6265C37.6957 16.5327 37.2141 16.4438 36.7368 16.3314C36.1628 16.1968 35.5899 16.0511 35.0202 15.893C34.2581 15.6818 33.4927 15.4768 32.7404 15.2262C31.8935 14.9434 31.0531 14.6334 30.2214 14.2951C29.2984 13.9184 28.3809 13.5196 27.4774 13.0861C26.7077 12.7169 25.9608 12.2872 25.2074 11.8747C25.0737 11.8019 24.9541 11.7759 24.8226 11.855C23.7223 12.5156 22.5895 13.0948 21.4306 13.606C20.6924 13.932 19.9466 14.2383 19.1975 14.5297C18.592 14.7656 17.9788 14.9755 17.3657 15.1792C16.7601 15.3805 16.1524 15.5781 15.5392 15.7473C14.8293 15.9436 14.115 16.1227 13.3975 16.2832C12.6267 16.4561 11.8526 16.6043 11.0786 16.7549C10.81 16.808 10.7709 16.8377 10.7698 17.1427C10.7622 19.3729 10.6894 21.6031 10.7307 23.8345C10.7546 25.1089 10.8263 26.3795 10.8829 27.6515C10.885 27.7021 10.8927 27.754 10.8981 27.8046C10.9611 28.4047 11.0231 29.0049 11.0883 29.605C11.1286 29.9706 11.1634 30.3373 11.2221 30.6991C11.309 31.2412 11.4134 31.7809 11.5134 32.3193C11.5917 32.7379 11.6624 33.1602 11.7624 33.5727C11.8809 34.0617 12.0222 34.5458 12.1636 35.0274C12.3136 35.5374 12.4549 36.0535 12.6386 36.5487C13.0279 37.5971 13.4769 38.6122 14.0194 39.5729C14.5086 40.4398 15.0522 41.261 15.6653 42.0204C15.7262 42.097 15.8262 42.1699 15.9121 42.176C16.409 42.2118 16.9058 42.2477 17.4026 42.2439C18.1713 42.2378 18.941 42.2217 19.7085 42.1686C20.737 42.0958 21.7633 41.9871 22.7895 41.8858C23.0776 41.8574 23.3636 41.8056 23.6495 41.7537C24.2116 41.6512 24.7736 41.5475 25.3335 41.4339C25.9728 41.303 26.6142 41.177 27.248 41.0177C27.9166 40.8498 28.5809 40.6534 29.243 40.4534C29.9399 40.2422 30.64 40.0397 31.3238 39.7816C32.3066 39.4112 33.2862 39.0234 34.2483 38.5887C35.1594 38.1775 36.0454 37.6947 36.9434 37.2477C37.0586 37.1909 37.1239 37.1081 37.1771 36.9748C37.4315 36.3351 37.6425 35.6794 37.8338 35.0113C38.036 34.3037 38.2273 33.5961 38.36 32.8663C38.4002 32.6465 38.4535 32.4304 38.4959 32.2106C38.5578 31.892 38.622 31.5734 38.6709 31.2523C38.7231 30.9103 38.7622 30.5645 38.8025 30.22C38.8731 29.6112 38.9416 29.0024 39.0101 28.3936C39.0166 28.3331 39.0177 28.2701 39.0232 28.2096C39.0819 27.5366 39.1688 26.8636 39.1938 26.1894C39.2515 24.6865 39.2754 23.1862 39.3123 21.6858ZM17.6244 43.995C17.6211 44.0234 17.6168 44.0506 17.6135 44.079C17.6896 44.1469 17.7647 44.2185 17.844 44.2827C18.1517 44.5309 18.4594 44.7791 18.7692 45.0237C19.7629 45.809 20.8337 46.4339 21.9372 46.9908C22.8602 47.4563 23.8115 47.8367 24.7736 48.18C24.9117 48.2294 25.0846 48.2269 25.2226 48.1812C25.6716 48.0318 26.1174 47.8639 26.5566 47.6811C27.6894 47.2081 28.7907 46.6574 29.8485 45.9955C32.0772 44.6001 33.9722 42.77 35.4692 40.4237C35.5931 40.2286 35.7029 40.0212 35.8193 39.8199C35.6899 39.8125 35.5899 39.8483 35.4931 39.8915C34.88 40.1595 34.2701 40.4398 33.6525 40.6967C33.0687 40.9387 32.4806 41.1684 31.8892 41.3832C31.3488 41.5796 30.802 41.7537 30.2551 41.9278C29.7866 42.0772 29.3158 42.2205 28.8429 42.3526C28.2906 42.5057 27.7362 42.649 27.1806 42.7836C26.749 42.8886 26.3131 42.9799 25.8793 43.0713C25.3553 43.1812 24.8323 43.2998 24.3062 43.385C23.5995 43.4986 22.8907 43.5937 22.1807 43.6776C21.4708 43.7616 20.7587 43.8394 20.0466 43.8863C19.3247 43.9333 18.6007 43.937 17.8777 43.9617C17.794 43.9629 17.7092 43.9827 17.6244 43.995ZM9.40432 28.1121C9.3043 28.175 9.22385 28.2121 9.15645 28.2714C8.7281 28.6443 8.29106 29.0061 7.88011 29.4013C7.02886 30.22 6.24283 31.1103 5.61771 32.1674C5.53508 32.3069 5.46442 32.4539 5.3731 32.6268C6.6353 33.2257 7.47568 34.2111 7.84641 35.688C8.21822 37.1686 7.93555 38.5035 7.15279 39.7532C7.40719 39.91 7.6268 40.0718 7.86489 40.1867C8.46935 40.4768 9.07599 40.7683 9.69459 41.0177C10.1349 41.1943 10.5948 41.3116 11.0503 41.4376C11.4797 41.5561 11.9124 41.6623 12.3462 41.7562C12.6832 41.829 13.0246 41.8747 13.3649 41.9254C13.4279 41.9352 13.4943 41.9081 13.5649 41.8982C13.2649 41.3882 12.9789 40.9103 12.7006 40.4262C12.2114 39.5742 11.8102 38.6665 11.4406 37.7428C11.2373 37.2353 11.0579 36.713 10.8916 36.1881C10.7491 35.7386 10.6372 35.2768 10.5187 34.8187C10.3828 34.2914 10.2404 33.7653 10.1273 33.2318C10.0262 32.7564 9.95878 32.2711 9.87941 31.7895C9.83593 31.529 9.79788 31.2659 9.75656 31.0041C9.69677 30.6213 9.62393 30.2422 9.58153 29.8569C9.52282 29.3284 9.48803 28.7962 9.44237 28.2664C9.4402 28.2343 9.42824 28.2059 9.40432 28.1121ZM39.2417 35.7856C39.3374 35.7362 39.4026 35.7139 39.4569 35.6732C40.0755 35.199 40.7061 34.7433 41.3062 34.2407C42.426 33.3035 43.4327 32.2304 44.2557 30.9461C44.3394 30.8152 44.4264 30.6843 44.5036 30.5472C44.6112 30.3558 44.5851 30.2719 44.4068 30.1743C44.2687 30.099 44.1296 30.0286 43.998 29.9397C43.1674 29.379 42.5684 28.6023 42.239 27.5576C42.1162 27.1674 42.0531 26.7735 42.0096 26.366C41.9422 25.7411 42.027 25.1373 42.1846 24.5482C42.2988 24.1222 42.4945 23.7283 42.7195 23.359C42.8369 23.1664 42.838 23.1417 42.6576 23.0392C42.1988 22.7811 41.7356 22.5341 41.2703 22.2909C41.1442 22.2254 41.0072 22.1871 40.8289 22.1192C40.817 22.3773 40.8061 22.5786 40.7996 22.7799C40.7387 24.6161 40.7431 26.4549 40.5463 28.2837C40.4724 28.974 40.4126 29.6668 40.3278 30.3558C40.2419 31.0548 40.1397 31.7488 39.9983 32.4354C39.8896 32.9602 39.7874 33.4875 39.67 34.0111C39.5396 34.5816 39.3961 35.1471 39.2417 35.7856ZM3.96412 39.7396C5.37527 39.7668 6.47114 38.5319 6.50158 36.9735C6.53202 35.425 5.4742 34.1197 4.03805 34.0901C2.63343 34.0604 1.57235 35.3682 1.51691 36.7809C1.45168 38.4393 2.65191 39.7544 3.96412 39.7396ZM48.4674 25.9831C48.525 24.4112 47.2748 23.1343 45.9854 23.1615C44.5873 23.1911 43.4925 24.3889 43.4903 25.9893C43.4882 27.5737 44.5558 28.7962 45.9789 28.8271C47.2998 28.8579 48.5272 27.5737 48.4674 25.9831ZM33.8961 2.93918C33.8645 3.61342 34.4244 4.16665 34.9528 4.158C35.5649 4.14812 36.0454 3.62207 36.0324 2.92807C36.0193 2.2563 35.629 1.74382 34.9593 1.72777C34.3309 1.71295 33.8624 2.35385 33.8961 2.93918ZM16.0904 2.95277C16.135 2.31063 15.6262 1.71295 15.0217 1.72654C14.4868 1.73765 13.9759 2.16986 13.9791 2.94783C13.9824 3.62577 14.4499 4.15183 15.0326 4.16047C15.5479 4.16788 16.1219 3.64306 16.0904 2.95277ZM7.72029 4.27778C7.15714 4.24074 6.64508 4.81619 6.63856 5.4682C6.63204 6.06588 7.06582 6.70554 7.72247 6.6932C8.37912 6.68085 8.78137 6.12639 8.7879 5.48302C8.79442 4.80137 8.28127 4.25185 7.72029 4.27778ZM43.3479 5.49043C43.3718 4.83718 42.8446 4.27037 42.2934 4.27161C41.6791 4.27408 41.1899 4.81742 41.204 5.49043C41.2182 6.15603 41.6019 6.67591 42.2771 6.69196C42.9478 6.70801 43.3675 6.03748 43.3479 5.49043Z" fill="url(#paint0_linear_231_139)"/>
<path id="Vector_2" d="M19.5625 24.2615C19.5625 24.0997 19.5625 23.9985 19.5625 23.8984C19.5625 23.4564 19.5571 23.0143 19.5636 22.5722C19.593 20.673 20.2322 19.0886 21.502 17.8513C22.125 17.2449 22.8403 16.8276 23.6427 16.5966C24.246 16.4238 24.8527 16.3373 25.4691 16.4114C26.8563 16.5781 28.0446 17.2202 28.9937 18.3934C29.4949 19.0133 29.8711 19.7221 30.1113 20.526C30.3157 21.2114 30.4342 21.9054 30.4244 22.629C30.419 23.0501 30.4233 23.4724 30.4244 23.8935C30.4244 23.9948 30.432 24.096 30.4364 24.2244C30.5244 24.2368 30.6016 24.2541 30.6788 24.2553C30.9408 24.2615 31.2039 24.2627 31.4659 24.2652C31.9791 24.2701 32.5379 24.6653 32.7858 25.3926C32.814 25.4766 32.8075 25.5754 32.8238 25.6655C32.8499 25.8026 32.8836 25.9384 32.9195 26.1002C33.0489 26.1002 33.1565 26.1002 33.263 26.1002C34.1143 26.1002 34.9644 26.099 35.8157 26.1015C36.0233 26.1015 36.2299 26.1039 36.4115 26.257C36.6702 26.4756 36.7681 26.7683 36.7137 27.1178C36.667 27.4166 36.5115 27.645 36.2506 27.7401C36.0984 27.7957 35.9331 27.8229 35.7733 27.8253C34.9318 27.834 34.0904 27.829 33.2478 27.829C33.1413 27.829 33.0347 27.829 32.9401 27.829C32.851 28.1254 32.8499 29.4652 32.9358 29.7851C33.0315 29.7913 33.1369 29.8024 33.2424 29.8024C34.1208 29.8036 34.9981 29.8024 35.8766 29.8048C36.0571 29.8048 36.2343 29.8135 36.3952 29.9407C36.6713 30.1605 36.7702 30.463 36.7115 30.8211C36.6615 31.1299 36.4963 31.362 36.219 31.4485C36.0734 31.4941 35.9179 31.5176 35.7657 31.5188C34.9329 31.525 34.1001 31.5225 33.2674 31.5225C33.1945 31.5225 33.1228 31.525 33.0499 31.525C32.9412 31.5262 32.8782 31.5855 32.8782 31.7115C32.8771 32.2363 32.8771 32.7599 32.8803 33.2847C32.8814 33.4625 32.9836 33.4996 33.1184 33.4983C33.5892 33.4946 34.0599 33.4971 34.5307 33.4983C35.0101 33.4996 35.4895 33.4983 35.9701 33.502C36.2864 33.5045 36.5191 33.6564 36.6572 33.9935C36.8529 34.4677 36.6235 35.0123 36.2343 35.1407C36.081 35.1914 35.9146 35.2099 35.7537 35.2111C34.9025 35.2173 34.0523 35.2136 33.2011 35.2148C32.8988 35.2148 32.8695 35.2469 32.826 35.5939C32.7314 36.3669 32.2628 36.9041 31.5768 37.0202C31.4159 37.0474 31.2528 37.0634 31.0909 37.0634C27.027 37.0659 22.9632 37.0659 18.8993 37.0647C18.5917 37.0647 18.284 37.0486 18.0003 36.8868C17.5089 36.6065 17.1979 36.1805 17.1512 35.5371C17.1294 35.2469 17.0979 35.216 16.825 35.2148C15.9651 35.2123 15.1051 35.216 14.2452 35.2111C14.1017 35.2099 13.9549 35.1975 13.8157 35.1592C13.4418 35.0555 13.2211 34.6838 13.2624 34.2368C13.2961 33.8774 13.5842 33.523 13.9255 33.5095C14.043 33.5045 14.1604 33.4983 14.2778 33.4983C15.1193 33.4971 15.9607 33.4983 16.8033 33.4971C17.0979 33.4971 17.1316 33.4588 17.1349 33.1242C17.1381 32.7031 17.1381 32.2808 17.1349 31.8597C17.1327 31.5547 17.1088 31.525 16.8359 31.5238C15.9575 31.5213 15.0801 31.5262 14.2017 31.5188C14.0419 31.5176 13.8777 31.4843 13.7233 31.4336C13.4842 31.3546 13.2004 30.9891 13.2613 30.5248C13.308 30.1691 13.5929 29.8394 13.8853 29.8197C14.0027 29.811 14.1202 29.8061 14.2376 29.8061C15.0888 29.8048 15.939 29.8061 16.7902 29.8048C17.099 29.8048 17.1316 29.7678 17.1338 29.4159C17.136 28.9948 17.137 28.5724 17.1338 28.1513C17.1316 27.8636 17.1066 27.8327 16.8511 27.8315C15.9727 27.829 15.0953 27.834 14.2169 27.8266C14.0658 27.8253 13.9092 27.8019 13.7657 27.75C13.4113 27.6241 13.2069 27.2425 13.2635 26.8164C13.3124 26.4485 13.6201 26.1126 13.9495 26.1126C14.3387 26.1126 14.7279 26.1039 15.1171 26.1027C15.6868 26.1002 16.2575 26.1039 16.8272 26.1015C17.0881 26.1002 17.137 26.0644 17.1457 25.768C17.1707 24.9357 17.9187 24.2368 18.5678 24.2615C18.8874 24.2714 19.2027 24.2615 19.5625 24.2615ZM25.0158 25.9755C23.0425 25.9755 21.0693 25.9755 19.0972 25.9755C19.0157 25.9755 18.9341 25.9718 18.8526 25.9767C18.6743 25.9878 18.6493 26.015 18.6352 26.2101C18.6297 26.2916 18.6319 26.3744 18.6319 26.4571C18.6319 27.6191 18.6319 28.7811 18.6319 29.9431C18.6319 31.609 18.6308 33.2748 18.633 34.9407C18.633 35.321 18.6569 35.3445 18.9874 35.3445C19.6114 35.3457 20.2366 35.3445 20.8606 35.3445C24.245 35.3445 27.6304 35.3445 31.0148 35.3445C31.3355 35.3445 31.3713 35.3087 31.3713 34.9703C31.3724 32.0807 31.3724 29.1911 31.3713 26.3027C31.3713 26.0039 31.3518 25.9854 31.0974 25.9767C31.0245 25.9743 30.9528 25.9755 30.88 25.9755C28.9263 25.9755 26.9716 25.9755 25.0158 25.9755ZM28.8872 24.2331C28.8937 24.1207 28.9057 24.0219 28.9057 23.9219C28.9067 23.4391 28.9024 22.9562 28.9057 22.4734C28.91 21.6757 28.711 20.9384 28.349 20.2667C27.3532 18.4168 25.4071 17.6487 23.6459 18.3872C22.1576 19.012 21.0672 20.6458 21.0791 22.5882C21.0824 23.0303 21.078 23.4724 21.0802 23.9145C21.0802 24.0145 21.09 24.1145 21.0976 24.2343C23.7014 24.2331 26.2823 24.2331 28.8872 24.2331Z" fill="url(#paint1_linear_231_139)"/>
<path id="Vector_3" d="M23.6831 33.6724C23.3787 33.6859 23.1722 33.5303 23.0091 33.2723C22.5905 32.6128 22.1665 31.9571 21.7447 31.3002C21.6077 31.0865 21.4664 30.8766 21.3349 30.6593C21.1935 30.4271 21.112 30.1814 21.1587 29.8838C21.2131 29.5392 21.399 29.3318 21.6686 29.2367C21.9665 29.1317 22.2459 29.2231 22.4557 29.4923C22.5916 29.6664 22.6993 29.8689 22.821 30.0579C23.0972 30.4839 23.3722 30.9087 23.6516 31.3323C23.7984 31.5558 23.8136 31.5558 24.0006 31.3718C24.6518 30.7297 25.303 30.0888 25.9542 29.4466C26.4696 28.9379 26.9849 28.4279 27.5013 27.9203C27.6817 27.7437 27.872 27.598 28.1286 27.6079C28.4178 27.619 28.6352 27.7783 28.7657 28.05C28.9113 28.3538 28.9124 28.6773 28.7102 28.9663C28.6439 29.0601 28.5667 29.1478 28.4863 29.2268C27.448 30.2518 26.4087 31.2742 25.3704 32.2967C24.9975 32.6647 24.6235 33.0315 24.2496 33.397C24.0821 33.56 23.9038 33.6958 23.6831 33.6724Z" fill="url(#paint2_linear_231_139)"/>
</g>
</g>
<defs>
<linearGradient id="paint0_linear_231_139" x1="0.00488281" y1="0" x2="49.9986" y2="49.9978" gradientUnits="userSpaceOnUse">
<stop stop-color="#5E1914"/>
<stop offset="1" stop-color="#021624"/>
</linearGradient>
<linearGradient id="paint1_linear_231_139" x1="13.2529" y1="16.3848" x2="33.7686" y2="39.6729" gradientUnits="userSpaceOnUse">
<stop stop-color="#5E1914"/>
<stop offset="1" stop-color="#021624"/>
</linearGradient>
<linearGradient id="paint2_linear_231_139" x1="21.1455" y1="27.6074" x2="27.0406" y2="35.1115" gradientUnits="userSpaceOnUse">
<stop stop-color="#5E1914"/>
<stop offset="1" stop-color="#021624"/>
</linearGradient>
<clipPath id="clip0_231_139">
<rect width="50" height="50" fill="white"/>
</clipPath>
</defs>
</svg>
