<svg width="50" height="50" viewBox="0 0 50 50" fill="none" xmlns="http://www.w3.org/2000/svg">
<g id="Frame" clip-path="url(#clip0_231_5)">
<g id="Group">
<path id="Vector" d="M30.2867 41.6973C30.9686 43.9686 31.624 46.1578 32.285 48.3609C33.1826 48.3609 34.0481 48.3609 34.9569 48.3609C34.9569 48.911 34.9569 49.4374 34.9569 50.0014C28.3329 50.0014 21.695 50.0014 15.0292 50.0014C15.0292 49.4819 15.0292 48.9667 15.0292 48.3693C15.7529 48.3693 16.4918 48.3456 17.2279 48.379C17.6162 48.3971 17.7581 48.2565 17.8625 47.8944C18.4553 45.8487 19.0774 43.8113 19.7119 41.6973C19.4587 41.6973 19.2597 41.6973 19.0607 41.6973C13.6446 41.6973 8.2285 41.6973 2.81241 41.6973C1.00195 41.6959 0 40.7016 0 38.9024C0 26.8633 0 14.8256 0 2.7866C0 1.01381 1.00612 0 2.76788 0C17.5925 0 32.4172 0 47.2419 0C48.9786 0 49.9986 1.01381 49.9986 2.74482C50 14.8187 50 26.8912 49.9986 38.965C49.9986 40.6682 48.9758 41.6959 47.2794 41.6959C41.8466 41.6987 36.4125 41.6973 30.9797 41.6973C30.7723 41.6973 30.5664 41.6973 30.2867 41.6973ZM48.3329 35.0045C48.3329 34.8081 48.3329 34.6702 48.3329 34.5324C48.3329 23.9542 48.3329 13.3759 48.3329 2.79913C48.3329 1.92597 48.0671 1.66834 47.1709 1.66834C32.4005 1.66834 17.6301 1.66834 2.85834 1.66834C1.90509 1.66834 1.66713 1.90926 1.66574 2.87155C1.66574 13.3968 1.66574 23.9235 1.66574 34.4488C1.66574 34.6312 1.66574 34.8151 1.66574 35.0031C17.2516 35.0045 32.7637 35.0045 48.3329 35.0045ZM1.66713 36.7104C1.66713 37.422 1.66713 38.0807 1.66713 38.738C1.66713 39.827 1.8717 40.029 2.9808 40.029C17.6621 40.029 32.3434 40.029 47.0248 40.029C47.1987 40.029 47.3727 40.0387 47.5452 40.022C47.9544 39.983 48.2786 39.7518 48.2995 39.3549C48.3468 38.4804 48.3148 37.6003 48.3148 36.7118C32.7526 36.7104 17.2433 36.7104 1.66713 36.7104ZM19.4656 48.3372C23.1909 48.3372 26.8411 48.3372 30.5385 48.3372C29.9082 46.24 29.2778 44.1887 28.6822 42.1262C28.5764 41.7614 28.4136 41.6862 28.0685 41.6889C26.1773 41.7043 24.2861 41.6959 22.3963 41.6959C21.4542 41.6959 21.4514 41.6959 21.187 42.5788C20.6151 44.4867 20.0459 46.3932 19.4656 48.3372Z" fill="url(#paint0_linear_231_5)"/>
<path id="Vector_2" d="M31.6374 33.3572C27.5767 33.3572 23.5161 33.3585 19.4554 33.3572C17.6811 33.3572 16.668 32.3517 16.668 30.5914C16.6666 24.9305 16.6666 19.2682 16.668 13.6073C16.668 11.8456 17.6797 10.8416 19.454 10.8416C22.3861 10.8402 25.3196 10.8513 28.2517 10.836C29.1019 10.8318 29.8033 11.1075 30.3933 11.7161C31.0571 12.4013 31.7501 13.06 32.4111 13.7479C32.7103 14.0599 33.0401 14.1852 33.4715 14.1838C36.9422 14.1727 40.4128 14.1768 43.8835 14.1782C45.655 14.1782 46.6639 15.1837 46.6653 16.9495C46.6666 21.4991 46.6666 26.0488 46.6653 30.5998C46.6653 32.3392 45.6522 33.3572 43.9224 33.3585C39.8284 33.3585 35.7329 33.3572 31.6374 33.3572ZM31.6124 31.6902C35.6911 31.6902 39.7699 31.6902 43.8487 31.6902C44.7365 31.6902 44.9981 31.4298 44.9995 30.5469C45.0009 26.0307 45.0009 21.5145 44.9995 16.9983C44.9995 16.107 44.7407 15.8466 43.8598 15.8466C40.353 15.8452 36.8476 15.841 33.3407 15.8494C32.5489 15.8507 31.8865 15.5875 31.3327 15.0263C30.6494 14.3342 29.948 13.6602 29.2759 12.9569C28.9642 12.631 28.6218 12.5001 28.171 12.5015C25.2904 12.5155 22.4084 12.5085 19.5278 12.5085C18.5731 12.5085 18.3338 12.7494 18.3338 13.7103C18.3338 19.303 18.3338 24.8971 18.3338 30.4898C18.3338 31.4465 18.5759 31.6888 19.5319 31.6888C23.5578 31.6902 27.5851 31.6902 31.6124 31.6902Z" fill="url(#paint1_linear_231_5)"/>
<path id="Vector_3" d="M29.7618 8.54712C29.3555 8.9454 28.9756 9.31722 28.5289 9.7545C28.1267 9.32558 27.6981 8.89527 27.3029 8.43849C27.076 8.17529 26.8729 8.12655 26.5458 8.27138C25.7707 8.61535 24.9817 8.93287 24.1815 9.21696C23.9505 9.29912 23.6388 9.3033 23.4092 9.21974C22.6452 8.94122 21.8937 8.62371 21.1534 8.28391C20.9572 8.19339 20.7582 8.00122 20.6678 7.80625C20.2934 7.0055 19.9455 6.19083 19.6199 5.3692C19.5044 5.07814 19.3471 4.98484 19.0438 4.99598C18.4384 5.01826 17.8317 5.00294 17.2082 5.00294C16.8047 5.94434 16.4248 6.87599 16.0031 7.78675C15.9057 7.99704 15.6928 8.20314 15.4827 8.30062C14.7451 8.6432 13.9909 8.95376 13.2283 9.23785C13.0279 9.31305 12.7524 9.31305 12.5506 9.23924C11.7212 8.93565 10.9029 8.59864 10.0889 8.25606C9.81749 8.14187 9.62684 8.14465 9.41253 8.38697C9.01176 8.84095 8.32848 9.20999 8.21994 9.71272C8.11279 10.2099 8.49965 10.8686 8.79327 11.3866C9.37774 12.4172 9.23719 13.3377 8.79745 14.4058C8.36188 15.4642 7.82055 16.2023 6.69197 16.51C6.11306 16.6674 5.57591 16.9779 4.9984 17.2286C4.9984 17.8957 4.98031 18.5557 5.01231 19.2131C5.01927 19.3481 5.18487 19.532 5.32264 19.5946C6.12559 19.9623 6.9522 20.2826 7.74958 20.6614C7.97223 20.7672 8.19211 20.9914 8.29648 21.2156C8.63463 21.937 8.94078 22.6765 9.20936 23.4257C9.29286 23.6555 9.28729 23.966 9.20519 24.1986C8.9213 24.9979 8.60402 25.7889 8.26029 26.5646C8.11418 26.8933 8.17123 27.0952 8.42868 27.3236C8.86981 27.7121 9.23302 28.3708 9.72147 28.4739C10.2057 28.5755 10.8459 28.2009 11.3455 27.9099C12.4086 27.2902 13.4148 27.3208 14.4459 27.9461C14.6936 28.0965 14.9817 28.1814 15.3087 28.3207C15.1014 28.8248 14.8996 29.3122 14.6797 29.847C14.1871 29.6464 13.7376 29.432 13.2645 29.2857C13.0265 29.2119 12.7231 29.1952 12.4935 29.2774C11.5653 29.6116 10.6455 29.9765 9.73956 30.3692C9.39584 30.5182 9.19127 30.4541 8.94218 30.1937C8.13644 29.3554 7.31262 28.5324 6.47627 27.7246C6.23135 27.4879 6.16316 27.3027 6.30928 26.9699C6.69893 26.0814 7.02038 25.1623 7.40446 24.2724C7.54919 23.9382 7.48796 23.668 7.3989 23.3379C7.14284 22.3798 6.56672 21.8186 5.61487 21.5373C4.95526 21.3423 4.34296 20.99 3.69586 20.7407C3.40085 20.6265 3.31874 20.4622 3.32292 20.16C3.33962 18.9624 3.34101 17.7634 3.32152 16.5657C3.31596 16.2412 3.4078 16.0713 3.71674 15.9474C4.6171 15.5867 5.49798 15.1773 6.39834 14.8152C6.72954 14.6815 6.89514 14.4601 7.06909 14.1579C7.56171 13.3015 7.55336 12.4965 7.09135 11.6248C6.7685 11.0162 6.57786 10.338 6.30371 9.70158C6.18821 9.43281 6.18125 9.25316 6.41643 9.02617C7.30427 8.17111 8.17402 7.29795 9.03124 6.41086C9.24137 6.19362 9.41114 6.19222 9.66302 6.29667C10.5745 6.67546 11.5013 7.01943 12.4086 7.41075C12.7412 7.55419 13.0112 7.49849 13.3424 7.40936C14.2984 7.15034 14.8578 6.57519 15.1403 5.62404C15.3407 4.94724 15.6664 4.30386 15.9781 3.66604C16.0532 3.51286 16.2954 3.3541 16.4637 3.34992C17.7134 3.32346 18.963 3.32346 20.2113 3.34992C20.3769 3.3541 20.6163 3.52539 20.6872 3.67997C21.1019 4.57681 21.4902 5.48618 21.859 6.40251C21.9926 6.73395 22.211 6.90106 22.513 7.07374C23.3869 7.57508 24.208 7.55837 25.093 7.08628C25.7165 6.75344 26.3997 6.53202 27.0649 6.28553C27.1957 6.23679 27.4267 6.24236 27.5144 6.32591C28.2826 7.05842 29.0243 7.81182 29.7618 8.54712Z" fill="url(#paint2_linear_231_5)"/>
<path id="Vector_4" d="M15.3532 24.3624C15.1055 24.854 14.8745 25.3136 14.6462 25.7676C12.0648 24.7997 10.0178 21.5327 10.0011 18.4035C9.98301 15.2228 11.9939 11.9585 14.6476 10.9238C14.7673 11.1606 14.8898 11.4029 15.0108 11.6466C15.1249 11.875 15.2363 12.1048 15.3476 12.3317C10.484 14.9067 10.4353 21.7207 15.3532 24.3624Z" fill="url(#paint3_linear_231_5)"/>
<path id="Vector_5" d="M26.1745 18.7109C26.4639 19.0062 26.8258 19.3766 27.1987 19.7582C26.027 20.921 24.8511 22.088 23.6557 23.2745C24.9054 24.5195 26.0799 25.6893 27.2766 26.8813C26.8244 27.3005 26.4361 27.6598 26.0785 27.9926C24.5491 26.4608 22.9933 24.9024 21.4932 23.3998C23.0156 21.8735 24.5881 20.2985 26.1745 18.7109Z" fill="url(#paint4_linear_231_5)"/>
<path id="Vector_6" d="M36.2427 26.8284C37.3059 25.77 38.4706 24.6086 39.6591 23.4248C38.4247 22.191 37.2433 21.0101 36.0507 19.818C36.4946 19.3752 36.8606 19.0089 37.1904 18.6816C38.7629 20.2581 40.3256 21.8261 41.8564 23.3608C40.3632 24.8495 38.806 26.4008 37.2989 27.9035C36.9969 27.5957 36.6212 27.2127 36.2427 26.8284Z" fill="url(#paint5_linear_231_5)"/>
<path id="Vector_7" d="M30.7364 27.9374C30.2327 27.6561 29.7832 27.4055 29.2822 27.1256C30.6738 24.6203 32.0515 22.1414 33.4487 19.625C33.9552 19.9077 34.4172 20.1667 34.9029 20.4369C33.5099 22.9477 32.1378 25.4154 30.7364 27.9374Z" fill="url(#paint6_linear_231_5)"/>
</g>
</g>
<defs>
<linearGradient id="paint0_linear_231_5" x1="0" y1="0" x2="50.0014" y2="49.9997" gradientUnits="userSpaceOnUse">
<stop stop-color="#5E1914"/>
<stop offset="1" stop-color="#021624"/>
</linearGradient>
<linearGradient id="paint1_linear_231_5" x1="16.667" y1="10.8359" x2="38.2949" y2="39.6435" gradientUnits="userSpaceOnUse">
<stop stop-color="#5E1914"/>
<stop offset="1" stop-color="#021624"/>
</linearGradient>
<linearGradient id="paint2_linear_231_5" x1="3.32129" y1="3.33008" x2="30.4306" y2="29.7622" gradientUnits="userSpaceOnUse">
<stop stop-color="#5E1914"/>
<stop offset="1" stop-color="#021624"/>
</linearGradient>
<linearGradient id="paint3_linear_231_5" x1="10.001" y1="10.9238" x2="19.4738" y2="14.3394" gradientUnits="userSpaceOnUse">
<stop stop-color="#5E1914"/>
<stop offset="1" stop-color="#021624"/>
</linearGradient>
<linearGradient id="paint4_linear_231_5" x1="21.4932" y1="18.7109" x2="29.8251" y2="23.9026" gradientUnits="userSpaceOnUse">
<stop stop-color="#5E1914"/>
<stop offset="1" stop-color="#021624"/>
</linearGradient>
<linearGradient id="paint5_linear_231_5" x1="36.0507" y1="18.6816" x2="44.3662" y2="23.9168" gradientUnits="userSpaceOnUse">
<stop stop-color="#5E1914"/>
<stop offset="1" stop-color="#021624"/>
</linearGradient>
<linearGradient id="paint6_linear_231_5" x1="29.2822" y1="19.625" x2="36.9965" y2="24.8412" gradientUnits="userSpaceOnUse">
<stop stop-color="#5E1914"/>
<stop offset="1" stop-color="#021624"/>
</linearGradient>
<clipPath id="clip0_231_5">
<rect width="50" height="50" fill="white"/>
</clipPath>
</defs>
</svg>
