<svg width="50" height="50" viewBox="0 0 50 50" fill="none" xmlns="http://www.w3.org/2000/svg">
<g id="Frame" clip-path="url(#clip0_231_147)">
<g id="Group">
<path id="Vector" d="M33.6084 17.291C33.6122 17.5002 33.786 17.6106 33.8976 17.745C34.51 18.483 35.0058 19.2895 35.4167 20.1569C35.6437 20.6362 35.8453 21.1257 35.9962 21.6278C36.1294 22.0742 36.2308 22.5345 36.3158 22.9973C36.421 23.5806 36.454 24.1665 36.5098 24.7523C36.5478 25.1518 36.4933 25.5525 36.4476 25.9519C36.44 26.0141 36.4286 26.0775 36.4248 26.1396C36.3906 26.8015 36.2333 27.4381 36.0647 28.0772C35.8073 29.0549 35.4104 29.9679 34.8993 30.8365C34.5798 31.3793 34.2298 31.9005 33.8075 32.3722C33.7251 32.4635 33.597 32.5535 33.611 32.712C33.5907 32.712 33.5615 32.7031 33.5514 32.7133C33.2559 33.0113 32.963 33.3105 32.6688 33.6098C32.3264 33.7937 32.0589 34.0777 31.7469 34.3034C31.2536 34.661 30.7375 34.9781 30.2011 35.2558C29.7408 35.4942 29.2602 35.7085 28.7695 35.8708C28.4093 35.99 28.0327 36.0775 27.6663 36.1802C27.0031 36.3653 26.3246 36.411 25.65 36.4871C25.1276 36.5467 24.5975 36.5657 24.0751 36.4401C24.0142 36.4249 23.9495 36.4211 23.8861 36.4199C23.37 36.4122 22.8755 36.2842 22.3733 36.1815C21.894 36.0825 21.435 35.9316 20.9797 35.7668C20.3038 35.5208 19.6584 35.2038 19.0421 34.8284C18.488 34.4911 17.9719 34.1044 17.4748 33.6884C17.4228 33.6453 17.3771 33.6123 17.3099 33.6111C17.3125 33.5553 17.2922 33.5172 17.2478 33.4792C16.9878 33.2522 16.738 33.0164 16.5187 32.7488C16.4895 32.7133 16.4464 32.7108 16.4045 32.7108C16.3411 32.4609 16.1344 32.3075 15.9861 32.1224C15.4471 31.4516 15.0071 30.7237 14.6292 29.954C14.3186 29.3212 14.0713 28.6593 13.895 27.9808C13.7454 27.4051 13.6084 26.8206 13.5856 26.2157C13.5717 25.848 13.4867 25.4866 13.493 25.115C13.5057 24.3871 13.5869 23.6681 13.7048 22.9491C13.7986 22.3785 13.9445 21.8244 14.1296 21.2842C14.4492 20.3521 14.8727 19.4658 15.4345 18.6491C15.6868 18.2826 15.9417 17.9212 16.2384 17.589C16.4197 17.3861 16.4109 17.3481 16.2219 17.1642C15.6919 16.6443 15.1567 16.1295 14.633 15.6032C14.5252 15.4954 14.4783 15.4751 14.3426 15.5867C13.7111 16.1092 13.0099 16.5327 12.2605 16.8573C11.8484 17.0361 11.4109 17.1642 10.9747 17.2885C10.1758 17.5167 9.3642 17.57 8.54503 17.5459C8.11769 17.5332 7.69035 17.5421 7.26174 17.433C6.99545 17.3658 6.71394 17.3113 6.43877 17.258C6.14965 17.201 5.86433 17.1021 5.59423 16.9841C5.10602 16.7711 4.62289 16.5479 4.16892 16.2639C3.18109 15.6438 2.3429 14.8715 1.65814 13.9205C1.21939 13.3118 0.860526 12.6651 0.589159 11.974C0.390072 11.4642 0.24678 10.9329 0.140262 10.3889C0.0413526 9.88675 0.013455 9.3846 0.0058466 8.88244C-0.00429796 8.11399 0.0768586 7.35822 0.270873 6.60499C0.652562 5.12262 1.37536 3.83806 2.4063 2.72469C3.01624 2.06657 3.7289 1.52003 4.5151 1.09269C4.92723 0.86824 5.3533 0.656473 5.81614 0.516985C6.28913 0.374961 6.75705 0.241814 7.24145 0.1391C8.15193 -0.0511106 9.06494 -0.0118004 9.97161 0.068088C10.4281 0.107398 10.8872 0.225329 11.3348 0.381301C11.7773 0.536006 12.2098 0.702123 12.6358 0.898674C13.3193 1.21442 13.9267 1.63669 14.4986 2.11729C15.2975 2.78937 15.9455 3.59332 16.4553 4.49999C16.752 5.02751 16.9853 5.58673 17.1666 6.17004C17.3036 6.61133 17.3797 7.06276 17.4875 7.50912C17.5141 7.62071 17.5179 7.73864 17.523 7.85404C17.5433 8.36887 17.561 8.88371 17.5395 9.39982C17.5179 9.90578 17.4126 10.3927 17.3023 10.8847C17.0791 11.8726 16.6569 12.7678 16.1217 13.6149C15.9645 13.8634 15.7933 14.1069 15.5993 14.3263C15.4776 14.4632 15.4902 14.5228 15.612 14.6471C16.156 15.205 16.7101 15.7516 17.2617 16.3032C17.3657 16.4072 17.4088 16.378 17.4862 16.3146C17.7905 16.0686 18.0923 15.8226 18.4144 15.5981C18.9724 15.2101 19.5582 14.8817 20.1707 14.5875C20.6424 14.3605 21.1319 14.1868 21.6188 14.0118C21.8141 13.942 22.0398 13.9027 22.244 13.8393C22.5547 13.743 22.8882 13.7645 23.1887 13.6339C23.2166 13.6212 23.2508 13.6161 23.2813 13.6149C24.0193 13.5959 24.7522 13.398 25.4877 13.5033C25.9962 13.5756 26.5123 13.5718 27.0208 13.6897C27.3099 13.7569 27.6168 13.8051 27.9047 13.8774C28.2369 13.9611 28.5717 14.0688 28.8976 14.1957C29.3173 14.3592 29.7294 14.5279 30.1339 14.727C30.9391 15.1239 31.6797 15.6146 32.367 16.1878C32.4735 16.2766 32.561 16.4097 32.7271 16.4021C32.7284 16.4313 32.7183 16.4744 32.7335 16.4871C33.0112 16.7356 33.2711 17.0019 33.5235 17.2745C33.5362 17.2948 33.578 17.2872 33.6084 17.291ZM25.0261 14.8804C24.5252 14.8145 24.051 14.9476 23.5691 14.9755C23.2407 14.9945 22.9237 15.0744 22.6168 15.1492C22.1438 15.2646 21.6759 15.4219 21.2169 15.6045C20.6475 15.8315 20.0984 16.1003 19.5899 16.4262C18.6566 17.0247 17.8362 17.7627 17.1362 18.6288C16.563 19.3389 16.0939 20.1049 15.7248 20.9431C15.4002 21.6798 15.158 22.4406 15.0223 23.2243C14.9247 23.7911 14.8258 24.3668 14.8651 24.9527C14.8879 25.29 14.8499 25.6336 14.9057 25.9633C15.0033 26.5391 15.0642 27.1211 15.2316 27.6879C15.3292 28.0164 15.4218 28.3511 15.5486 28.6631C15.7768 29.2286 16.0431 29.7777 16.3678 30.3014C16.8522 31.0825 17.4241 31.7863 18.0949 32.4089C18.7898 33.0531 19.5493 33.6035 20.4053 34.0245C20.7312 34.1855 21.0647 34.3288 21.3944 34.481C21.6632 34.604 21.9549 34.6864 22.244 34.7523C22.4951 34.8094 22.75 34.869 23.001 34.9235C23.4715 35.025 23.9457 35.0973 24.4213 35.1239C25.0287 35.1581 25.6373 35.1492 26.2486 35.0503C26.6188 34.9907 27.0005 34.9489 27.3607 34.8589C27.8413 34.7384 28.318 34.5888 28.7834 34.4011C29.3528 34.1703 29.9044 33.904 30.4142 33.5781C31.194 33.0798 31.9029 32.4838 32.523 31.7838C33.1202 31.1104 33.63 30.3864 34.0307 29.5799C34.283 29.0701 34.5062 28.5527 34.6711 28.0062C34.8283 27.485 34.9653 26.9639 35.0274 26.4237C35.0439 26.2766 35.054 26.1295 35.0794 25.9836C35.191 25.375 35.1783 24.7599 35.1073 24.1538C35.0363 23.554 34.9577 22.9517 34.7865 22.3633C34.6597 21.9271 34.5291 21.4883 34.349 21.0775C34.0041 20.2925 33.5881 19.5456 33.0581 18.8609C32.4 18.01 31.6417 17.2657 30.7603 16.6621C29.9209 16.0876 29.0129 15.6349 28.0277 15.3395C27.5914 15.2088 27.1514 15.0757 26.7101 15.0174C26.1484 14.9451 25.5892 14.7904 25.0261 14.8804ZM1.32718 8.7493C1.40453 10.7655 2.01827 12.5459 3.59829 14.1044C5.00838 15.4942 6.74183 16.2005 8.68832 16.2157C10.8618 16.2322 12.7512 15.4295 14.245 13.8051C15.5663 12.3684 16.2156 10.6577 16.1991 8.71633C16.1813 6.66712 15.4243 4.90831 13.9673 3.46525C12.5293 2.04247 10.7515 1.42239 8.76441 1.32221C4.54427 1.47565 1.45525 4.6268 1.32718 8.7493Z" fill="url(#paint0_linear_231_147)"/>
<path id="Vector_2" d="M16.4047 32.709C16.4465 32.709 16.4896 32.7128 16.5188 32.747C16.7382 33.0146 16.988 33.2504 17.248 33.4774C17.2923 33.5167 17.3126 33.5548 17.3101 33.6093C17.1706 33.8617 16.9373 34.0316 16.7395 34.2294C13.322 37.6545 9.89949 41.0744 6.47697 44.4957C6.41737 44.5553 6.34636 44.6035 6.29563 44.6694C6.21448 44.7759 6.24998 44.8812 6.31085 44.9915C6.63294 45.5697 6.8092 46.1848 6.75214 46.853C6.69254 47.5441 6.4719 48.1744 6.03314 48.7209C5.64638 49.2028 5.16452 49.5591 4.59896 49.8C4.18683 49.975 3.74808 50.0055 3.30552 49.9928C3.25227 49.9915 3.20027 49.9852 3.14702 49.9839C1.81427 49.9281 0.901264 49.2307 0.309075 48.0831C0.0300997 47.5441 -0.0117466 46.9532 0.0161509 46.3433C0.0440485 45.727 0.25328 45.183 0.594391 44.7075C0.972276 44.1812 1.46175 43.7589 2.08311 43.5053C2.63091 43.2822 3.1952 43.2073 3.77091 43.272C4.19317 43.3189 4.59515 43.4698 4.97684 43.6651C5.25455 43.8071 5.25455 43.8071 5.479 43.5827C7.1351 41.9228 8.78993 40.2629 10.4473 38.6042C12.3481 36.7009 14.2502 34.7988 16.1549 32.8992C16.231 32.8282 16.2868 32.7255 16.4047 32.709Z" fill="url(#paint1_linear_231_147)"/>
<path id="Vector_3" d="M32.668 33.6104C32.9622 33.3111 33.2551 33.0118 33.5505 32.7138C33.5607 32.7037 33.5899 32.7126 33.6101 32.7126C33.7331 32.7379 33.7978 32.8432 33.8764 32.9218C35.7836 34.8265 37.6883 36.7349 39.5942 38.6408C39.792 38.8386 39.7945 38.8399 40.0621 38.708C40.7126 38.3872 41.3999 38.2261 42.1214 38.3276C42.5602 38.3897 42.9926 38.5203 43.3756 38.7562C43.9538 39.1125 44.4242 39.5754 44.7146 40.2018C44.896 40.5924 45.0507 40.988 45.0418 41.4293C45.0393 41.546 45.0418 41.6614 45.0443 41.778C45.0646 42.6517 44.7172 43.3758 44.1377 44.006C43.6723 44.5145 43.089 44.8315 42.4321 45.0002C42.1823 45.0648 41.9071 45.0268 41.6434 45.0382C40.5883 45.0864 39.7666 44.621 39.0945 43.8551C38.7623 43.4772 38.5632 43.0296 38.4174 42.5414C38.2766 42.0671 38.2995 41.5992 38.3413 41.1326C38.3743 40.7623 38.5417 40.411 38.7065 40.0725C38.8397 39.7998 38.8371 39.7973 38.6431 39.6033C37.6667 38.6281 36.6903 37.6542 35.7151 36.6778C34.7463 35.709 33.7801 34.7402 32.8125 33.7714C32.7618 33.722 32.7162 33.6649 32.668 33.6104Z" fill="url(#paint2_linear_231_147)"/>
<path id="Vector_4" d="M33.6087 17.2907C33.5795 17.2869 33.5376 17.2946 33.5212 17.2781C33.2688 17.0042 33.0089 16.7391 32.7311 16.4906C32.7159 16.4766 32.7261 16.4348 32.7248 16.4056C32.7375 16.275 32.8478 16.2154 32.9264 16.1368C34.6637 14.397 36.4035 12.661 38.1433 10.9225C38.3804 10.6866 38.3715 10.6892 38.2181 10.3607C37.9721 9.83449 37.7857 9.28669 37.8275 8.6983C37.8846 7.89942 38.1255 7.16521 38.6898 6.56414C39.0347 6.1964 39.4075 5.86544 39.8818 5.6803C40.1012 5.59534 40.3142 5.48121 40.564 5.47994C40.7834 5.47867 40.9799 5.33538 41.212 5.37089C41.7877 5.45838 42.3545 5.54588 42.8782 5.84388C43.5706 6.23825 44.0512 6.80381 44.3581 7.52027C44.4456 7.72569 44.5521 7.94253 44.5343 8.18474C44.528 8.26843 44.5407 8.35339 44.58 8.43201C44.6447 8.56008 44.6485 8.6983 44.6383 8.83526C44.5508 9.92833 44.1184 10.8528 43.2308 11.5147C42.825 11.8165 42.3685 12.0574 41.8359 12.0929C41.671 12.1043 41.5214 12.1994 41.3451 12.1956C40.7415 12.1817 40.1684 12.046 39.6269 11.7835C39.3403 11.6453 39.3238 11.6402 39.0918 11.8723C37.6119 13.3521 36.1321 14.8332 34.651 16.3143C34.3619 16.6035 34.0702 16.8875 33.7849 17.1792C33.7342 17.2311 33.6885 17.2831 33.6087 17.2907Z" fill="url(#paint3_linear_231_147)"/>
<path id="Vector_5" d="M3.3574 22.9766C2.46087 22.9766 1.56562 22.9779 0.669092 22.9754C0.38124 22.9741 0.120017 22.8245 0.0553459 22.6064C-0.0308829 22.3147 -0.0448317 22.0218 0.208782 21.7935C0.358415 21.6591 0.543553 21.5957 0.74898 21.5957C1.11799 21.5982 1.487 21.5957 1.85601 21.5957C3.22679 21.5957 4.5963 21.597 5.96709 21.5957C6.26635 21.5957 6.4908 21.7111 6.65945 21.966C6.95618 22.4136 6.52504 22.988 6.10784 22.9792C5.1923 22.9614 4.27548 22.9754 3.3574 22.9766C3.3574 22.9754 3.3574 22.9754 3.3574 22.9766Z" fill="url(#paint4_linear_231_147)"/>
<path id="Vector_6" d="M3.39136 35.1434C4.27774 35.1434 5.16285 35.1409 6.04923 35.1447C6.49686 35.1459 6.77711 35.4566 6.75301 35.8954C6.73526 36.2035 6.44234 36.4761 6.09615 36.5193C6.04416 36.5256 5.9909 36.5231 5.93764 36.5231C4.22828 36.5231 2.52019 36.5231 0.810836 36.5231C0.666276 36.5231 0.534397 36.504 0.392373 36.4343C0.00307525 36.239 -0.127536 35.7394 0.138759 35.3945C0.27571 35.217 0.4469 35.1434 0.668812 35.1447C1.57675 35.1472 2.48469 35.1447 3.39136 35.1434Z" fill="url(#paint5_linear_231_147)"/>
<path id="Vector_7" d="M46.6307 16.242C47.5171 16.242 48.4022 16.2394 49.2885 16.2445C49.4293 16.2458 49.5802 16.2204 49.7108 16.3155C50.0811 16.5844 50.0963 17.1144 49.7565 17.4238C49.6791 17.4936 49.6094 17.5265 49.5143 17.5316C49.3989 17.538 49.2822 17.5443 49.1668 17.5443C47.479 17.5456 45.7925 17.5456 44.1047 17.5443C44.0197 17.5443 43.9348 17.5329 43.8523 17.5405C43.5226 17.5709 43.34 17.3008 43.2741 17.0853C43.1891 16.805 43.3388 16.4081 43.5683 16.294C43.7116 16.223 43.879 16.2433 44.0362 16.242C44.901 16.2407 45.7658 16.242 46.6307 16.242Z" fill="url(#paint6_linear_231_147)"/>
<path id="Vector_8" d="M46.6045 33.7636C45.6978 33.7636 44.7911 33.7585 43.8845 33.7674C43.5979 33.77 43.4165 33.6381 43.3075 33.3959C43.1173 32.9711 43.4254 32.4207 43.8452 32.4677C43.939 32.4778 44.0341 32.4651 44.1292 32.4651C45.7954 32.4651 47.4617 32.4651 49.1279 32.4651C49.2332 32.4651 49.3384 32.4651 49.4437 32.4727C49.7582 32.493 49.9674 32.7035 49.9877 33.0193C50.0042 33.2741 49.9813 33.5062 49.7328 33.6698C49.6694 33.7116 49.6149 33.7459 49.5464 33.7509C49.4094 33.7624 49.2725 33.7674 49.1355 33.7674C48.2923 33.7687 47.4477 33.7687 46.6045 33.7687C46.6045 33.7662 46.6045 33.7649 46.6045 33.7636Z" fill="url(#paint7_linear_231_147)"/>
<path id="Vector_9" d="M24.996 28.4141C23.0889 28.3228 21.6559 26.9381 21.6141 25.0132C21.5938 24.1014 21.9577 23.2962 22.6095 22.6254C23.2677 21.9495 24.0919 21.6971 24.9897 21.5957C26.836 21.72 28.3577 22.9728 28.3691 25.0081C28.3818 26.9799 26.836 28.3444 24.996 28.4141Z" fill="url(#paint8_linear_231_147)"/>
<path id="Vector_10" d="M8.77181 12.1916C6.87097 12.0914 5.3924 10.7231 5.39747 8.78553C5.40255 6.87708 6.79869 5.51771 8.75406 5.37695C10.6245 5.48601 12.1309 6.76042 12.1449 8.77919C12.1588 10.7612 10.6181 12.1091 8.77181 12.1916Z" fill="url(#paint9_linear_231_147)"/>
</g>
</g>
<defs>
<linearGradient id="paint0_linear_231_147" x1="0.00500488" y1="0.00195312" x2="36.5365" y2="36.5195" gradientUnits="userSpaceOnUse">
<stop stop-color="#5E1914"/>
<stop offset="1" stop-color="#021624"/>
</linearGradient>
<linearGradient id="paint1_linear_231_147" x1="0.00878906" y1="32.709" x2="17.2951" y2="50.0105" gradientUnits="userSpaceOnUse">
<stop stop-color="#5E1914"/>
<stop offset="1" stop-color="#021624"/>
</linearGradient>
<linearGradient id="paint2_linear_231_147" x1="32.668" y1="32.709" x2="45.0005" y2="45.0861" gradientUnits="userSpaceOnUse">
<stop stop-color="#5E1914"/>
<stop offset="1" stop-color="#021624"/>
</linearGradient>
<linearGradient id="paint3_linear_231_147" x1="32.7227" y1="5.36523" x2="44.6482" y2="17.2852" gradientUnits="userSpaceOnUse">
<stop stop-color="#5E1914"/>
<stop offset="1" stop-color="#021624"/>
</linearGradient>
<linearGradient id="paint4_linear_231_147" x1="-0.000976562" y1="21.5957" x2="0.542698" y2="24.2515" gradientUnits="userSpaceOnUse">
<stop stop-color="#5E1914"/>
<stop offset="1" stop-color="#021624"/>
</linearGradient>
<linearGradient id="paint5_linear_231_147" x1="-0.000976562" y1="35.1426" x2="0.540996" y2="37.7938" gradientUnits="userSpaceOnUse">
<stop stop-color="#5E1914"/>
<stop offset="1" stop-color="#021624"/>
</linearGradient>
<linearGradient id="paint6_linear_231_147" x1="43.25" y1="16.2402" x2="43.7364" y2="18.7562" gradientUnits="userSpaceOnUse">
<stop stop-color="#5E1914"/>
<stop offset="1" stop-color="#021624"/>
</linearGradient>
<linearGradient id="paint7_linear_231_147" x1="43.25" y1="32.4648" x2="43.7361" y2="34.9785" gradientUnits="userSpaceOnUse">
<stop stop-color="#5E1914"/>
<stop offset="1" stop-color="#021624"/>
</linearGradient>
<linearGradient id="paint8_linear_231_147" x1="21.6133" y1="21.5957" x2="28.4314" y2="28.3513" gradientUnits="userSpaceOnUse">
<stop stop-color="#5E1914"/>
<stop offset="1" stop-color="#021624"/>
</linearGradient>
<linearGradient id="paint9_linear_231_147" x1="5.39746" y1="5.37695" x2="12.2117" y2="12.1241" gradientUnits="userSpaceOnUse">
<stop stop-color="#5E1914"/>
<stop offset="1" stop-color="#021624"/>
</linearGradient>
<clipPath id="clip0_231_147">
<rect width="50" height="49.9962" fill="white"/>
</clipPath>
</defs>
</svg>
