<svg width="50" height="50" viewBox="0 0 50 50" fill="none" xmlns="http://www.w3.org/2000/svg">
<g id="Frame" clip-path="url(#clip0_231_105)">
<g id="Group">
<path id="Vector" d="M19.5662 7.20029C13.0282 7.21481 7.56803 12.4543 6.82356 19.4233C6.11792 26.0392 10.3541 32.4422 16.4787 34.0847C16.988 34.2201 17.9928 33.9516 17.9106 34.8055C17.8032 35.9037 18.719 37.2729 17.2323 38.1268C16.4947 38.5501 16.4079 39.537 16.0905 40.3038C15.5379 41.6439 15.1268 41.8568 13.7841 41.4432C12.4299 41.0247 11.1442 40.4272 9.89961 39.7257C8.98387 39.208 8.61849 38.5041 9.10491 37.4494C9.20539 37.2317 9.28303 37.0044 9.36981 36.7818C10.1188 34.8418 9.96812 34.8926 8.73039 33.3251C7.27572 31.4867 5.85302 30.6183 3.71555 32.0672C3.07842 32.5002 2.37734 32.1906 1.96857 31.4456C1.12363 29.9047 0.486501 28.2695 0.0640301 26.5448C-0.136929 25.7223 0.134823 25.1297 0.883852 24.7958C1.05969 24.7184 1.23553 24.6434 1.41137 24.566C3.57625 23.6202 3.57625 23.6202 3.55341 21.1384C3.55113 20.9763 3.55113 20.8166 3.55113 20.6546C3.55798 18.0905 3.55798 18.0905 1.30404 17.0697C0.0754483 16.5133 -0.178034 16.0561 0.194197 14.6265C0.589264 13.1098 1.16702 11.6609 1.92975 10.3038C2.38419 9.49831 2.99392 9.18868 3.84572 9.62409C4.11975 9.76439 4.4052 9.87567 4.68609 9.99903C6.39424 10.7392 6.42621 10.536 7.85576 9.27818C9.66668 7.68408 10.3472 6.08999 8.99301 3.83793C8.59794 3.18239 8.97474 2.56797 9.53423 2.19303C11.0232 1.194 12.6582 0.533624 14.355 0.0619258C15.0241 -0.124335 15.5562 0.158684 15.8553 0.833576C16.0791 1.34398 16.2641 1.87373 16.4765 2.39139C16.9811 3.62022 17.8512 4.26367 19.0684 4C19.8311 3.83551 20.5619 3.82825 21.3132 3.83793C21.9777 3.84519 22.3522 3.40735 22.6194 2.84132C22.8227 2.40832 23.0533 1.97533 23.1583 1.5133C23.4506 0.21674 24.0809 -0.0856311 25.6543 0.28689C26.9857 0.601355 28.2257 1.26173 29.436 1.95356C30.3609 2.48331 30.6738 3.209 30.1828 4.24915C30.048 4.53701 29.9453 4.8418 29.8311 5.13933C29.1894 6.83019 29.2328 6.99952 30.5345 8.25012C30.8998 8.60087 31.2515 8.97339 31.5849 9.35801C32.7153 10.6594 32.9551 10.7199 34.5422 10.0256C36.6888 9.08708 36.8898 9.17417 37.9243 11.4141C38.4427 12.5389 38.8674 13.7 39.1848 14.9047C39.452 15.9134 39.1963 16.6391 38.1937 16.9898C37.7256 17.1543 37.2849 17.3962 36.8258 17.5922C36.0266 17.9357 35.5973 18.5186 35.7366 19.4669C35.8348 20.1224 35.732 20.5602 34.9578 20.5506C34.122 20.5409 33.1926 21.3657 32.5509 20.9207C31.9229 20.4852 32.4733 19.3604 32.3591 18.5356C31.4776 12.1253 25.917 7.18578 19.5662 7.20029Z" fill="url(#paint0_linear_231_105)"/>
<path id="Vector_2" d="M18.9429 29.8535C18.9429 27.1346 18.9429 24.4447 18.9429 21.7548C18.9429 21.0703 18.9269 20.3857 18.9429 19.7011C18.9749 18.3973 19.1119 17.2314 17.5933 16.4525C16.3236 15.8018 16.1021 13.9101 16.6844 12.4612C17.2051 11.1694 18.589 10.2865 19.8952 10.4123C21.3978 10.5574 22.5282 11.6605 22.8571 13.3078C23.1242 14.6431 22.4688 16.2251 21.2197 16.8395C20.5026 17.1927 20.2994 17.6692 20.304 18.4191C20.3154 20.9179 20.3199 23.4142 20.2925 25.913C20.2834 26.7984 20.5643 26.8492 21.2288 26.4718C22.1651 25.9396 23.1425 25.4873 24.0993 24.9962C25.3668 24.3455 26.1546 21.9411 25.5494 20.6034C25.3782 20.2236 24.9945 20.2115 24.7136 20.0277C23.3937 19.152 22.7657 17.5797 23.1768 16.0896C23.5878 14.5995 24.9854 13.5134 26.4378 13.5594C27.8422 13.6029 29.1073 14.7132 29.4773 16.2202C29.8472 17.7297 29.2192 19.3238 27.792 20.0519C27.0909 20.4099 26.9767 20.8767 27.0087 21.5686C27.0315 22.0475 26.9836 22.5313 26.9447 23.0103C26.826 24.5173 26.1957 25.6179 24.821 26.2348C23.5284 26.8153 22.2884 27.5289 21.0096 28.1506C20.4912 28.4021 20.2971 28.7456 20.3017 29.3601C20.3222 33.6707 20.3199 37.9812 20.2925 42.2918C20.288 42.9111 20.5209 43.2014 21.0142 43.4868C22.4825 44.3359 23.0968 45.8598 22.6995 47.4515C22.3273 48.9343 20.9297 50.0301 19.459 49.9938C18.0477 49.9575 16.7484 48.84 16.4035 47.3644C16.0313 45.7679 16.6821 44.2052 18.1733 43.4626C18.8196 43.1409 18.9543 42.7321 18.9498 42.0669C18.9292 38.9658 18.9087 35.8622 18.9612 32.7611C18.9749 31.8855 18.6735 31.4646 17.9404 31.1501C16.9196 30.7147 15.9559 30.1341 14.9466 29.6624C13.2293 28.8593 12.2976 27.5386 12.4574 25.5042C12.5442 24.3891 12.3775 23.6029 11.2494 23.0248C9.95 22.3572 9.54123 20.6348 10.0071 19.1254C10.4387 17.7248 11.713 16.808 13.1653 16.8516C14.6771 16.8975 15.8326 17.8651 16.2345 19.4229C16.5931 20.809 15.9925 22.3813 14.7707 23.1748C14.3026 23.4796 13.6906 23.5908 13.7911 24.4302C13.9304 25.5889 13.4988 26.8903 14.62 27.7805C15.2023 28.2449 17.9358 29.585 18.9429 29.8535ZM21.56 13.8303C21.5371 12.7708 20.626 11.854 19.6212 11.8758C18.6186 11.8975 17.7509 12.8506 17.7669 13.9125C17.7828 14.9624 18.7009 15.8985 19.6988 15.8792C20.6899 15.8598 21.5828 14.8777 21.56 13.8303ZM26.3099 19.0335C27.3033 19.0262 28.2236 18.0683 28.2213 17.0427C28.2213 16.0025 27.2987 15.0229 26.3305 15.0325C25.3257 15.0422 24.4213 15.9832 24.4145 17.0233C24.4076 18.0538 25.3371 19.0408 26.3099 19.0335ZM14.9763 20.3639C15.0471 19.3044 14.2249 18.361 13.1859 18.3054C12.1354 18.2498 11.238 19.0746 11.1809 20.1438C11.1261 21.1912 11.971 22.1757 12.9758 22.2289C13.9875 22.2846 14.9055 21.4283 14.9763 20.3639Z" fill="url(#paint1_linear_231_105)"/>
<path id="Vector_3" d="M23.4004 32.4154C24.6861 30.6786 25.9375 28.9877 27.1935 27.2969C27.4036 27.0139 27.6091 26.9994 27.8352 27.3041C29.0935 28.9974 30.3563 30.6859 31.6351 32.3985C31.1761 32.742 30.7902 32.6065 30.4294 32.6162C28.993 32.6525 28.8925 32.742 29.2031 34.1909C29.8402 37.1687 31.4981 39.2659 34.243 40.2166C36.9651 41.16 39.5251 40.7004 41.6626 38.5935C42.3568 37.9089 42.6514 38.129 43.1264 38.7749C44.5924 40.7657 44.5924 40.8649 42.5577 42.2388C35.6246 46.9292 26.6683 42.309 25.8873 33.6128C25.8165 32.8218 25.5813 32.5654 24.8642 32.6089C24.4303 32.6331 23.9667 32.7275 23.4004 32.4154Z" fill="url(#paint2_linear_231_105)"/>
<path id="Vector_4" d="M50.0002 32.6654C48.6392 34.511 47.4265 36.1584 46.2117 37.8057C46.0176 38.0693 45.8075 38.3572 45.5015 37.946C44.2386 36.2527 42.978 34.5546 41.7084 32.8444C42.124 32.4839 42.4779 32.6073 42.7954 32.6025C44.4122 32.5735 44.4373 32.5468 44.0491 30.7907C42.7154 24.765 35.8577 22.4864 31.5462 26.6615C30.9844 27.2058 30.7401 27.2009 30.2719 26.5575C28.678 24.3707 28.6529 24.3925 30.8908 22.8928C37.4791 18.4757 46.3555 22.7815 47.3535 30.9673C47.5225 32.3533 47.8947 32.8153 49.1256 32.6025C49.3311 32.5638 49.5549 32.6291 50.0002 32.6654Z" fill="url(#paint3_linear_231_105)"/>
<path id="Vector_5" d="M27.8304 40.5239C27.4514 40.6956 27.1453 40.848 26.8302 40.9762C24.1218 42.0769 23.9802 42.0115 22.7836 39.2031C22.6443 38.8766 22.5164 38.4291 22.2629 38.2936C20.6484 37.43 21.6121 35.8988 21.3723 34.6869C21.3655 34.6506 21.3701 34.5756 21.3838 34.5708C22.5758 34.1717 23.7633 33.7605 24.969 33.4073C25.1426 33.3565 25.1746 33.7097 25.1906 33.8983C25.4166 36.3681 26.3758 38.5234 27.8304 40.5239Z" fill="url(#paint4_linear_231_105)"/>
</g>
</g>
<defs>
<linearGradient id="paint0_linear_231_105" x1="0" y1="0.00585938" x2="41.5572" y2="39.2238" gradientUnits="userSpaceOnUse">
<stop stop-color="#5E1914"/>
<stop offset="1" stop-color="#021624"/>
</linearGradient>
<linearGradient id="paint1_linear_231_105" x1="9.82129" y1="10.4004" x2="41.4612" y2="26.1908" gradientUnits="userSpaceOnUse">
<stop stop-color="#5E1914"/>
<stop offset="1" stop-color="#021624"/>
</linearGradient>
<linearGradient id="paint2_linear_231_105" x1="23.4004" y1="27.0801" x2="40.0953" y2="47.4408" gradientUnits="userSpaceOnUse">
<stop stop-color="#5E1914"/>
<stop offset="1" stop-color="#021624"/>
</linearGradient>
<linearGradient id="paint3_linear_231_105" x1="29.1357" y1="21.127" x2="45.8148" y2="41.5673" gradientUnits="userSpaceOnUse">
<stop stop-color="#5E1914"/>
<stop offset="1" stop-color="#021624"/>
</linearGradient>
<linearGradient id="paint4_linear_231_105" x1="21.3018" y1="33.4023" x2="29.3212" y2="39.7585" gradientUnits="userSpaceOnUse">
<stop stop-color="#5E1914"/>
<stop offset="1" stop-color="#021624"/>
</linearGradient>
<clipPath id="clip0_231_105">
<rect width="50" height="50" fill="white"/>
</clipPath>
</defs>
</svg>
