<svg width="261" height="157" viewBox="0 0 261 157" fill="none" xmlns="http://www.w3.org/2000/svg">
<mask id="mask0_0_445" style="mask-type:luminance" maskUnits="userSpaceOnUse" x="0" y="55" width="159" height="26">
<path d="M158.714 55.6611H0V80.0201H158.714V55.6611Z" fill="white"/>
</mask>
<g mask="url(#mask0_0_445)">
<path d="M11.8992 58.8495H1.47813C0.790948 58.8495 0.429079 58.3373 0.388872 57.3128C0.388872 56.3108 0.754396 55.8098 1.47813 55.8098H14.3994C15.0464 55.8098 15.5472 55.9145 15.9017 56.1239C16.2563 56.337 16.45 56.6249 16.4902 56.9838C16.5085 57.324 16.5048 57.6493 16.4793 57.9597C16.4464 58.2737 16.3732 58.5093 16.2563 58.6701L4.6582 76.7066H15.3132C16.0406 76.7066 16.4025 77.1964 16.4025 78.1834C16.439 79.2266 16.0772 79.75 15.3132 79.75H2.12877C0.831156 79.75 0.13666 79.35 0.0379683 78.5461C-0.00223942 78.2059 -0.00223942 77.888 0.0379683 77.5964C0.0781759 77.3085 0.154936 77.0804 0.271904 76.9197C0.626462 76.3588 0.995642 75.7756 1.37944 75.1736C1.75959 74.5716 2.18725 73.9099 2.65878 73.1882C3.1303 72.4666 3.65666 71.6515 4.23784 70.7505C4.81537 69.8457 5.47697 68.8175 6.22264 67.6621C6.96831 66.5105 7.80901 65.2131 8.7411 63.7662C9.66953 62.3155 10.7222 60.6778 11.8992 58.8495ZM32.1493 79.7463H21.3773C20.6499 79.7463 20.1601 79.5556 19.9042 79.1742C19.652 78.7929 19.5204 78.3704 19.5204 77.9105V57.6194C19.5204 57.1595 19.6483 56.7408 19.9042 56.3669C20.1601 55.9967 20.6499 55.8135 21.3773 55.8135H31.6193C32.3467 55.8135 32.7268 56.3145 32.767 57.3166C32.8072 58.341 32.4234 58.8533 31.6193 58.8533H22.9965V76.7066H32.1493C32.8767 76.7066 33.2495 77.1964 33.2678 78.1834C33.308 79.2266 32.9352 79.7463 32.1493 79.7463ZM30.53 67.2808C30.53 67.9837 30.2888 68.5744 29.8063 69.0567C29.3274 69.5391 28.7462 69.7784 28.0591 69.7784C27.3902 69.7784 26.8236 69.5353 26.3521 69.0567C25.8805 68.5782 25.6466 67.9837 25.6466 67.2808C25.6466 66.5778 25.8842 65.9871 26.3521 65.5048C26.8236 65.0225 27.3902 64.7832 28.0591 64.7832C28.7462 64.7832 29.3274 65.0225 29.8063 65.5048C30.2888 65.9871 30.53 66.5778 30.53 67.2808ZM50.3341 79.3537L44.7781 69.8083H42.5082C42.1793 69.8083 41.9197 69.6699 41.7297 69.397C41.5396 69.1278 41.4482 68.7614 41.4482 68.3015C41.4482 67.277 41.8613 66.7648 42.6837 66.7648H46.1342C46.858 66.7648 47.3661 66.5517 47.6585 66.1329C47.9509 65.7104 48.1008 65.2505 48.1008 64.7458V60.8611C48.1008 60.36 47.9509 59.8964 47.6585 59.4777C47.3661 59.0552 46.8543 58.8458 46.1342 58.8458H39.924V78.4751C39.924 79.4397 39.3428 79.922 38.1877 79.922C37.0254 79.922 36.4442 79.4397 36.4442 78.4751V57.6119C36.4442 56.8903 36.6269 56.408 36.9925 56.165C37.3543 55.9257 37.793 55.806 38.3047 55.806H46.8689C47.3734 55.806 47.9034 55.9145 48.459 56.1351C49.0036 56.3557 49.5336 56.6361 50.0417 56.9801H50.0125C50.5205 57.3614 50.9153 57.8587 51.1894 58.4719C51.4636 59.0813 51.6025 59.788 51.6025 60.5919V64.9851C51.6025 66.6115 51.0725 67.8266 50.0125 68.6305C49.7968 68.7913 49.5665 68.9408 49.3216 69.0829C49.073 69.225 48.8245 69.3633 48.5686 69.5054L53.2802 77.4543C53.3387 77.5553 53.4009 77.6862 53.463 77.8469C53.5215 78.0077 53.5507 78.1386 53.5507 78.2395C53.5507 78.7218 53.2144 79.1817 52.5455 79.6229V79.593C52.0996 79.8734 51.7158 80.0117 51.4051 80.0117C50.9482 80.0117 50.5827 79.7799 50.3085 79.3201L50.3341 79.3537ZM60.9928 55.8098H67.4114C67.9231 55.8098 68.4531 55.9182 69.0014 56.1388C69.5497 56.3594 70.0797 56.6398 70.5915 56.9838H70.5622C71.074 57.3652 71.4651 57.8624 71.7392 58.4756C72.0134 59.0851 72.1486 59.7917 72.1486 60.5956V74.8969C72.1486 76.5233 71.6186 77.7385 70.5586 78.5386C70.0505 78.92 69.5241 79.2154 68.9868 79.4247C68.4458 79.6379 67.9195 79.7463 67.4078 79.7463H60.9891C60.4811 79.7463 59.9547 79.6379 59.4174 79.4247C58.8764 79.2154 58.3501 78.92 57.8383 78.5386C57.3302 78.1386 56.9355 77.6413 56.6613 77.0505C56.3872 76.456 56.2483 75.7382 56.2483 74.8932V60.5919C56.2483 59.788 56.3872 59.0813 56.6613 58.4719C56.9355 57.8587 57.3266 57.3614 57.8383 56.9801H57.8091C58.3172 56.6398 58.8472 56.3594 59.3991 56.1351C59.9511 55.9182 60.4811 55.8098 60.9928 55.8098ZM61.7275 76.7066H66.673C67.3968 76.7066 67.9085 76.4934 68.2046 76.0747C68.497 75.6522 68.6469 75.1811 68.6469 74.6576V60.8685C68.6469 60.3675 68.5007 59.9039 68.2046 59.4851C67.9122 59.0626 67.4004 58.8533 66.673 58.8533H61.7275C61.0038 58.8533 60.492 59.0626 60.196 59.4851C59.9035 59.9039 59.7537 60.3675 59.7537 60.8685V74.6576C59.7537 75.1773 59.8999 75.6522 60.196 76.0747C60.492 76.4934 61.0001 76.7066 61.7275 76.7066ZM98.7259 79.7463H87.2776C86.5503 79.7463 86.0605 79.5556 85.8046 79.1742C85.5487 78.7929 85.4208 78.3704 85.4208 77.9105V57.1072C85.4208 56.1425 85.9874 55.664 87.1278 55.664C88.3048 55.664 88.8933 56.1463 88.8933 57.1072V76.7103H98.7259C99.4313 76.7103 99.7859 77.2001 99.7859 78.1872C99.8261 79.2266 99.4715 79.7463 98.7259 79.7463ZM116.713 78.9948L110.236 58.7635L103.792 78.9948V78.9649C103.675 79.264 103.511 79.5107 103.302 79.6977C103.101 79.8921 102.849 79.9856 102.557 79.9856C102.399 79.9856 102.246 79.9706 102.096 79.9444C101.953 79.9108 101.8 79.8771 101.643 79.836H101.672C100.553 79.4733 100.14 78.834 100.437 77.9067L107.148 57.0399C107.246 56.7183 107.414 56.4491 107.659 56.2285C107.908 56.008 108.197 55.8771 108.529 55.836C108.862 55.7761 109.187 55.7275 109.502 55.6976C109.816 55.6715 110.061 55.6565 110.236 55.6565C110.412 55.6565 110.66 55.6715 110.975 55.6976C111.289 55.7313 111.611 55.7649 111.947 55.806C112.221 55.8434 112.492 55.9967 112.755 56.2585C113.022 56.5202 113.223 56.7782 113.361 57.0399C114.458 60.4909 115.573 63.9681 116.699 67.4677C117.828 70.9748 118.943 74.452 120.043 77.903C120.317 78.8265 119.904 79.4696 118.808 79.8323C118.651 79.8734 118.508 79.9071 118.38 79.9407C118.256 79.9669 118.113 79.9818 117.956 79.9818C117.682 79.9818 117.43 79.8846 117.203 79.6939C116.98 79.507 116.819 79.2602 116.721 78.9611V78.9948H116.713ZM112.444 72.4891C112.444 73.1284 112.221 73.678 111.779 74.1267C111.34 74.5829 110.806 74.8072 110.178 74.8072C109.549 74.8072 109.019 74.5829 108.588 74.1267C108.156 73.678 107.941 73.1322 107.941 72.4891C107.941 71.846 108.156 71.3001 108.588 70.8439C109.019 70.3953 109.549 70.1672 110.178 70.1672C110.806 70.1672 111.34 70.3915 111.779 70.8439C112.221 71.3001 112.444 71.8497 112.444 72.4891ZM134.898 74.6576V70.8327C134.898 70.3728 134.73 69.9242 134.397 69.4905C134.065 69.0605 133.476 68.8175 132.632 68.7576C132.084 69.4419 131.415 69.7821 130.629 69.7821C129.96 69.7821 129.393 69.5391 128.922 69.0605C128.45 68.5819 128.216 67.9874 128.216 67.2845C128.216 66.5816 128.454 65.9908 128.922 65.5085C129.393 65.0262 129.96 64.7869 130.629 64.7869C130.98 64.7869 131.331 64.8879 131.678 65.086C132.018 65.2879 132.329 65.5272 132.603 65.8076C133.034 65.7852 133.367 65.7179 133.604 65.5983C133.838 65.4786 134.014 65.3328 134.123 65.1571C134.229 64.9888 134.291 64.7944 134.313 64.5738C134.332 64.3532 134.343 64.1326 134.343 63.912V60.8723C134.343 60.3713 134.193 59.9076 133.889 59.4889C133.582 59.0664 133.067 58.857 132.339 58.857H126.188L126.158 78.7293C126.158 79.1294 125.979 79.436 125.618 79.6453C125.252 79.8585 124.854 79.9631 124.422 79.9631C123.264 79.9631 122.686 79.4808 122.686 78.5199V57.6232C122.686 56.9015 122.869 56.4192 123.234 56.1762C123.596 55.9369 124.031 55.8173 124.539 55.8173H133.078C133.586 55.8173 134.134 55.9145 134.715 56.1164C135.293 56.3183 135.838 56.5875 136.346 56.9277H136.316C136.828 57.3091 137.205 57.8101 137.453 58.4345C137.698 59.0552 137.819 59.7805 137.819 60.6031V64.0055C137.819 64.8093 137.651 65.4637 137.318 65.9759C136.985 66.4919 136.631 66.8994 136.258 67.1985C136.514 67.3593 136.759 67.5238 136.996 67.692C137.234 67.864 137.428 68.051 137.585 68.2529C137.841 68.5333 138.042 68.8661 138.192 69.2474C138.334 69.6288 138.407 70.0812 138.407 70.6047V74.9081C138.407 76.5533 137.778 77.7684 136.525 78.5498C135.896 78.9499 135.304 79.2528 134.748 79.4547C134.185 79.6566 133.63 79.7538 133.081 79.7538H128.724C128.388 79.7538 128.132 79.6117 127.946 79.3313C127.759 79.0509 127.664 78.6807 127.664 78.2171C127.664 77.215 128.074 76.714 128.9 76.714H132.932C133.659 76.714 134.167 76.5009 134.463 76.0822C134.748 75.6522 134.898 75.1811 134.898 74.6576ZM148.291 65.9572H153.971C154.483 65.9572 155.009 66.0694 155.561 66.2899C156.11 66.5105 156.64 66.8022 157.151 67.1649H157.122C157.634 67.5238 158.025 68.0173 158.299 68.6417C158.573 69.2624 158.712 69.9765 158.712 70.7804V74.9044C158.712 76.5308 158.182 77.746 157.122 78.5461C156.614 78.9275 156.088 79.2228 155.55 79.4322C155.009 79.6453 154.483 79.7538 153.971 79.7538H147.556C147.045 79.7538 146.522 79.6453 145.985 79.4322C145.444 79.2228 144.917 78.9275 144.405 78.5461C143.345 77.746 142.815 76.5308 142.815 74.9044V72.9153C142.815 71.9731 143.397 71.4983 144.552 71.4983C145.729 71.4983 146.317 71.9694 146.317 72.9153V74.6614C146.317 75.1811 146.463 75.6559 146.759 76.0784C147.052 76.4972 147.564 76.7103 148.291 76.7103H153.237C153.964 76.7103 154.472 76.4972 154.768 76.0784C155.064 75.6559 155.21 75.1848 155.21 74.6614V71.0159C155.21 70.5149 155.064 70.0476 154.768 69.6138C154.476 69.1839 153.964 68.9708 153.237 68.9708H147.556C146.536 68.9708 145.487 68.5894 144.405 67.8266C143.345 66.9854 142.815 65.7702 142.815 64.1849V60.6031C142.815 59.7992 142.954 59.0926 143.228 58.4831C143.503 57.8699 143.894 57.3727 144.405 56.9913H144.376C144.888 56.651 145.414 56.3706 145.966 56.1463C146.515 55.9257 147.045 55.8173 147.556 55.8173H153.971C154.483 55.8173 155.009 55.9257 155.561 56.1463C156.11 56.3669 156.64 56.6473 157.151 56.9913H157.122C157.634 57.3727 158.025 57.8699 158.299 58.4831C158.573 59.0926 158.712 59.7992 158.712 60.6031V62.3791C158.712 63.3213 158.124 63.7961 156.947 63.7961C155.788 63.7961 155.21 63.325 155.21 62.3791V60.8723C155.21 60.3713 155.064 59.9076 154.768 59.4889C154.476 59.0664 153.964 58.857 153.237 58.857H148.291C147.564 58.857 147.055 59.0664 146.759 59.4889C146.467 59.9076 146.317 60.3713 146.317 60.8723V63.9419C146.317 64.4616 146.463 64.929 146.759 65.3365C147.052 65.7515 147.564 65.9572 148.291 65.9572Z" fill="url(#paint0_linear_0_445)"/>
</g>
<path d="M9.2039 86.8016V88.5776H5.63273V100.722H3.5529V88.5776H0V86.8016H9.2039ZM25.0384 93.6962V100.718H23.0609V94.1112C23.0609 93.3933 22.8818 92.84 22.5273 92.4474C22.169 92.0548 21.7012 91.8604 21.1236 91.8604C20.4511 91.8604 19.8589 92.1221 19.3399 92.6456C18.8208 93.169 18.5613 93.9691 18.5613 95.0422V100.722H16.5838V86.1212H18.5613V92.0473C19.1388 90.7537 20.1952 90.1068 21.7304 90.1068C22.7246 90.1068 23.5251 90.4209 24.1319 91.0565C24.7387 91.6884 25.0384 92.567 25.0384 93.6962ZM40.8802 98.3437V100.161C40.1272 100.602 39.1294 100.823 37.8939 100.823C36.3039 100.823 35.0392 100.336 34.0998 99.3569C33.1567 98.3773 32.6852 97.0986 32.6852 95.517C32.6852 93.8383 33.1165 92.5184 33.9791 91.5613C34.8418 90.6079 35.9383 90.1293 37.2688 90.1293C38.5738 90.1293 39.6119 90.5443 40.3795 91.3781C41.1471 92.2118 41.5309 93.4158 41.5309 94.9824C41.5309 95.4086 41.4907 95.8573 41.4102 96.3246H34.6809C34.8162 97.2332 35.1927 97.9286 35.8104 98.411C36.4318 98.8933 37.2104 99.1326 38.1534 99.1326C39.2427 99.1288 40.1528 98.8671 40.8802 98.3437ZM37.3054 91.7968C36.6328 91.7968 36.0517 92.0473 35.5692 92.5483C35.083 93.0531 34.7796 93.7784 34.6627 94.7281H39.6082V94.3542C39.5826 93.5691 39.3743 92.9484 38.9832 92.4848C38.592 92.0249 38.0328 91.7968 37.3054 91.7968ZM62.1903 86.8016V100.718H60.1324V86.8016H62.1903ZM79.2201 93.6364V100.722H77.2426V94.1112C77.2426 93.3821 77.0635 92.825 76.7053 92.4362C76.3507 92.0511 75.8755 91.8567 75.2834 91.8567C74.5852 91.8567 73.9858 92.1371 73.4886 92.6904C72.9915 93.2475 72.743 94.0327 72.743 95.0347V100.714H70.7655V90.2452H72.743V92.0436C73.3497 90.7499 74.4134 90.1031 75.934 90.1031C76.9428 90.1031 77.7433 90.4172 78.3355 91.0528C78.9276 91.6884 79.2201 92.5483 79.2201 93.6364ZM92.4118 90.2489V91.8193H90.2516V100.718H88.2741V91.8193H86.6402V90.2489H88.2741V89.4413C88.2741 88.3533 88.5629 87.4971 89.1331 86.8727C89.7033 86.2445 90.5074 85.9305 91.5419 85.9305C91.9184 85.9305 92.3022 85.9828 92.6933 86.095V87.871C92.3826 87.7326 92.0609 87.6653 91.7246 87.6653C90.7414 87.6653 90.2516 88.2635 90.2516 89.4637V90.2489H92.4118ZM101.788 90.2489V100.718H99.7881V90.2489H101.788ZM102.029 87.0484C102.029 87.3924 101.908 87.6878 101.663 87.9383C101.422 88.185 101.126 88.3122 100.775 88.3122C100.424 88.3122 100.132 88.1888 99.8978 87.9495C99.6638 87.7102 99.5432 87.4111 99.5432 87.0521C99.5432 86.6932 99.6602 86.3904 99.8978 86.1436C100.132 85.8968 100.424 85.7734 100.775 85.7734C101.126 85.7734 101.422 85.8968 101.663 86.1436C101.908 86.3866 102.029 86.6895 102.029 87.0484ZM118.656 93.6364V100.722H116.679V94.1112C116.679 93.3821 116.5 92.825 116.142 92.4362C115.787 92.0511 115.312 91.8567 114.72 91.8567C114.022 91.8567 113.422 92.1371 112.925 92.6904C112.428 93.2475 112.179 94.0327 112.179 95.0347V100.714H110.202V90.2452H112.179V92.0436C112.786 90.7499 113.846 90.1031 115.367 90.1031C116.376 90.1031 117.176 90.4172 117.768 91.0528C118.36 91.6884 118.656 92.5483 118.656 93.6364ZM128.939 90.2489V100.718H126.939V90.2489H128.939ZM129.18 87.0484C129.18 87.3924 129.059 87.6878 128.814 87.9383C128.573 88.185 128.277 88.3122 127.926 88.3122C127.575 88.3122 127.283 88.1888 127.049 87.9495C126.815 87.7102 126.694 87.4111 126.694 87.0521C126.694 86.6932 126.811 86.3904 127.049 86.1436C127.283 85.8968 127.575 85.7734 127.926 85.7734C128.277 85.7734 128.573 85.8968 128.814 86.1436C129.059 86.3866 129.18 86.6895 129.18 87.0484ZM142.715 98.6316V100.449C142.269 100.695 141.725 100.819 141.081 100.819C138.969 100.819 137.912 99.7233 137.912 97.536V91.8155H136.319V90.2452H137.912V87.684H139.912V90.2452H142.595V91.8155H139.912V97.5772C139.912 98.5829 140.383 99.084 141.323 99.084C141.875 99.0877 142.339 98.9344 142.715 98.6316ZM158.067 98.3437V100.161C157.314 100.602 156.32 100.823 155.081 100.823C153.495 100.823 152.23 100.336 151.287 99.3569C150.344 98.3773 149.872 97.0986 149.872 95.517C149.872 93.8383 150.304 92.5184 151.166 91.5613C152.029 90.6079 153.125 90.1293 154.456 90.1293C155.761 90.1293 156.799 90.5443 157.563 91.3781C158.33 92.2118 158.714 93.4158 158.714 94.9824C158.714 95.4086 158.674 95.8573 158.594 96.3246H151.872C152.007 97.2332 152.383 97.9286 153.001 98.411C153.619 98.8933 154.401 99.1326 155.344 99.1326C156.433 99.1288 157.34 98.8671 158.067 98.3437ZM154.496 91.7968C153.824 91.7968 153.242 92.0473 152.76 92.5483C152.277 93.0531 151.974 93.7784 151.85 94.7281H156.795V94.3542C156.77 93.5691 156.561 92.9484 156.167 92.4848C155.779 92.0249 155.224 91.7968 154.496 91.7968Z" fill="url(#paint1_linear_0_445)"/>
<mask id="mask1_0_445" style="mask-type:luminance" maskUnits="userSpaceOnUse" x="164" y="47" width="62" height="63">
<path d="M225.354 47.0352H164.337V109.449H225.354V47.0352Z" fill="white"/>
</mask>
<g mask="url(#mask1_0_445)">
<path d="M224.543 47.8654C223.458 46.7587 221.707 46.7587 220.621 47.8654L208.438 60.3272C204.685 57.3398 199.977 55.5452 194.848 55.5452C182.596 55.5452 172.661 65.7075 172.661 78.2403C172.661 83.486 174.415 88.3018 177.336 92.1416L165.153 104.603C164.067 105.71 164.067 107.505 165.153 108.615C165.694 109.169 166.403 109.449 167.112 109.449C167.821 109.449 168.534 109.169 169.071 108.615L181.254 96.1535C185.012 99.1409 189.716 100.936 194.845 100.936C207.097 100.936 217.032 90.7732 217.032 78.2403C217.032 72.9947 215.277 68.1827 212.357 64.3391L224.54 51.8773C225.625 50.7668 225.625 48.9759 224.543 47.8654ZM178.206 78.2403C178.206 68.8519 185.67 61.2171 194.845 61.2171C198.434 61.2171 201.749 62.3986 204.473 64.3802L181.298 88.0849C179.361 85.3031 178.206 81.912 178.206 78.2403ZM211.487 78.2403C211.487 87.625 204.023 95.2599 194.845 95.2599C191.255 95.2599 187.94 94.0784 185.217 92.0967L208.391 68.3921C210.336 71.1775 211.487 74.5687 211.487 78.2403Z" fill="url(#paint2_linear_0_445)"/>
</g>
<mask id="mask2_0_445" style="mask-type:luminance" maskUnits="userSpaceOnUse" x="104" y="0" width="157" height="157">
<path d="M261 0H104V157H261V0Z" fill="white"/>
</mask>
<g mask="url(#mask2_0_445)">
<path d="M104 41.1519V0H261V156H104V114.841H105.765V153.803H259.238V2.19347H105.765V41.1556H104V41.1519Z" fill="url(#paint3_linear_0_445)"/>
</g>
<defs>
<linearGradient id="paint0_linear_0_445" x1="0.0078125" y1="55.6565" x2="7.31108" y2="103.246" gradientUnits="userSpaceOnUse">
<stop stop-color="#021624"/>
<stop offset="1" stop-color="#092030"/>
</linearGradient>
<linearGradient id="paint1_linear_0_445" x1="0" y1="85.7734" x2="2.82845" y2="115.603" gradientUnits="userSpaceOnUse">
<stop stop-color="#021624"/>
<stop offset="1" stop-color="#092030"/>
</linearGradient>
<linearGradient id="paint2_linear_0_445" x1="164.339" y1="47.0354" x2="226.736" y2="108.035" gradientUnits="userSpaceOnUse">
<stop stop-color="#021624"/>
<stop offset="1" stop-color="#092030"/>
</linearGradient>
<linearGradient id="paint3_linear_0_445" x1="104" y1="0" x2="259.997" y2="156.997" gradientUnits="userSpaceOnUse">
<stop stop-color="#021624"/>
<stop offset="1" stop-color="#092030"/>
</linearGradient>
</defs>
</svg>
