<svg width="60" height="60" viewBox="0 0 60 60" fill="none" xmlns="http://www.w3.org/2000/svg">
<g id="Frame" clip-path="url(#clip0_0_698)">
<path id="Vector" d="M33.724 14.9002C34.8507 15.3804 35.9341 15.8416 37.1501 16.3585C37.7551 15.7228 38.4207 15.0088 39.1025 14.3087C40.0173 13.3698 40.7474 13.3648 41.6535 14.2822C42.6055 15.2477 43.5562 16.2144 44.5008 17.1862C45.2507 17.957 45.242 18.7835 44.4871 19.5581C43.8612 20.2001 43.2191 20.8269 42.6191 21.4954C42.4989 21.6293 42.4592 21.9503 42.5249 22.1285C42.8534 23.0105 43.2575 23.8648 43.5761 24.7506C43.7013 25.1007 43.8686 25.1942 44.2008 25.1891C45.0276 25.174 45.8544 25.1714 46.6799 25.1879C47.917 25.2131 48.4302 25.7641 48.4302 27.0328C48.4302 28.3812 48.4339 29.7296 48.4265 31.0766C48.4203 32.2595 47.8724 32.8256 46.7246 32.837C45.8779 32.8458 45.0301 32.8496 44.1834 32.8332C43.855 32.8269 43.6789 32.9153 43.5537 33.2628C43.2352 34.1487 42.8373 35.0055 42.5187 35.8913C42.4493 36.0859 42.4952 36.4271 42.6266 36.5737C43.2377 37.2586 43.907 37.8879 44.5367 38.5577C45.2061 39.2691 45.2086 40.0855 44.528 40.797C43.5339 41.8382 42.5224 42.8618 41.5047 43.8791C40.7647 44.6184 39.9714 44.6247 39.214 43.8778C38.474 43.1487 37.7675 42.3829 37.1204 41.7093C36.0135 42.1516 35.0107 42.5333 34.0277 42.9642C33.8628 43.0362 33.6992 43.3218 33.6918 43.5151C33.6558 44.377 33.6818 45.2413 33.6744 46.1057C33.6645 47.2936 33.1302 47.8597 31.9799 47.8711C30.5953 47.885 29.2107 47.885 27.8274 47.8723C26.7589 47.8635 26.1936 47.2734 26.1837 46.1777C26.175 45.2932 26.1639 44.4073 26.1899 43.524C26.2011 43.1563 26.056 43.0299 25.7362 42.9098C24.9045 42.6002 24.0777 42.2666 23.2819 41.8736C22.915 41.6929 22.7142 41.7283 22.4452 42.0202C21.8365 42.6786 21.1994 43.3117 20.5585 43.9385C19.9003 44.583 19.112 44.6146 18.4612 43.9739C17.3766 42.9061 16.3143 41.8142 15.2681 40.7072C14.652 40.0564 14.6669 39.2388 15.2891 38.559C15.8953 37.898 16.5238 37.2561 17.1708 36.6369C17.4571 36.3639 17.5043 36.1478 17.332 35.775C16.9452 34.941 16.5944 34.0868 16.2845 33.2199C16.168 32.8951 16.0242 32.8028 15.7106 32.8092C14.8218 32.8256 13.9331 32.8243 13.0455 32.8142C12.0452 32.8016 11.4452 32.2329 11.4254 31.2182C11.3981 29.7447 11.3994 28.2687 11.4242 26.7953C11.4403 25.8109 11.9969 25.2435 12.9774 25.2005C13.8636 25.1613 14.7537 25.1714 15.6424 25.1866C15.9982 25.1929 16.1754 25.0994 16.3081 24.7178C16.6093 23.8483 17.0171 23.0168 17.3344 22.1525C17.4063 21.9579 17.3642 21.6129 17.234 21.4676C16.6229 20.7826 15.956 20.1508 15.3214 19.4873C14.6545 18.7885 14.6508 17.9469 15.3214 17.2531C16.3378 16.2043 17.3605 15.163 18.3967 14.1344C19.1268 13.4103 19.9065 13.4204 20.6317 14.1432C21.2812 14.7915 21.9047 15.4676 22.5728 16.0956C22.703 16.2182 23.0141 16.2611 23.1864 16.1942C24.0727 15.8542 24.9479 15.484 25.8094 15.0821C25.9792 15.0025 26.1676 14.746 26.1763 14.5615C26.2172 13.6782 26.1837 12.7923 26.2048 11.909C26.2333 10.6996 26.7341 10.1714 27.9166 10.1474C29.2801 10.1196 30.6449 10.112 32.0072 10.1436C33.1674 10.1702 33.6843 10.7489 33.6918 11.9355C33.698 12.8833 33.6967 13.8311 33.7004 14.7788C33.7029 14.8243 33.7178 14.8648 33.724 14.9002ZM20.1458 29.1002C20.1904 34.2359 24.1843 38.9229 29.8218 38.9747C35.39 39.0253 39.6082 34.5278 39.6913 29.1836C39.778 23.6664 35.4544 19.1462 30.0177 19.0514C24.5859 18.9553 20.2474 23.3719 20.1458 29.1002Z" fill="#5E1914"/>
<path id="Vector_2" d="M45.0805 42.3848C46.3188 43.7053 47.6253 45.108 48.943 46.4993C49.5317 47.1198 50.154 47.7074 50.7378 48.3317C50.9721 48.5832 51.1494 48.6325 51.4741 48.4644C54.1206 47.0983 57.3385 48.0322 59.0392 50.6354C60.6432 53.0907 60.192 56.5014 58.0067 58.4349C55.8697 60.3266 52.7298 60.5263 50.63 58.905C48.1335 56.9779 47.3923 54.0107 48.7112 51.2255C48.7459 51.151 48.7731 51.0726 48.793 51.0234C46.7539 48.9016 44.7321 46.7976 42.7451 44.7302C43.4554 44.0187 44.1942 43.2769 45.0805 42.3848Z" fill="#5E1914"/>
<path id="Vector_3" d="M16.8619 13.6867C16.0946 14.4399 15.3546 15.1665 14.5699 15.9386C13.4618 14.9504 12.3003 13.918 11.1413 12.883C10.6294 12.4255 10.1013 11.9832 9.62034 11.4942C9.32657 11.196 9.10592 11.2326 8.76504 11.4121C6.6082 12.5506 4.47366 12.4369 2.5263 10.9849C0.414078 9.41164 -0.438744 7.22924 0.215748 4.61088C0.844208 2.09993 2.48539 0.535478 4.99924 0.091923C9.52118 -0.706729 13.1816 3.84129 11.5491 8.20355C11.378 8.65974 11.4958 8.86193 11.8119 9.13994C13.3576 10.5009 14.8848 11.8847 16.4169 13.2621C16.5681 13.3961 16.7107 13.5414 16.8619 13.6867Z" fill="#5E1914"/>
<path id="Vector_4" d="M45.1793 15.8754C44.4195 15.0818 43.7055 14.3349 42.958 13.5552C43.5146 13.0561 44.1071 12.5076 44.7182 11.9832C44.976 11.762 45.0194 11.575 44.8942 11.2351C44.0079 8.81133 44.6079 6.1917 46.3829 4.59187C48.36 2.81007 50.8268 2.4575 53.1596 3.62515C55.3103 4.70055 56.7048 7.36314 56.3664 9.7414C55.9834 12.428 54.0261 14.5586 51.5569 15.0059C50.1636 15.2587 48.8435 15.0792 47.62 14.3488C47.2667 14.1378 47.0473 14.1896 46.766 14.4625C46.259 14.9516 45.7148 15.4027 45.1793 15.8754Z" fill="#5E1914"/>
<path id="Vector_5" d="M14.669 42.1191C15.4326 42.9064 16.1664 43.6646 16.92 44.4418C16.3573 44.9485 15.7846 45.4945 15.1797 45.9999C14.8921 46.24 14.8586 46.4397 14.99 46.7986C16.4936 50.922 13.5323 55.1617 9.23349 55.0631C6.83244 55.0075 4.60742 53.3268 3.80542 50.9624C2.98979 48.5589 3.69758 45.9178 5.61767 44.3483C7.67783 42.6638 9.90409 42.4287 12.2556 43.671C12.5816 43.8428 12.7997 43.8365 13.0699 43.5724C13.5881 43.0656 14.1409 42.5956 14.669 42.1191Z" fill="#5E1914"/>
<path id="Vector_6" d="M27.6857 31.2619C29.1583 29.7429 30.5615 28.2922 31.9684 26.844C32.7531 26.0365 33.5377 25.2303 34.331 24.4329C35.0029 23.7581 35.8259 23.7202 36.4172 24.3179C36.9787 24.8866 36.9279 25.6966 36.2561 26.3853C33.7794 28.9203 31.2978 31.4514 28.81 33.975C28.0563 34.7396 27.3101 34.732 26.5404 33.9599C25.3491 32.7631 24.1678 31.5563 22.9952 30.3407C22.3134 29.6343 22.2762 28.8065 22.8688 28.2227C23.4551 27.6452 24.2707 27.7008 24.9537 28.3996C25.8549 29.3234 26.7387 30.2674 27.6857 31.2619Z" fill="#5E1914"/>
</g>
<defs>
<clipPath id="clip0_0_698">
<rect width="60" height="60" fill="white"/>
</clipPath>
</defs>
</svg>
