<svg width="80" height="80" viewBox="0 0 80 80" fill="none" xmlns="http://www.w3.org/2000/svg">
<g id="Group 8">
<circle id="Ellipse 2" cx="40" cy="40" r="39" fill="#021624" fill-opacity="0.2" stroke="#021624" stroke-width="2"/>
<g id="Group">
<path id="Vector" d="M40.0056 21.4875C37.4519 21.4875 34.8981 21.4872 32.3446 21.4878C32.1523 21.4878 31.9599 21.4888 31.7679 21.4992C30.8686 21.5472 30.0223 21.7958 29.2237 22.2266C28.5037 22.6153 27.877 23.1302 27.3483 23.7672C26.6591 24.598 26.19 25.552 25.9592 26.6247C25.8589 27.0912 25.8028 27.5664 25.8028 28.0465C25.8028 28.4469 25.8015 28.8473 25.8015 29.2477C25.8015 30.9271 25.8015 32.6065 25.8015 34.2855C25.8015 34.3856 25.8008 34.4857 25.8031 34.5858C25.8063 34.7156 25.8416 34.7573 25.9711 34.7874C26.0855 34.8141 26.2013 34.8361 26.3154 34.8651C27.0543 35.0523 27.7122 35.4063 28.3033 35.9022C28.9583 36.4514 29.442 37.1358 29.7684 37.9359C30.0294 38.5759 30.1662 39.2462 30.1675 39.9476C30.1685 40.5322 30.0874 41.0998 29.913 41.6533C29.6976 42.3387 29.3593 42.952 28.8983 43.4909C28.4011 44.0725 27.8144 44.5276 27.1284 44.8396C26.5446 45.1049 25.9355 45.2603 25.2969 45.2734C25.0834 45.2777 24.8695 45.2737 24.656 45.2644C24.3666 45.252 24.0841 45.1863 23.8052 45.1112C22.7809 44.8366 21.924 44.2753 21.2357 43.4438C20.727 42.8289 20.3673 42.1275 20.1723 41.3367C20.0816 40.969 20.0223 40.5973 20.0053 40.2189C19.972 39.4861 20.0967 38.7794 20.3451 38.0957C20.5824 37.4424 20.9408 36.8695 21.4005 36.3606C21.9301 35.7744 22.5607 35.3493 23.2743 35.053C23.5225 34.9499 23.7808 34.8778 24.0421 34.8177C24.0944 34.8057 24.1476 34.7994 24.1995 34.787C24.3268 34.757 24.3646 34.7123 24.3685 34.5848C24.3714 34.4847 24.3707 34.3846 24.3707 34.2845C24.3707 32.4383 24.3707 30.5924 24.371 28.7462C24.371 28.5127 24.3691 28.2791 24.373 28.0455C24.3884 27.0585 24.5518 26.0989 24.8926 25.1769C25.1744 24.4148 25.5623 23.7131 26.0509 23.0725C26.871 21.997 27.8898 21.1889 29.0984 20.6443C29.6684 20.3874 30.2631 20.2122 30.8789 20.1098C31.3229 20.0364 31.7676 20 32.2177 20C37.4426 20.0017 42.6675 20.0013 47.8923 20.001C49.2455 20.001 50.5147 20.3417 51.6951 21.0294C52.2943 21.3784 52.838 21.8068 53.3298 22.3077C54.0729 23.0641 54.6464 23.9397 55.0574 24.932C55.2953 25.5066 55.4572 26.1042 55.5569 26.7208C55.637 27.2153 55.6755 27.7125 55.672 28.214C55.6672 28.9368 55.6713 29.6598 55.672 30.3826C55.672 30.4827 55.672 30.5828 55.6758 30.6829C55.68 30.796 55.7287 30.8504 55.8294 30.8557C55.9147 30.86 56.0003 30.8607 56.0855 30.8607C56.2994 30.8614 56.5129 30.86 56.7267 30.8617C56.7687 30.862 56.811 30.8714 56.853 30.8771C56.8745 30.8801 56.894 30.9415 56.8783 30.9608C56.7687 31.0966 56.6623 31.2351 56.5478 31.3662C56.4042 31.5311 56.2532 31.6885 56.1073 31.8507C55.779 32.2161 55.4524 32.5828 55.1235 32.9478C55.0802 32.9959 55.0308 33.0389 54.9808 33.0793C54.9686 33.089 54.9362 33.0866 54.9231 33.0766C54.8804 33.0436 54.8397 33.0076 54.8035 32.9672C54.5708 32.7069 54.3396 32.445 54.1075 32.1841C54.0421 32.1106 53.9748 32.0392 53.9094 31.9658C53.6334 31.6562 53.3573 31.3465 53.0826 31.0356C53.0614 31.0115 53.048 30.9805 53.031 30.9528C53.0162 30.9281 53.039 30.8784 53.0675 30.8757C53.131 30.8701 53.1948 30.862 53.2583 30.8617C53.5042 30.86 53.7497 30.8617 53.9956 30.86C54.0488 30.8597 54.1034 30.858 54.1543 30.844C54.18 30.837 54.2082 30.8053 54.2178 30.778C54.2319 30.7376 54.2354 30.6915 54.2354 30.6478C54.2358 29.7249 54.2434 28.8016 54.2325 27.8787C54.2216 26.9534 54.0049 26.0762 53.6222 25.2413C53.3766 24.7058 53.065 24.215 52.6953 23.7662C52.403 23.4111 52.0747 23.0918 51.714 22.8105C51.0302 22.2773 50.2759 21.8969 49.4456 21.6827C48.9772 21.5619 48.5024 21.4925 48.0193 21.4888C47.8696 21.4878 47.7202 21.4875 47.5705 21.4875C45.0491 21.4875 42.5274 21.4875 40.0056 21.4875ZM25.672 38.726C25.6745 38.726 25.6768 38.726 25.6793 38.726C25.6793 38.4928 25.6784 38.2596 25.68 38.0263C25.6803 37.9676 25.7322 37.9179 25.7835 37.9249C25.8573 37.9349 25.9326 37.9426 26.0035 37.9643C26.2814 38.0487 26.5456 38.1668 26.7911 38.328C26.836 38.3573 26.8825 38.387 26.9322 38.4034C26.9569 38.4114 26.9953 38.397 27.0187 38.3797C27.0431 38.3617 27.062 38.3303 27.0739 38.3006C27.1813 38.0343 27.2871 37.7674 27.3925 37.5005C27.4047 37.4698 27.4127 37.4371 27.4192 37.4047C27.4304 37.3463 27.4163 37.2932 27.3717 37.2552C27.3223 37.2132 27.2714 37.1718 27.2169 37.1381C26.9768 36.9909 26.7248 36.8718 26.4564 36.7914C26.2513 36.7297 26.0445 36.6776 25.8316 36.6506C25.7223 36.6366 25.6784 36.5829 25.6749 36.4771C25.672 36.3883 25.6729 36.2992 25.6723 36.2105C25.6717 36.0884 25.6707 35.9659 25.6707 35.8438C25.6704 35.6412 25.6204 35.6022 25.4504 35.6015C25.2475 35.6009 25.0446 35.6005 24.842 35.6012C24.8102 35.6012 24.7788 35.6085 24.7471 35.6129C24.7112 35.6179 24.6701 35.6636 24.6673 35.7046C24.6631 35.7597 24.6589 35.8151 24.6586 35.8705C24.6573 36.0483 24.6589 36.2262 24.6567 36.404C24.656 36.4591 24.6522 36.5155 24.6387 36.5685C24.6317 36.5969 24.6057 36.6276 24.5804 36.6413C24.5435 36.6609 24.4999 36.6676 24.4589 36.678C24.2091 36.74 23.9642 36.8171 23.734 36.9369C23.3699 37.1264 23.0868 37.4037 22.904 37.7854C22.679 38.2559 22.6524 38.7427 22.7989 39.2419C22.8396 39.3807 22.9044 39.5082 22.9807 39.63C23.1304 39.8689 23.3359 40.041 23.5705 40.1809C23.8318 40.3367 24.1149 40.4361 24.3999 40.5302C24.4505 40.5469 24.5031 40.5586 24.5525 40.5786C24.6041 40.5999 24.6416 40.6393 24.6496 40.7C24.6541 40.7331 24.6567 40.7664 24.6567 40.7995C24.657 41.2106 24.657 41.622 24.656 42.0331C24.656 42.0658 24.6554 42.1028 24.6416 42.1305C24.6285 42.1569 24.5999 42.1779 24.574 42.1926C24.5573 42.2019 24.5317 42.2002 24.5115 42.1956C24.0267 42.0804 23.5702 41.9053 23.2051 41.5336C23.1746 41.5029 23.14 41.4765 23.1067 41.4491C23.0743 41.4224 23.0185 41.4351 22.9983 41.4792C22.8505 41.7995 22.703 42.1198 22.5591 42.4418C22.5283 42.5102 22.5601 42.5716 22.6094 42.621C22.7886 42.7992 22.9961 42.936 23.2153 43.0518C23.5603 43.2343 23.9254 43.3534 24.3082 43.4168C24.4025 43.4325 24.4954 43.4585 24.5865 43.4882C24.6112 43.4962 24.64 43.5333 24.6439 43.5603C24.6548 43.6367 24.6564 43.7148 24.6573 43.7925C24.6599 43.9814 24.6589 44.1702 24.6618 44.3591C24.6628 44.4272 24.7192 44.4886 24.7833 44.4889C25.0395 44.4899 25.2956 44.4879 25.5518 44.4862C25.562 44.4862 25.5719 44.4802 25.5822 44.4782C25.6172 44.4712 25.6585 44.4248 25.662 44.3845C25.6668 44.3294 25.6717 44.274 25.6723 44.2186C25.6739 44.0298 25.6717 43.8409 25.6739 43.652C25.6755 43.5136 25.7082 43.4699 25.8278 43.4382C25.9621 43.4025 26.0987 43.3751 26.2311 43.3327C26.551 43.2303 26.8514 43.0791 27.0915 42.8349C27.6179 42.299 27.7801 41.6513 27.5827 40.9123C27.5339 40.7297 27.4519 40.5592 27.3323 40.4131C27.1717 40.2176 26.9905 40.0484 26.7684 39.9279C26.5686 39.8195 26.3619 39.7317 26.1484 39.6607C26.0163 39.6166 25.8839 39.5732 25.7524 39.5275C25.7076 39.5118 25.6864 39.4721 25.6816 39.4261C25.6758 39.371 25.6736 39.3153 25.6733 39.2602C25.6713 39.0817 25.672 38.9039 25.672 38.726Z" fill="#5E1914"/>
<path id="Vector_2" d="M40.0143 59.9993C37.4182 59.9993 34.8221 59.999 32.226 59.9997C31.5393 60 30.862 59.9159 30.1977 59.7387C29.7736 59.6256 29.36 59.4768 28.9612 59.2839C28.3973 59.011 27.8622 58.69 27.374 58.2879C26.9713 57.9563 26.5988 57.5939 26.2622 57.1872C25.7916 56.6179 25.4053 55.9949 25.1023 55.3162C24.7949 54.6279 24.5762 53.9102 24.4695 53.1561C24.4352 52.9135 24.4176 52.6709 24.3983 52.4273C24.3538 51.8611 24.3714 51.2942 24.3679 50.7276C24.3653 50.3052 24.3682 49.8824 24.3666 49.46C24.3663 49.3829 24.3608 49.3048 24.348 49.2291C24.3435 49.202 24.3134 49.165 24.289 49.1593C24.2275 49.1443 24.1627 49.1396 24.0989 49.1393C23.8319 49.1376 23.5648 49.1396 23.2978 49.138C23.2561 49.1376 23.2134 49.129 23.1737 49.1156C23.1621 49.1116 23.1506 49.0752 23.1554 49.0589C23.1641 49.0285 23.1804 48.9975 23.2013 48.9741C23.4984 48.6398 23.7975 48.3071 24.0954 47.9731C24.3714 47.6635 24.6455 47.3522 24.9225 47.0435C24.9658 46.9955 25.0171 46.9548 25.068 46.9154C25.0815 46.905 25.1132 46.9054 25.128 46.915C25.1636 46.9384 25.1979 46.9664 25.2264 46.9988C25.437 47.2347 25.6457 47.4729 25.8563 47.7092C26.2122 48.1083 26.5693 48.5063 26.9249 48.9061C26.9604 48.9458 26.9867 48.9945 27.0172 49.0392C27.0303 49.0589 27.0053 49.1193 26.9835 49.122C26.9306 49.128 26.8777 49.137 26.8248 49.1373C26.5793 49.1393 26.3334 49.138 26.0878 49.14C26.024 49.1403 25.9602 49.1473 25.8967 49.1533C25.8612 49.1567 25.8195 49.204 25.8137 49.2431C25.8105 49.2651 25.8047 49.2868 25.8038 49.3085C25.8018 49.3639 25.8012 49.4196 25.8012 49.4753C25.8012 50.2871 25.8038 51.0986 25.8009 51.9105C25.799 52.4694 25.8666 53.0196 26.0022 53.5588C26.1378 54.0977 26.3228 54.6182 26.5969 55.101C26.7325 55.3403 26.8652 55.5805 27.0258 55.8037C27.3278 56.2232 27.6628 56.6086 28.0495 56.9469C28.4441 57.2923 28.8676 57.5886 29.3289 57.8268C29.9361 58.1408 30.5757 58.3433 31.2476 58.4444C31.5236 58.4858 31.7993 58.5038 32.077 58.5095C32.2158 58.5125 32.3546 58.5112 32.4937 58.5112C37.5256 58.5112 42.5575 58.5112 47.5894 58.5112C47.7497 58.5112 47.91 58.5108 48.07 58.5065C49.3446 58.4735 50.5039 58.0727 51.5451 57.3103C52.5864 56.5478 53.3333 55.5425 53.8081 54.3126C54.0168 53.7713 54.1377 53.2098 54.2085 52.6355C54.2371 52.405 54.2323 52.1694 54.2339 51.9361C54.2374 51.4246 54.2351 50.9131 54.2351 50.4016C54.2351 48.8116 54.2351 47.2214 54.2345 45.6314C54.2345 45.532 54.2297 45.4319 54.2198 45.3328C54.2153 45.2884 54.1832 45.2517 54.1406 45.2363C54.1005 45.222 54.0585 45.2123 54.0168 45.2046C53.3885 45.0889 52.805 44.8476 52.261 44.5066C51.9311 44.2997 51.6307 44.0485 51.3534 43.7702C51.0367 43.4522 50.7767 43.0858 50.5487 42.6948C50.1887 42.0771 49.9852 41.4028 49.8781 40.6937C49.8649 40.6063 49.8611 40.5165 49.8592 40.4278C49.8547 40.2276 49.8531 40.0277 49.8528 39.8275C49.8521 39.2539 49.9624 38.702 50.1525 38.1658C50.4471 37.3363 50.9116 36.6249 51.5483 36.041C52.2437 35.4027 53.0483 34.9896 53.9617 34.8047C54.2675 34.7427 54.5772 34.738 54.8847 34.7023C54.9577 34.694 55.0334 34.709 55.1081 34.715C55.1825 34.7206 55.2568 34.734 55.3315 34.7343C55.5576 34.7357 55.7788 34.78 55.9968 34.8301C56.7373 35.0003 57.4102 35.3259 58.0148 35.8041C58.6563 36.3113 59.1401 36.9529 59.4985 37.6993C59.7053 38.1294 59.8322 38.5876 59.9191 39.0591C60.0146 39.5773 60.0195 40.1008 59.9653 40.6206C59.9137 41.1178 59.7999 41.6053 59.5972 42.0644C59.4411 42.4185 59.2767 42.7685 59.0494 43.0801C58.8105 43.4078 58.5557 43.7181 58.2534 43.9894C57.5481 44.6224 56.7396 45.0198 55.8294 45.2043C55.8086 45.2086 55.7877 45.2136 55.7672 45.219C55.7291 45.229 55.6893 45.2727 55.6858 45.3114C55.6807 45.3665 55.6743 45.4219 55.6739 45.4769C55.6726 45.6324 55.6743 45.7882 55.6743 45.9441C55.6743 47.9344 55.6743 49.9248 55.6743 51.9151C55.6743 52.1263 55.6791 52.3379 55.6367 52.5464C55.6303 52.5788 55.6313 52.6128 55.629 52.6462C55.5778 53.4874 55.3604 54.2845 55.0552 55.0613C54.868 55.5375 54.6227 55.9793 54.3554 56.408C54.2278 56.6126 54.0813 56.8048 53.9351 56.996C53.769 57.2132 53.593 57.4217 53.4032 57.6183C52.8695 58.1705 52.2751 58.6353 51.6144 59.0113C50.8478 59.4478 50.0342 59.7371 49.1738 59.8856C48.7307 59.962 48.2848 60.0013 47.835 60.001C45.228 59.999 42.6213 59.9993 40.0143 59.9993ZM54.4781 41.3894C54.4785 41.3894 54.4788 41.3894 54.4791 41.3894C54.4791 41.5339 54.4801 41.6784 54.4788 41.8229C54.4778 41.9226 54.474 42.0224 54.4698 42.1222C54.4685 42.1565 54.4108 42.2016 54.3784 42.1976C54.3679 42.1962 54.357 42.1979 54.3464 42.1956C53.8678 42.0931 53.4314 41.8986 53.0599 41.5613C53.0278 41.5322 52.9929 41.5065 52.9586 41.4802C52.9175 41.4488 52.8419 41.4635 52.8194 41.5112C52.6739 41.8202 52.529 42.1298 52.3863 42.4405C52.3674 42.4819 52.3758 42.5283 52.4059 42.5653C52.5671 42.7638 52.7691 42.909 52.9894 43.0241C53.3532 43.2139 53.7318 43.3618 54.139 43.4175C54.223 43.4292 54.3057 43.4545 54.3881 43.4765C54.4403 43.4906 54.4733 43.5386 54.4759 43.6007C54.4785 43.6561 54.4791 43.7118 54.4791 43.7672C54.4794 43.945 54.4788 44.1229 54.4798 44.3004C54.4804 44.4459 54.5173 44.4742 54.6423 44.4949C54.876 44.5336 55.1107 44.5226 55.345 44.5156C55.4415 44.5129 55.4947 44.4499 55.4963 44.3404C55.4992 44.1516 55.497 43.9627 55.4989 43.7738C55.5018 43.5153 55.4857 43.4645 55.7916 43.4078C56.1417 43.3431 56.4693 43.2066 56.7546 42.9807C56.9681 42.8115 57.155 42.6157 57.282 42.3634C57.5234 41.8849 57.5516 41.3854 57.4044 40.8769C57.3198 40.5846 57.157 40.335 56.9188 40.1492C56.7222 39.9957 56.5161 39.8599 56.2811 39.7721C56.1003 39.7047 55.9224 39.63 55.7348 39.5836C55.6733 39.5682 55.6143 39.5395 55.5563 39.5125C55.5393 39.5045 55.5236 39.4822 55.5175 39.4628C55.5072 39.4318 55.5008 39.3981 55.5008 39.3654C55.4999 38.9319 55.5005 38.4988 55.5011 38.0654C55.5011 38.0437 55.5075 38.0217 55.5111 38C55.5162 37.9676 55.572 37.9232 55.6076 37.9269C55.6605 37.9322 55.7143 37.9349 55.7653 37.9486C56.0461 38.024 56.31 38.1428 56.561 38.2929C56.6164 38.326 56.67 38.3627 56.7261 38.3944C56.7886 38.4301 56.8633 38.4077 56.8889 38.3437C57.0047 38.057 57.1188 37.7697 57.2326 37.4825C57.2448 37.4518 57.2535 37.4194 57.2627 37.3874C57.2772 37.337 57.2541 37.2756 57.2086 37.2425C57.1913 37.2299 57.173 37.2182 57.1554 37.2058C56.7674 36.9356 56.3337 36.7871 55.882 36.686C55.8195 36.672 55.755 36.6683 55.6919 36.6576C55.5297 36.6303 55.5011 36.5952 55.4982 36.4134C55.4963 36.2912 55.4992 36.1688 55.4979 36.0467C55.497 35.9359 55.4944 35.8248 55.4899 35.714C55.4877 35.6599 55.438 35.6075 55.3854 35.6072C55.119 35.6062 54.8523 35.6075 54.5859 35.6085C54.5756 35.6085 54.5628 35.6119 54.5557 35.6189C54.5336 35.6406 54.5044 35.6613 54.4955 35.6886C54.4823 35.7297 54.4807 35.7757 54.4804 35.8198C54.4788 36.0196 54.4807 36.2198 54.4788 36.4197C54.4781 36.4748 54.4749 36.5315 54.4612 36.5839C54.4541 36.6109 54.4243 36.6389 54.3983 36.6509C54.3602 36.6683 54.3163 36.672 54.2746 36.6813C54.0014 36.7417 53.7414 36.8388 53.4952 36.9759C53.1243 37.1828 52.8448 37.4838 52.687 37.8882C52.5091 38.345 52.4844 38.8148 52.6466 39.2876C52.7425 39.5669 52.8993 39.7965 53.1224 39.9827C53.3506 40.1732 53.6071 40.305 53.879 40.4081C54.0293 40.4652 54.1839 40.5089 54.3345 40.5646C54.4467 40.606 54.4759 40.635 54.4775 40.7558C54.4801 40.9673 54.4781 41.1782 54.4781 41.3894Z" fill="#021624"/>
<path id="Vector_3" d="M31.942 24.9204C31.9766 24.9277 32.001 24.9261 32.017 24.9371C32.0792 24.9798 32.1398 25.0255 32.1998 25.0719C32.5075 25.3118 32.8153 25.5517 33.1224 25.7926C33.1795 25.8373 33.2346 25.8417 33.2997 25.8066C33.6325 25.6278 33.9764 25.4773 34.3342 25.3612C34.3445 25.3578 34.3535 25.3518 34.3634 25.3475C34.4163 25.3251 34.4519 25.2868 34.4602 25.2267C34.5067 24.8967 34.5522 24.5667 34.5993 24.237C34.6199 24.0942 34.6423 23.9517 34.6651 23.8093C34.6728 23.7612 34.7067 23.7312 34.7516 23.7268C34.7728 23.7248 34.7939 23.7208 34.8154 23.7208C35.5845 23.7205 36.3539 23.7205 37.123 23.7208C37.1441 23.7208 37.165 23.7268 37.1861 23.7288C37.2227 23.7325 37.2451 23.7599 37.2563 23.7889C37.2717 23.8296 37.2785 23.8743 37.2846 23.9184C37.3339 24.2814 37.3823 24.6448 37.4311 25.0081C37.434 25.0302 37.4368 25.0522 37.4413 25.0739C37.4926 25.3225 37.4432 25.3141 37.7244 25.4079C38.0402 25.513 38.3425 25.6541 38.6371 25.812C38.6903 25.8403 38.74 25.8346 38.7865 25.7996C38.8817 25.7282 38.9763 25.6558 39.0705 25.5827C39.345 25.3705 39.6187 25.1576 39.8935 24.9461C39.9384 24.9114 39.9954 24.9177 40.0387 24.9591C40.0701 24.9891 40.0999 25.0212 40.1301 25.0525C40.6363 25.5794 41.1425 26.1059 41.648 26.6335C41.6855 26.6725 41.7211 26.7142 41.7526 26.7586C41.7631 26.7736 41.7673 26.8053 41.7593 26.821C41.7346 26.87 41.7048 26.9164 41.673 26.9611C41.4692 27.2467 41.264 27.5314 41.0598 27.8167C41.0088 27.8881 40.9585 27.9598 40.9091 28.0322C40.8825 28.0713 40.8802 28.1146 40.8975 28.1583C40.9097 28.189 40.9251 28.2187 40.9395 28.2481C41.097 28.5648 41.2265 28.8934 41.3297 29.2331C41.3393 29.2648 41.3467 29.2992 41.365 29.3252C41.3823 29.3506 41.4092 29.3746 41.4371 29.3849C41.4765 29.3999 41.5204 29.4026 41.5624 29.4093C41.9532 29.4693 42.3443 29.5291 42.7351 29.5891C42.7669 29.5941 42.7986 29.5978 42.8304 29.6031C42.8695 29.6095 42.9124 29.6542 42.9153 29.6909C42.9179 29.7239 42.9224 29.7573 42.9224 29.7903C42.9227 30.5688 42.923 31.3469 42.922 32.1254C42.922 32.1691 42.9163 32.2138 42.906 32.2565C42.9015 32.2749 42.881 32.2942 42.8634 32.3026C42.8348 32.3159 42.8028 32.3242 42.7717 32.3289C42.4335 32.379 42.0946 32.427 41.7564 32.4774C41.6506 32.4931 41.5455 32.5121 41.4406 32.5338C41.397 32.5428 41.365 32.5738 41.3502 32.6189C41.3121 32.7343 41.2758 32.8508 41.2367 32.9659C41.1441 33.2388 41.0242 33.4994 40.8992 33.7577C40.8783 33.8007 40.8818 33.8451 40.9075 33.8838C40.9559 33.9569 41.0065 34.029 41.0575 34.1001C41.2688 34.3937 41.481 34.6866 41.692 34.9806C41.7173 35.016 41.7416 35.0534 41.7599 35.0931C41.7676 35.1097 41.766 35.1411 41.7554 35.1551C41.7166 35.2078 41.675 35.2586 41.6301 35.3056C41.1322 35.8251 40.6334 36.344 40.1349 36.8629C40.1047 36.8942 40.0743 36.9259 40.0432 36.956C39.9945 37.003 39.9473 37.0093 39.8999 36.975C39.856 36.9433 39.813 36.9102 39.7704 36.8769C39.5056 36.6703 39.2408 36.4631 38.9756 36.2566C38.9157 36.2099 38.8551 36.1641 38.7945 36.1188C38.7487 36.0844 38.7003 36.0701 38.6458 36.0991C38.3031 36.2819 37.9511 36.4411 37.5817 36.5569C37.5138 36.5782 37.4772 36.6293 37.4667 36.7017C37.4298 36.9543 37.3916 37.2069 37.3561 37.4598C37.3282 37.6577 37.3035 37.8562 37.2753 38.0541C37.2708 38.0864 37.2602 38.1191 37.2458 38.1478C37.2371 38.1655 37.2169 38.1855 37.1996 38.1889C37.1473 38.1982 37.0941 38.2039 37.0412 38.2039C36.3254 38.2049 35.6098 38.2049 34.894 38.2042C34.8407 38.2042 34.7866 38.2029 34.7346 38.1932C34.7055 38.1875 34.6763 38.1659 34.6695 38.1285C34.6484 38.0084 34.625 37.8886 34.6077 37.7678C34.5593 37.4268 34.5118 37.0858 34.4682 36.7444C34.4554 36.645 34.4144 36.5802 34.3204 36.5512C34.2489 36.5292 34.1771 36.5065 34.1079 36.4775C33.9001 36.3897 33.6914 36.3043 33.4876 36.2079C33.1471 36.047 33.2635 36.0173 32.931 36.2729C32.6733 36.4711 32.4184 36.673 32.1616 36.8725C32.1103 36.9122 32.0581 36.9513 32.0032 36.9853C31.976 37.0023 31.9411 37.0037 31.9135 36.9803C31.8805 36.9523 31.8484 36.9229 31.8183 36.8916C31.2967 36.3493 30.7754 35.8068 30.2541 35.2646C30.2464 35.2566 30.2387 35.2489 30.2314 35.2409C30.1423 35.1444 30.1378 35.1104 30.2077 35.0133C30.3612 34.7998 30.5161 34.5872 30.6699 34.3737C30.7789 34.2225 30.8873 34.071 30.9953 33.9189C31.0364 33.8611 31.0463 33.8001 31.012 33.7327C30.8318 33.378 30.6914 33.0059 30.5722 32.6249C30.5532 32.5648 30.5138 32.5351 30.4567 32.5265C30.1926 32.4854 29.9287 32.4444 29.6646 32.404C29.4745 32.3746 29.2844 32.3463 29.0943 32.3169C29.0564 32.3109 29.018 32.2655 29.0151 32.2248C29.0119 32.1808 29.008 32.1364 29.008 32.092C29.0077 31.3359 29.0077 30.5798 29.0083 29.8237C29.0083 29.7793 29.0128 29.7353 29.0164 29.6909C29.0199 29.6482 29.0535 29.6122 29.0994 29.6045C29.2363 29.5815 29.3735 29.5584 29.5107 29.5374C29.8172 29.491 30.1237 29.444 30.4305 29.4013C30.5173 29.3893 30.5609 29.3395 30.5856 29.2585C30.6953 28.8974 30.8315 28.5474 31.0021 28.2127C31.0402 28.1377 31.045 28.0672 30.9921 27.9965C30.9331 27.9174 30.8767 27.8363 30.8193 27.7563C30.6087 27.462 30.3981 27.168 30.1884 26.873C30.1548 26.8257 30.1602 26.7639 30.1977 26.7205C30.2192 26.6959 30.241 26.6712 30.2634 26.6475C30.7844 26.1049 31.3057 25.562 31.8272 25.0202C31.8657 24.9811 31.9087 24.9491 31.942 24.9204ZM35.9586 33.2081C37.0704 33.2295 38.1187 32.2809 38.1296 30.9702C38.1396 29.7386 37.1736 28.6986 35.9516 28.7032C34.8167 28.7076 33.7915 29.6465 33.7985 30.9605C33.8065 32.406 34.9642 33.2335 35.9586 33.2081Z" fill="#021624"/>
<path id="Vector_4" d="M51.0103 49.0655C51.0103 49.4326 51.0106 49.7993 51.0099 50.1663C51.0099 50.2217 51.009 50.2778 51.0003 50.3322C50.9955 50.3625 50.9811 50.3969 50.9426 50.4036C50.7955 50.4293 50.6483 50.4569 50.5008 50.48C50.1947 50.5274 49.8882 50.5741 49.5811 50.6171C49.4948 50.6291 49.4487 50.6782 49.4234 50.7579C49.3897 50.8634 49.3624 50.9715 49.3211 51.0736C49.2259 51.3088 49.1326 51.5461 49.021 51.773C48.9624 51.8921 48.9813 51.9762 49.0524 52.0729C49.2794 52.3819 49.5025 52.6942 49.7266 53.0055C49.7651 53.0589 49.8049 53.112 49.835 53.1704C49.8475 53.1944 49.844 53.2351 49.834 53.2625C49.8231 53.2918 49.7978 53.3169 49.7754 53.3402C49.2393 53.8988 48.703 54.457 48.1663 55.0146C48.1439 55.0379 48.1192 55.0606 48.092 55.0766C48.0644 55.093 48.032 55.1023 48.0016 55.08C47.9147 55.0156 47.8272 54.9522 47.7416 54.8858C47.4588 54.6666 47.1773 54.446 46.8949 54.2268C46.8401 54.1844 46.7846 54.1737 46.7173 54.2068C46.5147 54.3062 46.3098 54.401 46.105 54.4954C46.0367 54.5268 45.9659 54.5524 45.8953 54.5781C45.4914 54.725 45.5898 54.6198 45.5103 55.0803C45.452 55.4193 45.4151 55.762 45.3683 56.1034C45.3638 56.1364 45.3577 56.1691 45.3516 56.2015C45.3439 56.2422 45.3026 56.2835 45.2647 56.2862C45.2115 56.2902 45.1583 56.2945 45.1054 56.2945C44.4004 56.2949 43.6952 56.2949 42.9902 56.2945C42.9475 56.2945 42.9046 56.2939 42.8623 56.2915C42.8001 56.2882 42.7578 56.2538 42.7488 56.1961C42.7247 56.0426 42.702 55.8888 42.6802 55.735C42.6347 55.4163 42.5898 55.0973 42.5446 54.7783C42.5378 54.7313 42.5122 54.6979 42.4712 54.6776C42.4615 54.6729 42.4519 54.6676 42.442 54.6642C42.0752 54.5418 41.7207 54.3883 41.3783 54.2048C41.3267 54.1771 41.2767 54.1764 41.2289 54.2121C41.1507 54.2702 41.0728 54.3285 40.9955 54.3883C40.7387 54.5878 40.4829 54.7883 40.2261 54.9879C40.1835 55.0209 40.1405 55.056 40.0927 55.0786C40.0687 55.09 40.0283 55.0847 40.0039 55.0706C39.9677 55.0496 39.9376 55.0156 39.9078 54.9842C39.3862 54.442 38.8649 53.8994 38.344 53.3569C38.3212 53.3332 38.2997 53.3085 38.2786 53.2835C38.2516 53.2521 38.2455 53.1917 38.2677 53.16C38.3555 53.0342 38.4437 52.9084 38.5331 52.784C38.7117 52.5344 38.8912 52.2855 39.0707 52.0362C39.1182 51.9702 39.14 51.9064 39.0983 51.823C38.9255 51.4773 38.7815 51.119 38.6713 50.7459C38.6466 50.6628 38.5927 50.6251 38.5081 50.6131C38.0849 50.5527 37.6624 50.4873 37.2399 50.4226C37.2084 50.4179 37.1761 50.4109 37.1475 50.3972C37.1309 50.3892 37.1151 50.3675 37.1094 50.3485C37.1001 50.3171 37.0962 50.2834 37.0962 50.2504C37.0956 49.4609 37.0956 48.6715 37.0959 47.882C37.0959 47.849 37.1023 47.8159 37.1055 47.7832C37.1091 47.7452 37.136 47.7208 37.1642 47.7112C37.2145 47.6945 37.2681 47.6868 37.3206 47.6791C37.6906 47.6241 38.0602 47.5663 38.4308 47.5173C38.5722 47.4986 38.66 47.4429 38.7017 47.2887C38.7944 46.9454 38.9351 46.6207 39.0941 46.3054C39.1329 46.2286 39.1348 46.1649 39.0816 46.0925C38.8809 45.8186 38.6809 45.5436 38.4873 45.264C38.1715 44.8075 38.15 44.959 38.5292 44.5583C38.979 44.0831 39.4346 43.614 39.8882 43.1425C39.9257 43.1035 39.9632 43.0621 40.0075 43.0331C40.0293 43.0187 40.0735 43.0184 40.0953 43.0321C40.1681 43.0781 40.2364 43.1318 40.3046 43.1852C40.5868 43.4051 40.8682 43.6257 41.1503 43.8459C41.1843 43.8726 41.218 43.9026 41.2565 43.9196C41.2828 43.9313 41.3215 43.9336 41.3475 43.922C41.436 43.8829 41.5206 43.8355 41.6072 43.7922C41.8479 43.6717 42.0951 43.5653 42.3509 43.4862C42.4782 43.4468 42.5449 43.3858 42.5622 43.2379C42.6097 42.8299 42.6741 42.4238 42.7324 42.017C42.7388 41.9733 42.7488 41.9303 42.7565 41.8866C42.7632 41.8482 42.7933 41.8298 42.8225 41.8222C42.8636 41.8118 42.9072 41.8105 42.9495 41.8105C43.6865 41.8098 44.4235 41.8098 45.1609 41.8102C45.1823 41.8102 45.2035 41.8105 45.225 41.8115C45.3003 41.8148 45.3474 41.8545 45.3577 41.9269C45.3814 42.0918 45.4035 42.2569 45.427 42.4218C45.4689 42.7187 45.5125 43.0154 45.5533 43.3123C45.5635 43.3874 45.603 43.4338 45.6687 43.4558C46.0357 43.5773 46.3906 43.7291 46.7314 43.9166C46.7853 43.9463 46.834 43.93 46.8795 43.8949C46.9654 43.8289 47.0517 43.7635 47.1373 43.6967C47.3937 43.4969 47.6502 43.297 47.9067 43.0971C47.9323 43.0771 47.9583 43.0574 47.9846 43.0384C48.0234 43.0104 48.0698 43.011 48.1022 43.0411C48.1343 43.0704 48.166 43.0998 48.1962 43.1312C48.7101 43.6657 49.2236 44.2003 49.7369 44.7355C49.7744 44.7745 49.8097 44.8169 49.8408 44.8616C49.851 44.8763 49.8533 44.9083 49.8446 44.9237C49.8129 44.981 49.7773 45.0368 49.7391 45.0902C49.5096 45.4111 49.2788 45.7311 49.0486 46.0518C49.0294 46.0785 49.0108 46.1059 48.9938 46.1339C48.9694 46.1743 48.9675 46.216 48.9883 46.2593C49.0265 46.3388 49.0637 46.4188 49.1005 46.4989C49.2304 46.7799 49.34 47.0688 49.4266 47.3675C49.4464 47.4359 49.4891 47.4813 49.5609 47.4923C49.8251 47.5326 50.0889 47.5737 50.3527 47.6151C50.5425 47.6448 50.7326 47.6745 50.9224 47.7051C50.9615 47.7115 51.0003 47.7575 51.0026 47.7976C51.0061 47.864 51.0096 47.9304 51.0096 47.9971C51.0106 48.3538 51.0099 48.7098 51.0103 49.0655ZM46.2153 49.0672C46.2198 47.7505 45.1615 46.8102 44.068 46.8009C42.9379 46.7916 41.8829 47.7625 41.8838 49.0632C41.8848 50.2471 42.8097 51.3061 44.0478 51.3105C45.2365 51.3152 46.2117 50.3048 46.2153 49.0672Z" fill="#021624"/>
<path id="Vector_5" d="M32.5391 42.913C32.5391 41.4235 32.5391 39.934 32.5394 38.4445C32.5394 38.3444 32.5375 38.2443 32.5436 38.1445C32.5702 37.7157 32.9818 37.3981 33.3832 37.4938C33.58 37.5409 33.7329 37.6547 33.8454 37.8268C33.8999 37.9102 33.9371 38.0033 33.9413 38.1061C33.9464 38.2282 33.9509 38.3504 33.9509 38.4725C33.9516 41.3514 33.9512 44.2303 33.9512 47.1093C33.9512 47.198 33.9557 47.2874 33.9516 47.3759C33.9317 47.7893 34.3145 48.3045 34.8248 48.2991C35.1025 48.2961 35.3801 48.2985 35.6577 48.2991C35.7539 48.2995 35.8504 48.2968 35.9459 48.3041C36.2114 48.3252 36.4095 48.4673 36.5428 48.6995C36.6595 48.9031 36.6704 49.122 36.5707 49.3385C36.439 49.6252 36.2139 49.7736 35.9126 49.7933C35.785 49.8017 35.6564 49.7957 35.5282 49.796C35.3253 49.7963 35.1223 49.798 34.9194 49.7967C34.6729 49.795 34.4292 49.762 34.193 49.6886C33.4582 49.461 32.9571 48.9655 32.6731 48.2301C32.5891 48.0128 32.541 47.7843 32.541 47.5477C32.541 47.4142 32.5394 47.2811 32.5394 47.1476C32.5394 45.7359 32.5394 44.3244 32.5394 42.9127C32.5394 42.913 32.5394 42.913 32.5391 42.913Z" fill="#021624"/>
<path id="Vector_6" d="M47.4805 37.1074C47.4805 38.5856 47.4805 40.0637 47.4805 41.5416C47.4805 41.6303 47.4837 41.7197 47.4789 41.8082C47.4568 42.2363 47.1622 42.4635 46.832 42.5176C46.7345 42.5336 46.6412 42.5079 46.5495 42.4742C46.2915 42.3791 46.0677 42.1335 46.0693 41.7958C46.0699 41.6847 46.0683 41.5736 46.068 41.4625C46.0677 38.5952 46.0674 35.728 46.0686 32.8607C46.0686 32.6819 46.061 32.506 46.0119 32.3332C45.9225 32.0165 45.6403 31.7573 45.3252 31.7126C45.2303 31.6992 45.1338 31.6972 45.038 31.6962C44.7603 31.6942 44.4827 31.6949 44.2051 31.6955C44.0307 31.6962 43.8678 31.6542 43.7143 31.5664C43.4463 31.4136 43.3216 31.0085 43.41 30.7579C43.4508 30.6428 43.4915 30.5327 43.5761 30.4396C43.7091 30.2931 43.872 30.2271 44.0576 30.2057C44.0999 30.201 44.1429 30.2027 44.1855 30.2027C44.5167 30.2024 44.8479 30.1937 45.1784 30.204C46.0725 30.2324 46.7486 30.6582 47.1981 31.457C47.3773 31.7753 47.4776 32.1293 47.4789 32.5057C47.4792 32.5945 47.4799 32.6836 47.4799 32.7723C47.4805 34.2178 47.4802 35.6626 47.4805 37.1074Z" fill="#5E1914"/>
<path id="Vector_7" d="M49.9743 32.5998C49.9743 33.6325 49.9743 34.6655 49.9739 35.6982C49.9739 35.787 49.9788 35.8768 49.9691 35.9645C49.9374 36.2491 49.8066 36.4644 49.5514 36.5898C49.1824 36.7717 48.7288 36.5851 48.5871 36.161C48.5595 36.0783 48.5515 35.9882 48.5393 35.9008C48.5332 35.8574 48.5377 35.812 48.5377 35.7676C48.5374 33.6355 48.5371 31.503 48.5368 29.3708C48.5368 29.2373 48.5464 29.1072 48.5807 28.9761C48.6826 28.5877 49.1526 28.3284 49.5668 28.5326C49.8053 28.6504 49.9368 28.8616 49.9675 29.1346C49.9788 29.2333 49.9743 29.3341 49.9746 29.4342C49.9749 30.4893 49.9749 31.5444 49.9749 32.5994C49.9743 32.5998 49.9743 32.5998 49.9743 32.5998Z" fill="#021624"/>
<path id="Vector_8" d="M31.459 47.4429C31.459 48.4986 31.459 49.554 31.459 50.6098C31.459 50.6985 31.4615 50.7879 31.4548 50.8764C31.4263 51.2384 31.1172 51.5434 30.7319 51.5317C30.3773 51.521 30.0795 51.2307 30.0513 50.862C30.0455 50.7846 30.0471 50.7065 30.0471 50.6288C30.0468 48.5176 30.0468 46.4065 30.0471 44.2953C30.0471 44.1952 30.0474 44.0951 30.0532 43.9954C30.0728 43.6604 30.3853 43.3594 30.7126 43.338C31.0852 43.3137 31.458 43.6504 31.458 44.0428C31.458 44.1429 31.4593 44.2426 31.4593 44.3427C31.4593 45.3761 31.4593 46.4095 31.4593 47.4429C31.4593 47.4429 31.4593 47.4429 31.459 47.4429Z" fill="#5E1914"/>
<path id="Vector_9" d="M44.7688 37.6916C44.7688 38.4924 44.7685 39.2929 44.7691 40.0937C44.7691 40.2162 44.7646 40.337 44.7313 40.4568C44.6162 40.8725 44.2206 41.0911 43.8256 40.959C43.5384 40.8629 43.3967 40.6436 43.3435 40.3517C43.3258 40.2546 43.33 40.1521 43.3297 40.0524C43.3284 39.6743 43.3297 39.2963 43.3297 38.9179C43.33 37.728 43.3306 36.5381 43.3294 35.3479C43.3294 35.2024 43.3396 35.0613 43.3855 34.9215C43.4409 34.7533 43.5522 34.6372 43.6897 34.5478C43.7609 34.5014 43.8458 34.4764 43.9269 34.449C43.9664 34.4357 44.0116 34.432 44.0532 34.4347C44.3033 34.452 44.5033 34.5701 44.6489 34.7797C44.7252 34.8894 44.7569 35.0209 44.7656 35.1557C44.7713 35.2445 44.7685 35.3336 44.7685 35.4227C44.7688 36.1791 44.7688 36.9352 44.7688 37.6916Z" fill="#021624"/>
<path id="Vector_10" d="M35.2467 42.2736C35.2467 41.4735 35.2471 40.6733 35.2461 39.8735C35.2458 39.7394 35.2528 39.6086 35.2993 39.4804C35.4118 39.1698 35.6661 38.9926 35.9963 39.0013C36.2976 39.0093 36.5477 39.2055 36.6365 39.5121C36.6608 39.5962 36.6692 39.686 36.6804 39.7737C36.6859 39.8174 36.6817 39.8625 36.6817 39.9069C36.6814 41.4738 36.6814 43.0404 36.6807 44.6073C36.6807 44.674 36.6801 44.7408 36.6788 44.8072C36.6766 44.92 36.6499 45.0277 36.6041 45.1288C36.3707 45.6434 35.7677 45.638 35.4946 45.3661C35.348 45.2203 35.2612 45.0504 35.2506 44.8406C35.2451 44.7298 35.2464 44.6183 35.2464 44.5072C35.2467 43.7625 35.2467 43.018 35.2467 42.2736Z" fill="#5E1914"/>
<path id="Vector_11" d="M32.3878 53.6919C32.3721 54.6038 31.7076 55.3826 30.7548 55.3843C29.8796 55.3856 29.1528 54.6986 29.1201 53.6919C29.1621 52.7115 29.8129 52.0202 30.7535 51.9951C31.6361 51.9714 32.3901 52.7746 32.3878 53.6919ZM30.7564 54.3339C31.0805 54.3152 31.3668 54.0692 31.3677 53.6899C31.3687 53.3365 31.1327 53.0789 30.7532 53.0529C30.4352 53.0309 30.1312 53.3619 30.1428 53.6935C30.1566 54.0889 30.4416 54.3155 30.7564 54.3339Z" fill="#5E1914"/>
<path id="Vector_12" d="M49.2335 27.9917C48.4172 28.0074 47.6238 27.3004 47.6289 26.2793C47.6334 25.3581 48.3855 24.5929 49.2815 24.6056C50.2055 24.619 50.8986 25.4375 50.8848 26.3264C50.8713 27.2196 50.15 28.0221 49.2335 27.9917ZM49.2623 26.931C49.5512 26.9553 49.8708 26.644 49.865 26.2937C49.8599 25.9907 49.6287 25.662 49.2501 25.6684C48.8997 25.674 48.6426 25.951 48.6487 26.3094C48.6558 26.7164 48.9712 26.9527 49.2623 26.931Z" fill="#021624"/>
<path id="Vector_13" d="M44.9721 27.0468C44.4701 27.0468 43.968 27.0455 43.4663 27.0478C43.3243 27.0485 43.1925 27.0168 43.0653 26.951C42.7501 26.7879 42.5196 26.271 42.8594 25.8382C43.0056 25.652 43.1989 25.577 43.4189 25.5566C43.4823 25.5506 43.5468 25.5536 43.6109 25.5536C44.54 25.5533 45.4693 25.5533 46.3984 25.5536C46.4625 25.5536 46.5266 25.5526 46.5904 25.5563C46.6985 25.5623 46.8017 25.5906 46.8979 25.641C47.1495 25.7722 47.2755 25.985 47.2925 26.278C47.3153 26.6734 47.0097 27.0261 46.6058 27.0451C46.5205 27.0491 46.4349 27.0478 46.3497 27.0481C45.8903 27.0485 45.4312 27.0481 44.9718 27.0481C44.9721 27.0475 44.9721 27.0471 44.9721 27.0468Z" fill="#021624"/>
<path id="Vector_14" d="M34.98 54.4243C34.5424 54.4243 34.1048 54.4247 33.6672 54.424C33.5604 54.424 33.4534 54.4263 33.3472 54.4177C33.0917 54.397 32.9058 54.2608 32.7952 54.0229C32.7538 53.9342 32.7324 53.8347 32.7106 53.738C32.6875 53.6362 32.7224 53.5378 32.7567 53.446C32.868 53.1507 33.077 52.9829 33.3831 52.9562C33.4681 52.9488 33.5537 52.9522 33.6393 52.9522C34.5786 52.9522 35.5176 52.9525 36.4569 52.9528C36.521 52.9528 36.5851 52.9502 36.6489 52.9548C36.9695 52.9782 37.2302 53.2194 37.3033 53.5448C37.378 53.8774 37.1542 54.3743 36.7086 54.4147C36.613 54.4233 36.5169 54.4237 36.4207 54.424C35.9405 54.425 35.4602 54.4243 34.98 54.4243C34.98 54.424 34.98 54.424 34.98 54.4243Z" fill="#5E1914"/>
<path id="Vector_15" d="M25.673 41.5382C25.673 41.4048 25.672 41.2713 25.6733 41.1382C25.6736 41.0938 25.6791 41.0498 25.6833 41.0057C25.6865 40.9707 25.7435 40.9306 25.7798 40.9366C25.8006 40.9403 25.8227 40.94 25.8429 40.9463C25.9788 40.988 26.0936 41.0668 26.1975 41.1659C26.3991 41.3587 26.3991 41.655 26.2475 41.8599C26.1253 42.0247 25.9618 42.1235 25.765 42.1629C25.7115 42.1736 25.6563 42.1288 25.6583 42.0711C25.6643 41.8936 25.6714 41.7161 25.6778 41.5386C25.6762 41.5382 25.6746 41.5382 25.673 41.5382Z" fill="#5E1914"/>
<path id="Vector_16" d="M24.6506 38.5799C24.6506 38.7575 24.6516 38.935 24.65 39.1125C24.6493 39.1639 24.5788 39.2069 24.5304 39.1839C24.4432 39.1429 24.3544 39.1035 24.2727 39.0521C23.9267 38.8345 23.9639 38.3858 24.1839 38.1642C24.2778 38.0694 24.3903 38.0087 24.5118 37.9623C24.5795 37.9366 24.6481 37.9763 24.6513 38.0471C24.6551 38.1358 24.6564 38.2246 24.6574 38.313C24.6583 38.4018 24.6577 38.4905 24.6577 38.5793C24.6551 38.5799 24.6529 38.5799 24.6506 38.5799Z" fill="#5E1914"/>
<path id="Vector_17" d="M55.5057 41.5469C55.5057 41.359 55.505 41.1712 55.5063 40.983C55.5066 40.9383 55.557 40.9059 55.5977 40.9179C55.7214 40.9546 55.8365 41.011 55.9433 41.0844C56.2504 41.2953 56.2792 41.7037 56.0042 41.9633C55.883 42.0774 55.7384 42.1458 55.5765 42.1675C55.5567 42.1702 55.5131 42.1315 55.5121 42.1101C55.5022 41.9226 55.4993 41.7348 55.4941 41.5469C55.498 41.5472 55.5018 41.5469 55.5057 41.5469Z" fill="#021624"/>
<path id="Vector_18" d="M54.4789 38.5989C54.4789 38.7424 54.4795 38.8856 54.4782 39.029C54.4779 39.0617 54.4718 39.0944 54.468 39.1271C54.4632 39.1658 54.4084 39.1979 54.3699 39.1865C54.1785 39.1308 54.0301 39.012 53.9127 38.8485C53.8672 38.7848 53.8464 38.7124 53.8425 38.6326C53.8361 38.4945 53.872 38.3684 53.9506 38.2603C54.0548 38.1171 54.1862 38.008 54.3571 37.9583C54.4068 37.9439 54.4715 37.9836 54.4718 38.0367C54.4734 38.2242 54.4725 38.4114 54.4725 38.5989C54.4747 38.5989 54.477 38.5989 54.4789 38.5989Z" fill="#021624"/>
</g>
</g>
</svg>
