<svg width="60" height="60" viewBox="0 0 60 60" fill="none" xmlns="http://www.w3.org/2000/svg">
<g id="Frame" clip-path="url(#clip0_0_717)">
<g id="Group">
<path id="Vector" d="M60 19.8204C59.2762 20.1957 59.5737 20.9007 59.5335 21.4529C59.2976 24.6964 59.118 27.9426 58.9062 31.3819C57.0832 30.3096 55.3621 29.3151 53.6598 28.2938C50.223 26.2297 46.7915 24.1523 43.3654 22.0721C42.5423 21.5735 41.7515 21.0025 41.9954 19.8633C42.2367 18.7267 43.1723 18.5793 44.1348 18.4184C45.1776 18.2442 46.2526 18.1557 47.3142 17.5955C44.931 14.0062 41.7971 11.3738 37.8777 9.76276C24.7737 4.36939 10.4258 12.3656 8.09079 26.3584C7.91386 27.4172 7.50905 27.6183 6.55735 27.5915C4.37246 27.5325 2.18489 27.5834 0 27.5888C0 27.0527 0 26.5166 0 25.9804C0.63536 25.841 0.436978 25.2915 0.503999 24.9028C2.73714 12.0734 12.5758 2.46884 25.5243 0.482509C25.8192 0.436939 26.3179 0.624581 26.2508 0C27.1436 0 28.0363 0 28.929 0C29.2856 0.450342 29.6421 0.4423 30.0013 0C30.8056 0 31.6098 0 32.4114 0C32.5079 0.587053 33.0039 0.428897 33.3578 0.479828C41.1376 1.56815 47.4188 5.26739 52.3676 11.3229C53.0325 12.1378 53.4775 13.655 54.3166 13.6577C55.2656 13.6604 55.9412 12.2959 56.7052 11.4944C57.992 10.1407 58.9786 10.2399 60 11.7893C60 14.4645 60 17.1425 60 19.8204Z" fill="#5E1914"/>
<path id="Vector_2" d="M26.2508 60.0014C26.2079 59.9263 26.1865 59.811 26.1222 59.7815C24.3796 58.988 24.3823 58.988 24.9721 57.0766C25.4064 55.6718 25.8594 54.2724 26.2562 52.8542C26.4519 52.1492 26.7387 51.8623 27.5564 51.9374C30.7868 52.2323 30.7734 52.2001 31.0817 55.4842C31.2238 56.9935 31.4302 58.4947 31.6098 59.9987C29.8217 60.0014 28.0363 60.0014 26.2508 60.0014Z" fill="#5E1914"/>
<path id="Vector_3" d="M30.0015 0C29.645 0.44234 29.2884 0.450382 28.9292 0C29.2858 0 29.645 0 30.0015 0Z" fill="#5E1914"/>
<path id="Vector_4" d="M40.1967 23.409C40.1297 23.8405 39.7785 24.1649 39.4487 24.4249C38.7356 24.9878 38.7142 25.5293 39.2504 26.2209C39.489 26.5292 39.6444 26.9259 39.749 27.3066C40.1109 28.6067 40.387 29.9255 42.2851 29.5047C42.7783 29.3947 43.0598 29.8907 43.092 30.3812C43.1269 30.9147 43.0732 31.4535 43.1161 31.9842C43.21 33.1288 42.7462 33.7052 41.5693 33.5202C40.6015 33.3674 40.1913 33.7775 40.0841 34.705C40.0332 35.1366 39.8723 35.5896 39.6444 35.9596C38.9581 37.0774 38.497 38.104 39.9045 39.0744C40.3629 39.3907 40.2959 39.9403 39.8857 40.3665C39.6069 40.656 39.3201 40.9348 39.0359 41.2189C37.7303 42.5083 37.7035 42.5378 36.355 41.2216C35.9073 40.7846 35.6098 40.7686 35.1192 41.0822C34.6366 41.3931 34.1139 41.7041 33.5643 41.8354C32.2373 42.1518 31.2561 42.6235 31.5992 44.2855C31.7065 44.8056 31.2882 45.0977 30.7708 45.1111C30.0148 45.1326 29.2535 45.1514 28.4975 45.1085C27.5377 45.0548 27.5056 44.3284 27.5994 43.6449C27.7281 42.72 27.4064 42.2509 26.4654 42.1142C25.9963 42.0445 25.5164 41.8381 25.1089 41.5835C24.0607 40.9348 23.1197 40.5059 22.2565 41.8891C21.9241 42.4225 21.3235 42.3662 20.8678 41.9159C20.3289 41.3851 19.8089 40.8329 19.3022 40.27C18.7526 39.6615 19.1226 39.1575 19.6078 38.8037C20.5112 38.1389 20.5729 37.4446 19.9241 36.5707C19.6909 36.2571 19.5247 35.8604 19.4362 35.477C19.1413 34.1796 18.7017 33.1369 17.0315 33.5068C16.6562 33.5899 16.3023 33.3352 16.2862 32.9144C16.2514 31.9789 16.2004 31.0353 16.305 30.1105C16.3962 29.2956 17.1495 29.4242 17.6964 29.4778C18.5596 29.5609 19.0234 29.2875 19.1467 28.3842C19.211 27.9097 19.3987 27.4245 19.6453 27.0117C20.3155 25.8832 20.8356 24.8163 19.321 23.9317C19.2164 23.87 19.1118 23.7172 19.1065 23.602C19.0287 22.2456 20.2861 21.8301 20.9858 21.042C21.4683 20.5005 22.109 20.7927 22.4736 21.31C23.1278 22.2402 23.8087 22.2858 24.6692 21.6076C24.9749 21.369 25.377 21.1867 25.7603 21.1224C27.1034 20.8945 27.9131 20.3397 27.6128 18.7849C27.5056 18.2247 27.905 17.8815 28.5028 17.8681C28.9479 17.8601 29.3956 17.8574 29.8406 17.8574C31.5724 17.8601 31.6234 17.8601 31.6073 19.6293C31.5992 20.3691 31.8941 20.6399 32.5295 20.8034C33.0871 20.9482 33.6769 21.0929 34.1541 21.3958C35.2747 22.1089 36.2666 22.4225 37.1137 21.0313C37.2022 20.8865 37.4998 20.8168 37.7062 20.8061C38.2879 20.7766 40.2423 22.7951 40.1967 23.409ZM29.5618 38.2729C33.1675 38.3212 36.2907 35.1983 36.3095 31.5258C36.3282 27.9204 33.3257 24.7814 29.7736 24.693C26.1571 24.6045 23.0393 27.6845 23.0018 31.3811C22.9669 35.142 25.8997 38.2247 29.5618 38.2729Z" fill="#5E1914"/>
<path id="Vector_5" d="M5.30795 32.6793C5.44199 32.6793 5.57603 32.6766 5.71008 32.6793C6.73416 32.6927 7.9325 32.3844 8.73407 32.8106C9.59194 33.2691 9.20322 34.6765 9.60803 35.5934C9.99139 36.4646 9.73939 36.9204 8.83058 37.285C7.13629 37.9632 5.48757 38.7594 3.85225 39.5664C3.14719 39.9149 2.77455 39.9417 2.51719 39.0624C1.98906 37.2608 1.66468 35.4245 1.36979 33.5774C1.25451 32.8509 1.536 32.6337 2.23302 32.6632C3.2571 32.7115 4.28119 32.6793 5.30795 32.6793Z" fill="#5E1914"/>
<path id="Vector_6" d="M21.672 50.7128C21.0071 52.8708 20.3369 55.0772 19.6453 57.2781C19.4925 57.7687 19.1091 57.6481 18.7713 57.4899C16.9591 56.6374 15.2192 55.6643 13.5839 54.5008C13.1067 54.1603 13.2139 53.9217 13.5356 53.5598C14.9216 51.9996 16.2915 50.4232 17.6614 48.8496C17.9778 48.485 18.27 48.2571 18.7847 48.5815C19.6104 49.1016 20.4737 49.5654 21.3315 50.0291C21.6023 50.1793 21.7417 50.3535 21.672 50.7128Z" fill="#5E1914"/>
<path id="Vector_7" d="M11.6806 41.5864C11.9621 41.5006 12.0827 41.6453 12.198 41.7767C12.2865 41.8759 12.3455 41.9992 12.4259 42.1064C14.4312 44.8195 14.4312 44.8195 12.1578 47.4226C11.3964 48.2938 10.6136 49.149 9.87909 50.0417C9.45284 50.5618 9.11505 50.5216 8.70488 50.0471C7.42612 48.5565 6.27335 46.9775 5.26804 45.2913C4.99995 44.8436 5.05089 44.5916 5.54685 44.3691C7.4985 43.4978 9.43407 42.5997 11.3777 41.7124C11.501 41.6561 11.6243 41.6105 11.6806 41.5864Z" fill="#5E1914"/>
<path id="Vector_8" d="M37.3094 59.2135C36.7331 59.3636 36.5883 58.9856 36.5347 58.5594C36.2585 56.396 36.0092 54.2298 35.7251 52.0664C35.6446 51.4605 36.0789 51.3506 36.4489 51.3452C37.6177 51.3292 38.8322 49.6804 39.7731 50.8037C41.1538 52.4578 42.0599 54.5086 43.1805 56.3799C43.4137 56.7686 43.395 57.0206 42.9633 57.2243C41.1484 58.0902 39.2611 58.7471 37.3094 59.2135Z" fill="#5E1914"/>
<path id="Vector_9" d="M48.0405 54.1195C47.6143 54.1517 47.5285 53.8086 47.3784 53.5539C46.3302 51.7953 45.29 50.0366 44.2471 48.2753C44.1801 48.16 44.0514 48.026 44.0702 47.9241C44.3168 46.5703 45.7431 46.2405 46.4186 45.2486C46.7403 44.7768 47.1183 45.0449 47.4508 45.2808C49.1182 46.4657 50.783 47.6533 52.4452 48.8463C52.7803 49.0849 53.11 49.3342 52.7186 49.8007C51.4291 51.3449 49.96 52.696 48.3676 53.9185C48.2657 54.0016 48.1424 54.0579 48.0405 54.1195Z" fill="#5E1914"/>
<path id="Vector_10" d="M58.6972 39.1799C58.3058 40.1664 57.8741 41.4291 57.3192 42.6328C56.1289 45.2171 56.1021 45.2037 53.8314 43.5845C52.6733 42.7615 51.5232 41.9277 50.3517 41.1235C49.8611 40.7884 49.8048 40.4828 50.0514 39.9117C51.3624 36.8985 51.3382 36.8958 54.5177 37.5821C55.6893 37.8341 56.8661 38.0593 58.0404 38.2845C58.4023 38.3542 58.7588 38.3917 58.6972 39.1799Z" fill="#5E1914"/>
</g>
</g>
<defs>
<clipPath id="clip0_0_717">
<rect width="60" height="60" fill="white"/>
</clipPath>
</defs>
</svg>
