<svg width="50" height="50" viewBox="0 0 50 50" fill="none" xmlns="http://www.w3.org/2000/svg">
<g id="Frame" clip-path="url(#clip0_231_123)">
<g id="Group">
<path id="Vector" d="M0 12.356C0.0889575 12.3492 0.176938 12.3367 0.265895 12.3367C1.92578 12.3357 3.5847 12.3357 5.24458 12.3367C5.34821 12.3367 5.45183 12.3483 5.54763 12.354C5.6053 12.5704 5.60823 34.6961 5.55349 34.9231C5.49484 34.9289 5.43227 34.9404 5.36873 34.9404C3.57883 34.9404 1.7899 34.9385 0 34.9375C0 29.6942 0 24.4509 0 19.2076C0.499531 19.2183 1.00102 19.1787 1.52303 19.2115C1.52303 23.9795 1.52303 28.7196 1.52303 33.4664C2.37155 33.4664 3.19661 33.4664 4.01677 33.4664C4.07738 33.2036 4.06761 14.0194 4.00504 13.8107C3.18781 13.8127 2.36373 13.7837 1.51717 13.8098C1.51717 13.9325 1.51717 14.0271 1.51717 14.1227C1.51717 15.2085 1.51814 16.2933 1.51717 17.379C1.51717 17.6428 1.50641 17.6563 1.24345 17.6524C0.828967 17.6457 0.415461 17.6292 0.000977555 17.6167C0 15.8625 0 14.1092 0 12.356Z" fill="url(#paint0_linear_231_123)"/>
<path id="Vector_2" d="M10.6187 31.938C10.4056 31.6115 10.1925 31.3236 10.0224 31.0135C9.75161 30.5209 9.48669 30.0224 9.26087 29.5085C9.08296 29.1028 8.95881 28.673 8.82684 28.2489C8.72517 27.9224 8.63328 27.5911 8.56192 27.2569C8.50229 26.9758 8.4847 26.686 8.43582 26.402C8.31949 25.7161 8.33806 25.0255 8.34588 24.3338C8.35175 23.8354 8.42213 23.3437 8.52184 22.8559C8.59516 22.4965 8.65284 22.1324 8.74277 21.7779C8.83075 21.432 8.9373 21.0881 9.06243 20.753C9.27358 20.1908 9.51993 19.6421 9.81026 19.1137C10.2081 18.3921 10.6637 17.7072 11.2101 17.088C11.5806 16.6688 11.9619 16.2554 12.3773 15.8806C13.1447 15.188 13.9942 14.5968 14.917 14.1215C15.3784 13.8839 15.8525 13.6666 16.3501 13.5024C16.66 13.4 16.966 13.2918 17.2827 13.2058C17.7001 13.0928 18.1195 13.0049 18.5428 12.9199C19.5223 12.7228 20.5096 12.7093 21.4969 12.7644C21.8782 12.7856 22.2692 12.8059 22.6456 12.915C22.8518 12.9749 23.0728 12.9865 23.2849 13.0329C23.5107 13.0812 23.7355 13.1401 23.9584 13.2019C24.1881 13.2667 24.414 13.342 24.6417 13.4116C25.0435 13.5342 25.4228 13.7081 25.806 13.8781C26.3798 14.1331 26.9224 14.4403 27.4454 14.7803C28.4043 15.4044 29.2509 16.1626 29.9919 17.0253C30.7739 17.9362 31.4289 18.934 31.8854 20.0468C32.0868 20.5385 32.2794 21.036 32.4436 21.5412C32.5492 21.8658 32.602 22.2077 32.6714 22.5429C32.731 22.8327 32.7818 23.1244 32.8336 23.4152C32.8473 23.4944 32.8503 23.5746 32.8552 23.6547C32.8737 23.9841 32.9011 24.3126 32.9079 24.642C32.9138 24.9066 32.904 25.1723 32.8845 25.436C32.8473 25.9238 32.817 26.4136 32.7466 26.8965C32.6929 27.2655 32.5883 27.6288 32.4905 27.99C32.3908 28.3581 32.295 28.73 32.1562 29.0845C31.9802 29.5346 31.7847 29.979 31.5609 30.4079C30.8942 31.6849 30.0329 32.8218 28.9567 33.7926C28.2059 34.4698 27.3975 35.0706 26.4903 35.5314C26.0533 35.7536 25.6173 35.9786 25.1667 36.1699C24.848 36.3051 24.5058 36.3901 24.1725 36.4906C23.8597 36.5853 23.5478 36.6838 23.2301 36.7553C22.9721 36.8142 22.7013 36.8181 22.4432 36.878C21.9877 36.9832 21.5224 36.9427 21.0649 36.9948C20.7716 37.0286 20.4901 37.0422 20.1968 36.9929C19.9827 36.9562 19.7588 36.9765 19.5389 36.9659C19.144 36.9475 18.7549 36.8866 18.3707 36.791C18.1928 36.7466 18.01 36.7176 17.8291 36.6828C17.3902 36.5978 16.9709 36.452 16.5466 36.3138C15.8955 36.1013 15.2767 35.8221 14.6804 35.4985C14.0861 35.1759 13.523 34.7992 12.9893 34.379C12.5152 34.0061 12.0821 33.5927 11.6471 33.1512C11.7742 32.9397 11.9912 32.8209 12.1496 32.648C12.3099 32.4731 12.4917 32.3166 12.6862 32.1321C12.7898 32.2307 12.8905 32.3253 12.9893 32.4219C13.6892 33.1039 14.4634 33.6883 15.3207 34.1655C15.7978 34.4311 16.2866 34.6707 16.8056 34.8465C17.1595 34.9663 17.5095 35.0986 17.8673 35.2049C18.0735 35.2667 18.2925 35.286 18.5046 35.3276C18.7881 35.3817 19.0706 35.4396 19.3541 35.4937C19.4099 35.5043 19.4675 35.5082 19.5242 35.5082C20.2564 35.5092 20.9896 35.5256 21.7208 35.5014C22.0385 35.4908 22.3533 35.3981 22.669 35.3401C22.8499 35.3063 23.0317 35.2725 23.2106 35.229C23.4814 35.1633 23.7561 35.1044 24.019 35.0136C24.326 34.9083 24.6232 34.7721 24.9233 34.6485C25.5753 34.3809 26.1853 34.0361 26.764 33.641C27.5128 33.13 28.1805 32.5243 28.7787 31.8462C29.4953 31.0348 30.0779 30.1364 30.5012 29.1453C30.7202 28.6324 30.9059 28.1021 31.0633 27.566C31.1777 27.1767 31.2158 26.7652 31.295 26.3653C31.4524 25.5761 31.3986 24.7791 31.3732 23.9851C31.3614 23.6354 31.2813 23.2877 31.2236 22.9399C31.1923 22.7506 31.1376 22.5651 31.1024 22.3768C31.0134 21.8947 30.8473 21.4349 30.6684 20.9809C30.3692 20.2207 29.9792 19.5049 29.508 18.8345C28.9537 18.0444 28.3076 17.3353 27.5617 16.7152C26.8852 16.152 26.1501 15.6768 25.3583 15.2923C24.937 15.0875 24.4902 14.9359 24.0523 14.7668C23.7023 14.6316 23.3396 14.5446 22.9711 14.4654C22.5449 14.3737 22.1138 14.3312 21.6866 14.2626C21.1743 14.1805 20.666 14.1979 20.1567 14.2046C19.7696 14.2104 19.3805 14.2558 18.9963 14.308C18.6874 14.3495 18.3805 14.4171 18.0784 14.4934C17.8008 14.564 17.529 14.6567 17.2583 14.7494C16.9806 14.8441 16.705 14.9484 16.4303 15.0518C15.918 15.244 15.442 15.5077 14.9737 15.7869C13.96 16.3916 13.0939 17.1624 12.3304 18.0502C11.8006 18.6655 11.3607 19.3407 10.9872 20.0604C10.7233 20.5694 10.5131 21.0997 10.3254 21.6378C10.2257 21.9227 10.172 22.2222 10.1006 22.5168C10.0429 22.7573 9.99111 22.9988 9.93734 23.2394C9.93343 23.2548 9.92952 23.2703 9.92854 23.2867C9.85132 24.0701 9.76334 24.8545 9.83763 25.6427C9.88064 26.0958 9.93148 26.5527 10.0283 26.997C10.2844 28.1668 10.6959 29.2806 11.3294 30.3074C11.4535 30.5093 11.5884 30.7044 11.7194 30.9024C11.8152 31.0464 11.8133 31.113 11.6666 31.2173C11.3313 31.455 10.9902 31.6839 10.6187 31.938Z" fill="url(#paint1_linear_231_123)"/>
<path id="Vector_3" d="M40.7588 33.4718C41.6093 33.4718 42.4284 33.4718 43.275 33.4718C43.2809 33.3598 43.2916 33.2506 43.2916 33.1415C43.2926 29.4659 43.2916 25.7914 43.2926 22.1159C43.2926 20.6041 43.2975 19.0924 43.3004 17.5806C43.3004 17.4937 43.3004 17.4058 43.3004 17.2831C43.8987 17.2686 44.4725 17.2783 45.0463 17.2763C45.6241 17.2744 46.2018 17.2763 46.7795 17.2763C47.3553 17.2763 47.9311 17.2763 48.5382 17.2763C48.5577 16.4301 48.5567 15.6168 48.5382 14.7764C47.5655 14.7764 46.6251 14.7764 45.6583 14.7764C45.585 14.2828 45.6739 13.8133 45.6387 13.3516C45.8382 13.2946 49.7181 13.2849 50.0006 13.3361C50.0006 15.1232 50.0006 16.9122 50.0006 18.7359C49.9019 18.7359 49.807 18.7359 49.7122 18.7359C48.199 18.7359 46.6847 18.7359 45.1715 18.7359C45.1226 18.7359 45.0737 18.7349 45.0248 18.7359C44.7902 18.7398 44.7824 18.7465 44.7785 18.9842C44.7765 19.1368 44.7785 19.2894 44.7785 19.443C44.7785 24.4931 44.7785 29.5432 44.7785 34.5933C44.7785 34.6967 44.7785 34.8001 44.7785 34.8986C44.5898 34.9507 39.6981 34.9701 39.2866 34.9227C39.2758 34.8677 39.2573 34.8068 39.2543 34.745C39.2485 34.6407 39.2514 34.5363 39.2514 34.4311C39.2514 29.3491 39.2514 24.2661 39.2504 19.1841C39.2504 19.0431 39.2318 18.9011 39.2201 18.7369C37.4762 18.7369 35.7625 18.7369 34.0332 18.7369C34.0332 16.9228 34.0332 15.1338 34.0332 13.3458C34.2297 13.2888 43.9339 13.2869 44.1656 13.3496C44.1724 13.622 44.1802 13.9012 44.1851 14.1813C44.188 14.3176 44.1851 14.4547 44.1851 14.5919C44.1851 14.7097 44.1313 14.7706 44.0062 14.7658C43.9329 14.7629 43.8596 14.7658 43.7863 14.7658C41.141 14.7658 38.4967 14.7658 35.8515 14.7658C35.7469 14.7658 35.6413 14.7658 35.5416 14.7658C35.4839 14.9541 35.4722 16.972 35.5269 17.2754C35.6159 17.2754 35.7117 17.2754 35.8065 17.2754C37.3442 17.2754 38.8829 17.2754 40.4205 17.2754C40.7559 17.2754 40.7568 17.2763 40.7568 17.6154C40.7568 22.7785 40.7568 27.9407 40.7568 33.1038C40.7588 33.2226 40.7588 33.3414 40.7588 33.4718Z" fill="url(#paint2_linear_231_123)"/>
<path id="Vector_4" d="M20.6773 16.892C20.8269 16.892 21.039 16.8785 21.2492 16.8949C21.6011 16.9229 21.9521 16.9635 22.2942 17.062C22.4477 17.1064 22.6051 17.1364 22.7615 17.1712C23.4761 17.3315 24.13 17.6339 24.7567 17.998C25.611 18.4945 26.3462 19.1321 26.963 19.8962C27.3677 20.3975 27.7187 20.9365 27.9748 21.5277C28.1478 21.9276 28.2983 22.3372 28.4391 22.7487C28.5056 22.9438 28.5349 23.1515 28.5672 23.3563C28.6248 23.7272 28.6913 24.0991 28.7177 24.473C28.7392 24.7743 28.7079 25.0806 28.6991 25.3839C28.6972 25.4322 28.6815 25.4795 28.6806 25.5268C28.6669 26.0823 28.5388 26.6155 28.3834 27.1468C28.1165 28.0644 27.6796 28.8933 27.1096 29.6602C26.7587 30.1316 26.3559 30.5538 25.9112 30.9353C25.3373 31.426 24.7049 31.8327 24.0118 32.1438C23.6491 32.307 23.2806 32.45 22.8915 32.5495C22.6285 32.6161 22.3646 32.676 22.1016 32.7417C21.8123 32.8141 21.519 32.7842 21.2375 32.8441C20.954 32.904 20.6734 32.9107 20.3909 32.8972C20.0595 32.8808 19.7262 32.8615 19.4006 32.8035C18.9842 32.7291 18.5648 32.6461 18.165 32.5128C16.8228 32.0645 15.6449 31.3517 14.682 30.3123C14.0084 29.5849 13.4776 28.7725 13.1042 27.8529C12.9077 27.3689 12.7601 26.8734 12.6555 26.3672C12.4962 25.5993 12.4727 24.8139 12.5597 24.0402C12.7122 22.6907 13.1746 21.4495 13.9664 20.3251C14.6439 19.363 15.4914 18.5902 16.4973 17.9884C16.9294 17.7295 17.3898 17.516 17.8756 17.3576C18.2168 17.2465 18.558 17.146 18.9079 17.0649C19.474 16.9326 20.039 16.8669 20.6773 16.892ZM20.6187 31.3652C21.1847 31.3884 21.7429 31.3536 22.2952 31.1971C22.6334 31.1015 22.9716 31.002 23.2894 30.8638C23.8554 30.6165 24.3823 30.2949 24.8573 29.8988C25.6198 29.2632 26.2142 28.5001 26.6277 27.6008C26.788 27.253 26.9356 26.9024 27.0138 26.5257C27.0686 26.26 27.1458 25.9982 27.183 25.7297C27.2172 25.4834 27.2221 25.2322 27.2191 24.984C27.2152 24.6227 27.2279 24.2556 27.1693 23.9011C27.095 23.4558 26.9796 23.0163 26.8164 22.5893C26.5544 21.9025 26.1898 21.2775 25.7176 20.7163C25.3021 20.2217 24.8261 19.7861 24.2777 19.4344C23.7234 19.079 23.1378 18.7863 22.4936 18.624C22.347 18.5873 22.2004 18.5467 22.0527 18.5168C21.7702 18.4588 21.4887 18.3777 21.2032 18.3593C20.516 18.3149 19.8327 18.3448 19.1562 18.5177C18.8317 18.6008 18.514 18.6916 18.1992 18.8095C17.5726 19.0442 17.0076 19.3774 16.4865 19.7889C15.7074 20.4033 15.1043 21.1558 14.6722 22.0455C14.4562 22.4908 14.2743 22.9458 14.1873 23.4336C14.1336 23.7321 14.0495 24.0286 14.027 24.329C13.9576 25.2477 14.0661 26.146 14.3799 27.0202C14.5529 27.5003 14.7709 27.9534 15.0446 28.3842C15.5647 29.2004 16.2431 29.865 17.0574 30.3866C17.5345 30.6919 18.0438 30.9488 18.601 31.0928C18.7398 31.1285 18.8747 31.1768 19.0135 31.2097C19.255 31.2666 19.4955 31.3391 19.7408 31.3623C20.0312 31.3855 20.3254 31.3652 20.6187 31.3652Z" fill="url(#paint3_linear_231_123)"/>
<path id="Vector_5" d="M10.2303 9.56038C9.95759 9.1595 9.68876 8.76345 9.41211 8.35484C12.8296 6.14566 16.5356 5.00485 20.6081 5.00002C24.6835 4.99519 28.3904 6.136 31.7883 8.32586C31.7815 8.38189 31.7903 8.43019 31.7708 8.45917C31.5244 8.8243 31.2732 9.18751 31.0171 9.56038C27.842 7.51348 24.3971 6.44898 20.61 6.45187C16.8308 6.45477 13.3947 7.52024 10.2303 9.56038Z" fill="url(#paint4_linear_231_123)"/>
<path id="Vector_6" d="M9.41211 41.6469C9.69365 41.2325 9.95954 40.8413 10.2313 40.4414C13.3956 42.4815 16.8386 43.548 20.6237 43.5499C24.4029 43.5518 27.839 42.4854 31.0112 40.4462C31.2908 40.8384 31.5743 41.2209 31.8206 41.6547C28.3972 43.8619 24.6923 45.0027 20.6198 45.0008C16.5444 44.9989 12.8375 43.8561 9.41211 41.6469Z" fill="url(#paint5_linear_231_123)"/>
<path id="Vector_7" d="M13.3591 12.1662C13.1216 11.7489 12.8948 11.3509 12.6641 10.9462C13.32 10.5318 14.016 10.2285 14.7218 9.95702C16.936 9.10503 19.2362 8.76018 21.6077 8.88672C22.423 8.93019 23.2295 9.0461 24.0262 9.21708C25.6255 9.56 27.1426 10.1164 28.5845 10.9394C28.5396 11.0225 28.5044 11.0901 28.4662 11.1558C28.304 11.4379 28.1388 11.718 27.9784 12.0001C27.8905 12.1556 27.8631 12.1923 27.6715 12.0899C27.171 11.8204 26.6607 11.5644 26.1191 11.378C25.7076 11.2369 25.3078 11.0631 24.8943 10.9298C24.599 10.8341 24.2892 10.7829 23.9861 10.7095C23.7691 10.6573 23.5521 10.6004 23.3351 10.5472C23.3038 10.5395 23.2715 10.5356 23.2393 10.5318C22.8942 10.4931 22.5462 10.4728 22.205 10.412C21.3242 10.2565 20.4376 10.3231 19.5549 10.3492C19.158 10.3608 18.7484 10.3878 18.3573 10.5018C18.3036 10.5173 18.2439 10.5096 18.1882 10.5202C17.9057 10.5762 17.6222 10.6322 17.3407 10.6921C17.1843 10.7259 17.0298 10.7723 16.8734 10.8032C16.3084 10.9143 15.7668 11.1085 15.236 11.3161C14.6436 11.548 14.0561 11.802 13.5106 12.1353C13.4745 12.1604 13.4197 12.1556 13.3591 12.1662Z" fill="url(#paint6_linear_231_123)"/>
<path id="Vector_8" d="M13.3669 37.8223C13.4696 37.8638 13.5742 37.8947 13.667 37.9469C14.2115 38.2492 14.7756 38.5091 15.3651 38.7148C15.6935 38.8298 16.0151 38.9669 16.3475 39.0693C16.6437 39.1601 16.9516 39.2162 17.2537 39.2886C17.4717 39.3408 17.6877 39.3968 17.9057 39.4509C17.9292 39.4567 17.9536 39.4615 17.9771 39.4644C18.3222 39.504 18.6702 39.5253 19.0104 39.5852C19.8823 39.7378 20.7602 39.6731 21.6351 39.6538C22.0496 39.6441 22.4719 39.6035 22.8795 39.4953C22.903 39.4895 22.9274 39.4866 22.9519 39.4857C23.2901 39.4635 23.6176 39.3871 23.9431 39.2983C24.2432 39.2162 24.5551 39.1717 24.8512 39.079C25.2657 38.9486 25.6753 38.8008 26.0771 38.6366C26.5375 38.4482 26.9872 38.2338 27.4408 38.0299C27.5268 37.9913 27.6119 37.9478 27.695 37.9015C27.8465 37.8174 27.8807 37.8184 27.9618 37.9575C28.1016 38.1961 28.2316 38.4405 28.3675 38.681C28.433 38.7969 28.5044 38.9109 28.5875 39.051C27.9208 39.4606 27.2248 39.7697 26.516 40.0469C24.1455 40.9704 21.6752 41.3046 19.1492 41.0815C16.8509 40.8776 14.6769 40.2179 12.6582 39.0626C12.8997 38.6385 13.1265 38.2415 13.3669 37.8223Z" fill="url(#paint7_linear_231_123)"/>
<path id="Vector_9" d="M16.9473 25.6885C16.9473 25.2162 16.9473 24.7844 16.9473 24.3178C17.0411 24.2956 17.1379 24.255 17.2356 24.2521C17.5436 24.2434 17.8515 24.2454 18.1594 24.2502C18.3755 24.2531 18.4077 24.2898 18.4087 24.5071C18.4107 24.8433 18.4116 25.1795 18.4087 25.5156C18.4068 25.704 18.3696 25.7436 18.1839 25.7465C17.8593 25.7513 17.5358 25.7513 17.2112 25.7455C17.1271 25.7446 17.044 25.7108 16.9473 25.6885Z" fill="url(#paint8_linear_231_123)"/>
<path id="Vector_10" d="M19.8848 25.6819C19.8848 25.2163 19.8848 24.7912 19.8848 24.3614C19.9591 24.2793 20.0539 24.2503 20.1643 24.2503C20.4733 24.2522 20.7822 24.2474 21.0901 24.2522C21.3081 24.2551 21.3452 24.2938 21.3472 24.5063C21.3501 24.8434 21.3501 25.1805 21.3472 25.5177C21.3452 25.7031 21.3052 25.7466 21.1194 25.7495C20.7949 25.7543 20.4693 25.7553 20.1448 25.7476C20.0607 25.7447 19.9776 25.706 19.8848 25.6819Z" fill="url(#paint9_linear_231_123)"/>
<path id="Vector_11" d="M24.2879 25.0177C24.2879 25.1935 24.2918 25.3702 24.2859 25.5461C24.281 25.6842 24.2331 25.7421 24.0982 25.745C23.7414 25.7528 23.3846 25.7528 23.0288 25.745C22.8802 25.7421 22.8206 25.6668 22.8186 25.5113C22.8157 25.1664 22.8157 24.8225 22.8186 24.4777C22.8206 24.3289 22.8821 24.2565 23.0386 24.2526C23.3866 24.2439 23.7356 24.2439 24.0836 24.2526C24.2341 24.2565 24.282 24.3144 24.2859 24.4632C24.2918 24.6496 24.2879 24.8341 24.2879 25.0177Z" fill="url(#paint10_linear_231_123)"/>
</g>
</g>
<defs>
<linearGradient id="paint0_linear_231_123" x1="0" y1="12.3359" x2="10.5403" y2="14.9438" gradientUnits="userSpaceOnUse">
<stop stop-color="#5E1914"/>
<stop offset="1" stop-color="#021624"/>
</linearGradient>
<linearGradient id="paint1_linear_231_123" x1="8.33984" y1="12.7363" x2="32.6271" y2="37.3045" gradientUnits="userSpaceOnUse">
<stop stop-color="#5E1914"/>
<stop offset="1" stop-color="#021624"/>
</linearGradient>
<linearGradient id="paint2_linear_231_123" x1="34.0332" y1="13.3027" x2="54.7151" y2="28.5583" gradientUnits="userSpaceOnUse">
<stop stop-color="#5E1914"/>
<stop offset="1" stop-color="#021624"/>
</linearGradient>
<linearGradient id="paint3_linear_231_123" x1="12.5098" y1="16.8867" x2="28.5249" y2="33.1008" gradientUnits="userSpaceOnUse">
<stop stop-color="#5E1914"/>
<stop offset="1" stop-color="#021624"/>
</linearGradient>
<linearGradient id="paint4_linear_231_123" x1="9.41211" y1="5" x2="11.1968" y2="13.757" gradientUnits="userSpaceOnUse">
<stop stop-color="#5E1914"/>
<stop offset="1" stop-color="#021624"/>
</linearGradient>
<linearGradient id="paint5_linear_231_123" x1="9.41211" y1="40.4414" x2="11.1937" y2="49.1977" gradientUnits="userSpaceOnUse">
<stop stop-color="#5E1914"/>
<stop offset="1" stop-color="#021624"/>
</linearGradient>
<linearGradient id="paint6_linear_231_123" x1="12.6641" y1="8.86133" x2="13.9795" y2="15.198" gradientUnits="userSpaceOnUse">
<stop stop-color="#5E1914"/>
<stop offset="1" stop-color="#021624"/>
</linearGradient>
<linearGradient id="paint7_linear_231_123" x1="12.6582" y1="37.8223" x2="13.9891" y2="44.1963" gradientUnits="userSpaceOnUse">
<stop stop-color="#5E1914"/>
<stop offset="1" stop-color="#021624"/>
</linearGradient>
<linearGradient id="paint8_linear_231_123" x1="16.9473" y1="24.2461" x2="18.4506" y2="25.7088" gradientUnits="userSpaceOnUse">
<stop stop-color="#5E1914"/>
<stop offset="1" stop-color="#021624"/>
</linearGradient>
<linearGradient id="paint9_linear_231_123" x1="19.8848" y1="24.25" x2="21.3875" y2="25.7141" gradientUnits="userSpaceOnUse">
<stop stop-color="#5E1914"/>
<stop offset="1" stop-color="#021624"/>
</linearGradient>
<linearGradient id="paint10_linear_231_123" x1="22.8164" y1="24.2461" x2="24.3208" y2="25.7185" gradientUnits="userSpaceOnUse">
<stop stop-color="#5E1914"/>
<stop offset="1" stop-color="#021624"/>
</linearGradient>
<clipPath id="clip0_231_123">
<rect width="50" height="50" fill="white"/>
</clipPath>
</defs>
</svg>
