<svg width="84" height="56" viewBox="0 0 84 56" fill="none" xmlns="http://www.w3.org/2000/svg">
<g id="Group 2">
<g id="Group">
<g id="Clip path group">
<mask id="mask0_0_370" style="mask-type:luminance" maskUnits="userSpaceOnUse" x="0" y="21" width="46" height="8">
<g id="SVGID_2_">
<path id="Vector" d="M45.1932 21.5442H0V28.4803H45.1932V21.5442Z" fill="white"/>
</g>
</mask>
<g mask="url(#mask0_0_370)">
<path id="Vector_2" d="M3.38798 22.4522H0.420621C0.224948 22.4522 0.121907 22.3063 0.110458 22.0146C0.110458 21.7293 0.21454 21.5866 0.420621 21.5866H4.0999C4.28413 21.5866 4.42672 21.6164 4.52768 21.676C4.62864 21.7367 4.6838 21.8187 4.69525 21.9209C4.70045 22.0178 4.69941 22.1104 4.69213 22.1988C4.68276 22.2882 4.66194 22.3553 4.62864 22.4011L1.32613 27.5369H4.36011C4.56723 27.5369 4.67027 27.6764 4.67027 27.9574C4.68068 28.2545 4.57764 28.4035 4.36011 28.4035H0.605886C0.236397 28.4035 0.0386419 28.2896 0.0105398 28.0607C-0.000909116 27.9638 -0.000909116 27.8733 0.0105398 27.7903C0.0219888 27.7083 0.0438459 27.6433 0.077152 27.5976C0.178111 27.4379 0.283233 27.2718 0.392519 27.1004C0.500764 26.929 0.622539 26.7405 0.756804 26.5351C0.891069 26.3296 1.04095 26.0975 1.20644 25.8409C1.37088 25.5833 1.55927 25.2905 1.7716 24.9615C1.98392 24.6336 2.22331 24.2642 2.48872 23.8522C2.75309 23.4391 3.05284 22.9728 3.38798 22.4522ZM9.1541 28.4024H6.08682C5.87969 28.4024 5.74023 28.3481 5.66737 28.2395C5.59555 28.131 5.55808 28.0106 5.55808 27.8797V22.1019C5.55808 21.971 5.59451 21.8517 5.66737 21.7452C5.74023 21.6399 5.87969 21.5877 6.08682 21.5877H9.00318C9.2103 21.5877 9.31855 21.7303 9.33 22.0157C9.34144 22.3074 9.23216 22.4532 9.00318 22.4532H6.5479V27.5369H9.1541C9.36122 27.5369 9.46738 27.6764 9.47259 27.9574C9.48404 28.2545 9.37787 28.4024 9.1541 28.4024ZM8.69302 24.8529C8.69302 25.0531 8.62432 25.2213 8.48694 25.3586C8.35059 25.496 8.1851 25.5641 7.98943 25.5641C7.79896 25.5641 7.63763 25.4949 7.50337 25.3586C7.3691 25.2224 7.30249 25.0531 7.30249 24.8529C7.30249 24.6528 7.37014 24.4846 7.50337 24.3472C7.63763 24.2099 7.79896 24.1418 7.98943 24.1418C8.1851 24.1418 8.35059 24.2099 8.48694 24.3472C8.62432 24.4846 8.69302 24.6528 8.69302 24.8529ZM14.3322 28.2906L12.7501 25.5726H12.1038C12.0101 25.5726 11.9362 25.5332 11.8821 25.4555C11.828 25.3789 11.8019 25.2745 11.8019 25.1436C11.8019 24.8519 11.9195 24.706 12.1537 24.706H13.1363C13.3423 24.706 13.487 24.6453 13.5703 24.5261C13.6535 24.4058 13.6962 24.2748 13.6962 24.1311V23.0249C13.6962 22.8823 13.6535 22.7503 13.5703 22.631C13.487 22.5107 13.3413 22.4511 13.1363 22.4511H11.3679V28.0405C11.3679 28.3151 11.2024 28.4525 10.8735 28.4525C10.5425 28.4525 10.3771 28.3151 10.3771 28.0405V22.0998C10.3771 21.8943 10.4291 21.757 10.5332 21.6878C10.6362 21.6196 10.7611 21.5856 10.9068 21.5856H13.3455C13.4891 21.5856 13.64 21.6164 13.7982 21.6792C13.9533 21.7421 14.1042 21.8219 14.2489 21.9199H14.2406C14.3852 22.0284 14.4976 22.17 14.5757 22.3446C14.6538 22.5182 14.6933 22.7194 14.6933 22.9483V24.1992C14.6933 24.6624 14.5424 25.0084 14.2406 25.2373C14.1792 25.283 14.1136 25.3256 14.0438 25.3661C13.9731 25.4065 13.9023 25.4459 13.8294 25.4864L15.171 27.7498C15.1877 27.7786 15.2054 27.8158 15.2231 27.8616C15.2397 27.9074 15.2481 27.9446 15.2481 27.9734C15.2481 28.1107 15.1523 28.2417 14.9618 28.3673V28.3588C14.8349 28.4386 14.7256 28.478 14.6371 28.478C14.507 28.478 14.4029 28.412 14.3249 28.2811L14.3322 28.2906ZM17.3672 21.5866H19.1948C19.3406 21.5866 19.4915 21.6175 19.6476 21.6803C19.8037 21.7431 19.9546 21.823 20.1003 21.9209H20.092C20.2377 22.0295 20.3491 22.1711 20.4272 22.3457C20.5052 22.5192 20.5437 22.7205 20.5437 22.9494V27.0216C20.5437 27.4847 20.3928 27.8307 20.091 28.0586C19.9463 28.1671 19.7964 28.2513 19.6434 28.3109C19.4894 28.3716 19.3395 28.4024 19.1938 28.4024H17.3661C17.2215 28.4024 17.0716 28.3716 16.9186 28.3109C16.7645 28.2513 16.6147 28.1671 16.4689 28.0586C16.3243 27.9446 16.2119 27.803 16.1338 27.6348C16.0557 27.4656 16.0162 27.2611 16.0162 27.0205V22.9483C16.0162 22.7194 16.0557 22.5182 16.1338 22.3446C16.2119 22.17 16.3232 22.0284 16.4689 21.9199H16.4606C16.6053 21.823 16.7562 21.7431 16.9134 21.6792C17.0705 21.6175 17.2215 21.5866 17.3672 21.5866ZM17.5764 27.5369H18.9846C19.1907 27.5369 19.3364 27.4762 19.4207 27.357C19.504 27.2367 19.5466 27.1025 19.5466 26.9535V23.0271C19.5466 22.8844 19.505 22.7524 19.4207 22.6332C19.3374 22.5129 19.1917 22.4532 18.9846 22.4532H17.5764C17.3703 22.4532 17.2246 22.5129 17.1403 22.6332C17.057 22.7524 17.0143 22.8844 17.0143 23.0271V26.9535C17.0143 27.1014 17.056 27.2367 17.1403 27.357C17.2246 27.4762 17.3692 27.5369 17.5764 27.5369ZM28.1115 28.4024H24.8517C24.6445 28.4024 24.5051 28.3481 24.4322 28.2395C24.3594 28.131 24.3229 28.0106 24.3229 27.8797V21.956C24.3229 21.6814 24.4843 21.5451 24.809 21.5451C25.1441 21.5451 25.3117 21.6824 25.3117 21.956V27.5379H28.1115C28.3124 27.5379 28.4133 27.6774 28.4133 27.9585C28.4248 28.2544 28.3238 28.4024 28.1115 28.4024ZM33.2334 28.1884L31.389 22.4277L29.5541 28.1884V28.1799C29.5208 28.2651 29.4739 28.3354 29.4146 28.3886C29.3574 28.444 29.2855 28.4706 29.2023 28.4706C29.1575 28.4706 29.1138 28.4663 29.0711 28.4589C29.0305 28.4493 28.9868 28.4397 28.9421 28.428H28.9504C28.6319 28.3247 28.5143 28.1427 28.5986 27.8786L30.5095 21.9369C30.5376 21.8453 30.5855 21.7687 30.6553 21.7059C30.726 21.643 30.8083 21.6058 30.903 21.5941C30.9977 21.577 31.0903 21.5632 31.1798 21.5547C31.2693 21.5472 31.3391 21.543 31.389 21.543C31.439 21.543 31.5098 21.5472 31.5993 21.5547C31.6888 21.5643 31.7804 21.5738 31.8761 21.5856C31.9542 21.5962 32.0312 21.6399 32.1062 21.7144C32.1821 21.7889 32.2394 21.8624 32.2789 21.9369C32.5912 22.9195 32.9086 23.9097 33.2292 24.9062C33.5508 25.9048 33.8683 26.8949 34.1815 27.8776C34.2596 28.1405 34.142 28.3237 33.8297 28.4269C33.785 28.4386 33.7444 28.4482 33.708 28.4578C33.6726 28.4652 33.632 28.4695 33.5872 28.4695C33.5092 28.4695 33.4374 28.4418 33.3728 28.3875C33.3093 28.3343 33.2635 28.264 33.2354 28.1789V28.1884H33.2334ZM32.0177 26.336C32.0177 26.518 31.9542 26.6745 31.8283 26.8023C31.7034 26.9322 31.5514 26.996 31.3724 26.996C31.1934 26.996 31.0424 26.9322 30.9196 26.8023C30.7968 26.6745 30.7354 26.5191 30.7354 26.336C30.7354 26.1529 30.7968 25.9974 30.9196 25.8675C31.0424 25.7398 31.1934 25.6748 31.3724 25.6748C31.5514 25.6748 31.7034 25.7387 31.8283 25.8675C31.9542 25.9974 32.0177 26.1539 32.0177 26.336ZM38.4114 26.9535V25.8643C38.4114 25.7334 38.3635 25.6056 38.2688 25.4821C38.1741 25.3597 38.0065 25.2905 37.7661 25.2735C37.61 25.4683 37.4195 25.5652 37.1957 25.5652C37.0053 25.5652 36.8439 25.496 36.7097 25.3597C36.5754 25.2234 36.5088 25.0541 36.5088 24.854C36.5088 24.6538 36.5765 24.4856 36.7097 24.3483C36.8439 24.211 37.0053 24.1428 37.1957 24.1428C37.2957 24.1428 37.3956 24.1716 37.4944 24.228C37.5912 24.2855 37.6797 24.3536 37.7578 24.4335C37.8806 24.4271 37.9753 24.4079 38.043 24.3738C38.1096 24.3398 38.1595 24.2983 38.1908 24.2482C38.2209 24.2003 38.2386 24.1449 38.2449 24.0821C38.2501 24.0193 38.2532 23.9565 38.2532 23.8937V23.0281C38.2532 22.8855 38.2105 22.7535 38.1241 22.6342C38.0367 22.5139 37.89 22.4543 37.6828 22.4543H35.9311L35.9228 28.1129C35.9228 28.2268 35.8718 28.3141 35.7688 28.3737C35.6647 28.4344 35.5513 28.4642 35.4284 28.4642C35.0985 28.4642 34.934 28.3268 34.934 28.0532V22.103C34.934 21.8975 34.9861 21.7602 35.0902 21.691C35.1932 21.6228 35.3171 21.5887 35.4617 21.5887H37.8931C38.0378 21.5887 38.1939 21.6164 38.3594 21.6739C38.5238 21.7314 38.6789 21.8081 38.8236 21.9049H38.8152C38.961 22.0135 39.0682 22.1562 39.1389 22.334C39.2087 22.5107 39.243 22.7173 39.243 22.9515V23.9203C39.243 24.1492 39.1951 24.3355 39.1004 24.4814C39.0057 24.6283 38.9048 24.7443 38.7986 24.8295C38.8714 24.8753 38.9412 24.9221 39.0088 24.97C39.0765 25.019 39.1316 25.0722 39.1764 25.1297C39.2493 25.2096 39.3065 25.3043 39.3492 25.4129C39.3898 25.5215 39.4106 25.6503 39.4106 25.7994V27.0248C39.4106 27.4932 39.2316 27.8392 38.8746 28.0617C38.6955 28.1757 38.5269 28.2619 38.3687 28.3194C38.2085 28.3769 38.0502 28.4046 37.8941 28.4046H36.6535C36.5577 28.4046 36.4849 28.3641 36.4318 28.2843C36.3787 28.2044 36.3516 28.099 36.3516 27.967C36.3516 27.6817 36.4682 27.539 36.7034 27.539H37.8514C38.0586 27.539 38.2032 27.4783 38.2875 27.3591C38.3687 27.2367 38.4114 27.1025 38.4114 26.9535ZM42.225 24.476H43.8424C43.9881 24.476 44.138 24.508 44.2951 24.5708C44.4513 24.6336 44.6022 24.7167 44.7479 24.8199H44.7396C44.8853 24.9221 44.9966 25.0627 45.0747 25.2405C45.1528 25.4172 45.1923 25.6205 45.1923 25.8494V27.0237C45.1923 27.4868 45.0414 27.8329 44.7396 28.0607C44.5949 28.1693 44.445 28.2534 44.292 28.313C44.138 28.3737 43.9881 28.4046 43.8424 28.4046H42.0157C41.87 28.4046 41.7212 28.3737 41.5682 28.313C41.4142 28.2534 41.2643 28.1693 41.1186 28.0607C40.8167 27.8329 40.6658 27.4868 40.6658 27.0237V26.4573C40.6658 26.1891 40.8313 26.0538 41.1602 26.0538C41.4953 26.0538 41.6629 26.188 41.6629 26.4573V26.9545C41.6629 27.1025 41.7045 27.2377 41.7889 27.358C41.8721 27.4773 42.0178 27.5379 42.225 27.5379H43.6332C43.8403 27.5379 43.985 27.4773 44.0693 27.358C44.1536 27.2377 44.1952 27.1036 44.1952 26.9545V25.9165C44.1952 25.7738 44.1536 25.6408 44.0693 25.5173C43.986 25.3948 43.8403 25.3341 43.6332 25.3341H42.0157C41.7254 25.3341 41.4266 25.2256 41.1186 25.0084C40.8167 24.7688 40.6658 24.4228 40.6658 23.9714V22.9515C40.6658 22.7226 40.7054 22.5214 40.7834 22.3478C40.8615 22.1732 40.9729 22.0316 41.1186 21.923H41.1102C41.256 21.8262 41.4058 21.7463 41.563 21.6824C41.7191 21.6196 41.87 21.5887 42.0157 21.5887H43.8424C43.9881 21.5887 44.138 21.6196 44.2951 21.6824C44.4513 21.7452 44.6022 21.8251 44.7479 21.923H44.7396C44.8853 22.0316 44.9966 22.1732 45.0747 22.3478C45.1528 22.5214 45.1923 22.7226 45.1923 22.9515V23.4572C45.1923 23.7255 45.0247 23.8607 44.6896 23.8607C44.3597 23.8607 44.1952 23.7265 44.1952 23.4572V23.0281C44.1952 22.8855 44.1536 22.7535 44.0693 22.6342C43.986 22.5139 43.8403 22.4543 43.6332 22.4543H42.225C42.0178 22.4543 41.8732 22.5139 41.7889 22.6342C41.7056 22.7535 41.6629 22.8855 41.6629 23.0281V23.9022C41.6629 24.0502 41.7045 24.1833 41.7889 24.2993C41.8721 24.4175 42.0178 24.476 42.225 24.476Z" fill="#021624"/>
</g>
</g>
</g>
<path id="Vector_3" d="M2.62077 30.4114V30.9171H1.6039V34.3751H1.01167V30.9171H0V30.4114H2.62077ZM7.12958 32.3746V34.374H6.5665V32.4928C6.5665 32.2884 6.5155 32.1308 6.41454 32.019C6.31254 31.9072 6.17932 31.8519 6.01487 31.8519C5.82336 31.8519 5.65475 31.9264 5.50695 32.0755C5.35916 32.2245 5.28526 32.4523 5.28526 32.7579V34.3751H4.72218V30.2177H5.28526V31.9051C5.44971 31.5368 5.7505 31.3526 6.18764 31.3526C6.47075 31.3526 6.69868 31.442 6.87146 31.623C7.04423 31.8029 7.12958 32.0531 7.12958 32.3746ZM11.6405 33.698V34.2154C11.4261 34.341 11.1419 34.4038 10.7901 34.4038C10.3374 34.4038 9.97725 34.2654 9.70976 33.9865C9.44123 33.7076 9.30697 33.3434 9.30697 32.8931C9.30697 32.4151 9.42978 32.0393 9.67541 31.7667C9.92105 31.4952 10.2333 31.359 10.6121 31.359C10.9837 31.359 11.2793 31.4771 11.4979 31.7145C11.7165 31.952 11.8257 32.2948 11.8257 32.7409C11.8257 32.8622 11.8143 32.99 11.7914 33.1231H9.87525C9.91376 33.3818 10.021 33.5798 10.1969 33.7171C10.3738 33.8545 10.5955 33.9226 10.864 33.9226C11.1742 33.9215 11.4334 33.847 11.6405 33.698ZM10.6226 31.8338C10.431 31.8338 10.2656 31.9051 10.1282 32.0478C9.98974 32.1915 9.90335 32.398 9.87005 32.6685H11.2783V32.562C11.271 32.3384 11.2117 32.1617 11.1003 32.0297C10.9889 31.8987 10.8297 31.8338 10.6226 31.8338ZM17.7084 30.4114V34.374H17.1224V30.4114H17.7084ZM22.5576 32.3576V34.3751H21.9945V32.4928C21.9945 32.2852 21.9435 32.1266 21.8415 32.0158C21.7405 31.9062 21.6052 31.8508 21.4366 31.8508C21.2378 31.8508 21.0671 31.9307 20.9256 32.0882C20.784 32.2469 20.7133 32.4704 20.7133 32.7558V34.3729H20.1502V31.392H20.7133V31.9041C20.886 31.5357 21.1889 31.3515 21.6219 31.3515C21.9092 31.3515 22.1371 31.4409 22.3057 31.6219C22.4743 31.8029 22.5576 32.0478 22.5576 32.3576ZM26.3139 31.393V31.8402H25.6988V34.374H25.1357V31.8402H24.6704V31.393H25.1357V31.1631C25.1357 30.8533 25.2179 30.6095 25.3803 30.4317C25.5426 30.2528 25.7716 30.1634 26.0662 30.1634C26.1734 30.1634 26.2827 30.1783 26.394 30.2102V30.7159C26.3056 30.6765 26.214 30.6574 26.1182 30.6574C25.8382 30.6574 25.6988 30.8277 25.6988 31.1695V31.393H26.3139ZM28.9836 31.393V34.374H28.4142V31.393H28.9836ZM29.0523 30.4817C29.0523 30.5796 29.0179 30.6637 28.9482 30.7351C28.8795 30.8053 28.7952 30.8415 28.6953 30.8415C28.5953 30.8415 28.5121 30.8064 28.4455 30.7383C28.3789 30.6701 28.3445 30.585 28.3445 30.4828C28.3445 30.3806 28.3778 30.2943 28.4455 30.2241C28.5121 30.1538 28.5953 30.1187 28.6953 30.1187C28.7952 30.1187 28.8795 30.1538 28.9482 30.2241C29.0179 30.2933 29.0523 30.3795 29.0523 30.4817ZM33.7869 32.3576V34.3751H33.2239V32.4928C33.2239 32.2852 33.1728 32.1266 33.0709 32.0158C32.9699 31.9062 32.8346 31.8508 32.666 31.8508C32.4672 31.8508 32.2965 31.9307 32.1549 32.0882C32.0134 32.2469 31.9426 32.4704 31.9426 32.7558V34.3729H31.3795V31.392H31.9426V31.9041C32.1154 31.5357 32.4172 31.3515 32.8502 31.3515C33.1375 31.3515 33.3654 31.4409 33.534 31.6219C33.7026 31.8029 33.7869 32.0478 33.7869 32.3576ZM36.7147 31.393V34.374H36.1454V31.393H36.7147ZM36.7834 30.4817C36.7834 30.5796 36.7491 30.6637 36.6794 30.7351C36.6107 30.8053 36.5264 30.8415 36.4264 30.8415C36.3265 30.8415 36.2433 30.8064 36.1766 30.7383C36.11 30.6701 36.0757 30.585 36.0757 30.4828C36.0757 30.3806 36.109 30.2943 36.1766 30.2241C36.2433 30.1538 36.3265 30.1187 36.4264 30.1187C36.5264 30.1187 36.6107 30.1538 36.6794 30.2241C36.7491 30.2933 36.7834 30.3795 36.7834 30.4817ZM40.6376 33.7799V34.2974C40.5106 34.3676 40.3555 34.4028 40.1723 34.4028C39.5707 34.4028 39.2699 34.0908 39.2699 33.468V31.8391H38.8161V31.392H39.2699V30.6627H39.8393V31.392H40.6032V31.8391H39.8393V33.4797C39.8393 33.7661 39.9735 33.9088 40.241 33.9088C40.3982 33.9098 40.5304 33.8662 40.6376 33.7799ZM45.009 33.698V34.2154C44.7946 34.341 44.5115 34.4038 44.1586 34.4038C43.7069 34.4038 43.3468 34.2654 43.0783 33.9865C42.8098 33.7076 42.6755 33.3434 42.6755 32.8931C42.6755 32.4151 42.7983 32.0393 43.0439 31.7667C43.2896 31.4952 43.6018 31.359 43.9807 31.359C44.3522 31.359 44.6478 31.4771 44.8654 31.7145C45.0839 31.952 45.1932 32.2948 45.1932 32.7409C45.1932 32.8622 45.1818 32.99 45.1589 33.1231H43.2448C43.2833 33.3818 43.3905 33.5798 43.5664 33.7171C43.7423 33.8545 43.9651 33.9226 44.2336 33.9226C44.5438 33.9215 44.8019 33.847 45.009 33.698ZM43.9921 31.8338C43.8006 31.8338 43.6351 31.9051 43.4977 32.0478C43.3603 32.1915 43.274 32.398 43.2386 32.6685H44.6468V32.562C44.6395 32.3384 44.5802 32.1617 44.4678 32.0297C44.3574 31.8987 44.1992 31.8338 43.9921 31.8338Z" fill="#5E1914"/>
<g id="Group_2">
<g id="Clip path group_2">
<mask id="mask1_0_370" style="mask-type:luminance" maskUnits="userSpaceOnUse" x="46" y="19" width="19" height="18">
<g id="SVGID_4_">
<path id="Vector_4" d="M64.1683 19.0879H46.7939V36.8599H64.1683V19.0879Z" fill="white"/>
</g>
</mask>
<g mask="url(#mask1_0_370)">
<path id="Vector_5" d="M63.9369 19.3242C63.6278 19.0091 63.1293 19.0091 62.8202 19.3242L59.3511 22.8727C58.2822 22.022 56.9416 21.511 55.4814 21.511C51.9926 21.511 49.1636 24.4047 49.1636 27.9734C49.1636 29.4671 49.6632 30.8383 50.4948 31.9317L47.0258 35.4801C46.7167 35.7953 46.7167 36.3063 47.0258 36.6225C47.1798 36.7801 47.3817 36.8599 47.5837 36.8599C47.7856 36.8599 47.9885 36.7801 48.1415 36.6225L51.6106 33.0741C52.6805 33.9247 54.0201 34.4357 55.4803 34.4357C58.9691 34.4357 61.7981 31.542 61.7981 27.9734C61.7981 26.4797 61.2985 25.1095 60.4669 24.015L63.9359 20.4666C64.245 20.1504 64.245 19.6404 63.9369 19.3242ZM50.7425 27.9734C50.7425 25.3001 52.8679 23.1261 55.4803 23.1261C56.5024 23.1261 57.4464 23.4625 58.2218 24.0268L51.6231 30.7766C51.0714 29.9845 50.7425 29.0188 50.7425 27.9734ZM60.2192 27.9734C60.2192 30.6456 58.0938 32.8196 55.4803 32.8196C54.4582 32.8196 53.5142 32.4832 52.7388 31.9189L59.3376 25.1691C59.8913 25.9623 60.2192 26.9279 60.2192 27.9734Z" fill="#5E1914"/>
</g>
</g>
</g>
<g id="Group_3">
<g id="Clip path group_3">
<mask id="mask2_0_370" style="mask-type:luminance" maskUnits="userSpaceOnUse" x="29" y="0" width="55" height="56">
<g id="SVGID_6_">
<path id="Vector_6" d="M84.0003 0H29.5459V56H84.0003V0Z" fill="white"/>
</g>
</mask>
<g mask="url(#mask2_0_370)">
<path id="Vector_7" d="M29.5762 17.4763V0.0534668H84.0004V55.8959H29.5762V38.471H30.1882V55.2699H83.3894V0.67841H30.1882V17.4773H29.5762V17.4763Z" fill="#021624"/>
</g>
</g>
</g>
</g>
</svg>
