<svg width="60" height="60" viewBox="0 0 60 60" fill="none" xmlns="http://www.w3.org/2000/svg">
<g id="Frame" clip-path="url(#clip0_0_709)">
<g id="Group">
<path id="Vector" d="M13.2139 35.7124C12.8007 35.738 12.4357 35.6812 12.085 35.8218C12.0523 35.8345 12.0168 35.8445 11.9827 35.8473C11.5056 35.9041 11.0256 35.9524 10.5499 36.0205C10.0528 36.0915 9.56005 36.1824 9.06445 36.2648C9.04172 36.269 9.01758 36.2747 8.99486 36.2761C8.50635 36.3329 8.015 36.3798 7.52791 36.4479C7.04224 36.5161 6.56084 36.6069 6.07659 36.6879C6.05387 36.6921 6.02972 36.6978 6.007 36.7007C5.51849 36.7575 5.02714 36.8043 4.54006 36.8739C4.05439 36.9435 3.57298 37.0343 3.08873 37.1152C3.06601 37.1195 3.04187 37.1238 3.01914 37.1266C2.53064 37.1834 2.03929 37.2331 1.5522 37.2984C1.06653 37.3637 0.582279 37.4447 0.0767292 37.5227C-0.0681194 37.314 0.0270262 37.0798 0.0795694 36.8625C0.196016 36.3741 0.328084 35.8885 0.472933 35.4072C0.630562 34.8832 0.802392 34.3622 0.979903 33.8439C1.17303 33.2817 1.36617 32.7194 1.5806 32.1657C1.86604 31.4287 2.13443 30.6819 2.47525 29.9706C2.9524 28.9767 3.46931 27.9998 4.00752 27.0372C4.84111 25.5463 5.86073 24.1889 6.99396 22.9111C7.72389 22.0876 8.5802 21.4415 9.58278 21.0099C10.0557 20.8069 10.5442 20.6209 11.0639 20.53C11.6604 20.4249 12.2483 20.2773 12.8405 20.148C12.8632 20.1424 12.8873 20.1424 12.9115 20.1409C14.1938 20.0515 15.4747 19.9251 16.7627 20.0089C17.0311 20.0259 17.2981 20.0756 17.5665 20.1097C17.7184 20.1282 17.8306 20.0856 17.9258 19.9493C19.2465 18.0708 20.9293 16.5359 22.6277 15.0167C24.0762 13.719 25.6056 12.522 27.1805 11.3847C28.5963 10.3624 30.0576 9.40689 31.5671 8.53084C32.858 7.78258 34.1772 7.08117 35.505 6.40106C36.3528 5.96659 37.2361 5.60311 38.108 5.21549C38.8337 4.89318 39.5593 4.57514 40.2935 4.27413C40.7309 4.09523 41.1853 3.96034 41.6284 3.79706C42.0828 3.62952 42.5302 3.44352 42.9874 3.28449C43.3481 3.15955 43.7202 3.06584 44.0837 2.95083C44.4473 2.83582 44.8066 2.70803 45.1673 2.58877C45.3547 2.52629 45.5407 2.4624 45.731 2.41271C46.1571 2.30196 46.5873 2.20825 47.0134 2.09182C47.4493 1.97255 47.8768 1.82773 48.3142 1.7113C48.5953 1.63605 48.885 1.59913 49.1691 1.53382C49.4744 1.46425 49.7769 1.37906 50.0807 1.3038C50.3179 1.24559 50.5551 1.18454 50.7951 1.14052C51.1387 1.07663 51.4866 1.03119 51.8303 0.967299C52.2194 0.894887 52.6057 0.809696 52.9933 0.728765C53.0161 0.724505 53.0388 0.714566 53.0615 0.711727C53.4918 0.654933 53.9221 0.605238 54.3509 0.542764C54.8835 0.466093 55.4132 0.378062 55.9443 0.295711C55.9798 0.290031 56.0139 0.284352 56.0494 0.282932C56.8006 0.227558 57.5518 0.175023 58.303 0.11539C58.6552 0.0869927 59.0046 0.0344583 59.3567 0.0160002C59.8367 -0.00955706 60.0639 -0.111786 59.9816 0.602398C59.9503 0.872169 59.9376 1.14336 59.9177 1.41455C59.8595 2.22671 59.8154 3.04028 59.7373 3.84959C59.689 4.35222 59.5825 4.84917 59.5101 5.34895C59.4448 5.80331 59.3979 6.2605 59.3269 6.71343C59.2659 7.10673 59.1835 7.49861 59.1068 7.89049C59.0486 8.19007 58.9833 8.48824 58.925 8.78783C58.8171 9.34015 58.7291 9.89673 58.6013 10.4448C58.445 11.1164 58.2562 11.7809 58.0801 12.4482C57.8799 13.205 57.6952 13.9674 57.4695 14.7171C57.2266 15.5208 56.9497 16.3145 56.6785 17.1081C56.4299 17.8351 56.1928 18.5678 55.9074 19.2805C55.4799 20.3482 55.0368 21.4117 54.5597 22.4581C54.0556 23.567 53.5259 24.666 52.9649 25.7465C52.4196 26.7958 51.8402 27.8266 51.2395 28.846C50.4159 30.2446 49.5127 31.5935 48.5655 32.9125C46.7336 35.4625 44.71 37.8465 42.4847 40.0614C41.7406 40.8026 40.9326 41.4657 40.0848 42.0833C39.947 42.1841 39.9016 42.2821 39.9115 42.4326C39.9243 42.6214 39.9286 42.8103 39.9499 42.9977C40.0535 43.9405 40.0692 44.8832 39.9456 45.826C39.9328 45.9197 39.9257 46.0149 39.9243 46.1086C39.9172 46.9491 39.7724 47.7755 39.5892 48.5891C39.3946 49.4509 39.1078 50.2858 38.6789 51.0724C38.25 51.859 37.6777 52.5135 37.0117 53.0985C36.215 53.7985 35.39 54.4587 34.5067 55.0508C33.5907 55.6642 32.6549 56.2406 31.6651 56.7305C30.9252 57.0968 30.1882 57.4688 29.437 57.8081C28.9144 58.0438 28.3691 58.2327 27.8323 58.4371C27.2401 58.6629 26.6508 58.8957 26.0529 59.103C25.6823 59.2322 25.2946 59.3146 24.9183 59.4268C24.5079 59.5489 24.1046 59.6937 23.6927 59.8044C23.3789 59.8882 23.0551 59.9393 22.7328 59.9933C22.6589 60.0061 22.578 59.9762 22.4828 59.9635C22.5581 59.5006 22.6376 59.0633 22.7015 58.6231C22.7654 58.1801 22.8109 57.7357 22.8748 57.2927C22.9515 56.7575 23.0367 56.2236 23.119 55.6897C23.1261 55.6429 23.1361 55.5974 23.1417 55.5506C23.2 55.0593 23.2468 54.5666 23.3178 54.0782C23.4357 53.276 23.5749 52.4766 23.6956 51.6744C23.7637 51.22 23.8078 50.7628 23.8717 50.3085C23.9441 49.7959 24.0336 49.2862 24.1017 48.7736C24.1812 48.1787 24.2466 47.5824 24.3147 46.986C24.3204 46.942 24.2963 46.8966 24.2764 46.8015C24.1543 46.8015 24.0279 46.8015 23.9029 46.8015C22.9216 46.8015 21.9404 46.7958 20.9591 46.8057C20.7546 46.8086 20.6126 46.7404 20.472 46.5998C18.1246 44.2472 15.7743 41.8973 13.4213 39.5503C13.2707 39.4012 13.2083 39.2422 13.2097 39.0278C13.2196 38.0708 13.2139 37.1138 13.2139 36.1554C13.2139 36.0305 13.2139 35.9027 13.2139 35.7124ZM45.0082 19.9067C45.0125 17.0897 42.746 14.8861 40.0052 14.8918C37.2716 14.8974 34.998 17.0386 35.0009 19.8982C35.0051 22.8159 37.2574 24.8989 39.9896 24.9173C42.7247 24.9344 45.0025 22.7563 45.0082 19.9067Z" fill="url(#paint0_linear_0_709)"/>
<path id="Vector_2" d="M9.85807 50.1698C12.0876 51.0232 14.0303 50.7789 15.5427 48.7784C16.0539 49.2782 16.5509 49.7666 17.048 50.2522C16.7355 51.1126 16.2982 51.8665 15.6492 52.4913C15.2686 52.8576 14.8184 53.1146 14.3399 53.3091C13.8173 53.5207 13.2776 53.6953 12.7366 53.8572C12.4369 53.9466 12.1174 53.975 11.8078 54.0332C11.3847 54.1142 10.9615 54.1965 10.5369 54.2774C10.49 54.286 10.4431 54.2916 10.3963 54.2945C9.56269 54.3541 8.72484 54.3811 7.89693 54.4833C7.22665 54.5657 6.55779 54.5785 5.88609 54.587C5.75687 54.5884 5.62764 54.587 5.45581 54.587C5.44587 54.4464 5.42599 54.3215 5.43167 54.1979C5.46433 53.4199 5.50409 52.6418 5.53959 51.8637C5.54953 51.6507 5.54811 51.4377 5.56657 51.2262C5.61912 50.627 5.65462 50.025 5.74408 49.4315C5.85343 48.7131 5.98124 47.9946 6.15449 47.2889C6.35188 46.4853 6.61034 45.6959 7.03636 44.9803C7.45387 44.2803 8.07444 43.7862 8.77739 43.3957C9.03868 43.2509 9.32128 43.143 9.58683 43.0053C9.76861 42.9101 9.84955 43.0592 9.94043 43.143C10.3863 43.5562 10.8209 43.9807 11.3023 44.4436C10.3224 45.0811 9.76292 45.933 9.51441 47.0234C9.26305 48.1224 9.48743 49.1404 9.85807 50.1698Z" fill="url(#paint1_linear_0_709)"/>
</g>
</g>
<defs>
<linearGradient id="paint0_linear_0_709" x1="0" y1="-0.00390625" x2="60.0003" y2="59.9942" gradientUnits="userSpaceOnUse">
<stop stop-color="#021624"/>
<stop offset="1" stop-color="#092030"/>
</linearGradient>
<linearGradient id="paint1_linear_0_709" x1="5.43066" y1="42.9746" x2="17.0437" y2="54.5919" gradientUnits="userSpaceOnUse">
<stop stop-color="#021624"/>
<stop offset="1" stop-color="#092030"/>
</linearGradient>
<clipPath id="clip0_0_709">
<rect width="60" height="60" fill="white"/>
</clipPath>
</defs>
</svg>
