<svg width="50" height="50" viewBox="0 0 50 50" fill="none" xmlns="http://www.w3.org/2000/svg">
<g id="Frame">
<g id="Group">
<path id="Vector" d="M33.1938 40.9544C33.1938 40.3423 33.1938 39.8119 33.1938 39.2953C33.1412 39.2649 33.1135 39.2358 33.0844 39.2344C31.8893 39.1679 31.8533 39.1347 31.6567 37.9368C31.6428 37.8509 31.6207 37.7637 31.6276 37.6792C31.6996 36.7084 31.039 36.3927 30.2787 36.1891C30.1624 36.1587 29.9879 36.2293 29.8799 36.3082C29.4769 36.6046 29.0947 36.93 28.6959 37.2333C28.2458 37.5754 27.8913 37.5657 27.4966 37.1807C26.7917 36.4924 26.102 35.7889 25.4054 35.0923C25.0468 34.7323 25.0066 34.3473 25.3085 33.9304C25.4913 33.6784 25.6395 33.3959 25.8528 33.1743C26.2959 32.709 26.3499 32.2728 26.0563 31.6662C25.832 31.2037 25.5882 31.0167 25.1035 31.0139C24.7435 31.0126 24.382 30.9502 24.022 30.9018C23.4597 30.8242 23.2146 30.5722 23.2077 30.0182C23.1952 29.0156 23.2035 28.013 23.2049 27.0103C23.2063 26.5173 23.4694 26.2459 23.9389 26.1573C24.1591 26.1157 24.3807 26.0534 24.6036 26.052C25.4359 26.0465 26.0245 25.7335 26.1436 24.8444C26.1713 24.6395 26.156 24.3791 26.0508 24.2143C25.8015 23.8238 25.4802 23.4776 25.1977 23.1064C24.8307 22.6259 24.8432 22.2963 25.2587 21.8725C25.9372 21.1815 26.6213 20.4974 27.3124 19.8202C27.7278 19.4117 28.0159 19.3923 28.5075 19.7246C28.9077 19.9961 29.2844 20.3063 29.7013 20.5459C29.8716 20.6428 30.1319 20.6428 30.3369 20.6068C31.226 20.4545 31.4919 19.8451 31.4406 19.0239C31.4392 19.0073 31.4434 18.9893 31.4448 18.9727C31.5722 17.6931 31.6774 17.5975 32.975 17.5975C33.7353 17.5975 34.4956 17.592 35.2559 17.6003C35.9497 17.6072 36.174 17.808 36.289 18.4949C36.3264 18.7165 36.3942 18.938 36.3928 19.1596C36.3859 19.8839 36.6781 20.3146 37.4176 20.5168C37.7943 20.6193 38.038 20.6566 38.3316 20.3728C38.6529 20.0625 39.0213 19.798 39.3786 19.5266C39.7483 19.2441 40.1264 19.2635 40.456 19.5862C41.1983 20.3104 41.9322 21.043 42.6593 21.7825C42.9653 22.0941 42.9875 22.4542 42.741 22.8198C42.5665 23.0774 42.4156 23.3585 42.2023 23.5787C41.7079 24.0869 41.64 24.5855 41.989 25.2308C42.176 25.5756 42.3242 25.7723 42.7285 25.7847C43.1758 25.7986 43.6204 25.8803 44.0663 25.9371C44.5538 25.998 44.8058 26.2819 44.8086 26.7708C44.8141 27.79 44.8127 28.8106 44.8072 29.8299C44.8044 30.2703 44.5745 30.5445 44.1452 30.6303C43.655 30.7287 43.1634 30.8367 42.6676 30.8921C42.3477 30.9281 42.2411 31.0929 42.0818 31.3532C41.647 32.0664 41.8464 32.5677 42.3546 33.1577C43.3642 34.3293 43.3282 34.3597 42.2314 35.4676C41.7328 35.9703 41.2398 36.4799 40.733 36.9757C40.2981 37.4009 39.9893 37.4216 39.4921 37.0851C39.2927 36.9494 39.0739 36.8303 38.905 36.6614C38.3649 36.1268 37.8109 36.0132 37.1213 36.419C36.8388 36.5852 36.6601 36.7195 36.6393 37.0533C36.6158 37.4493 36.5549 37.8426 36.5161 38.2387C36.4441 38.9824 36.2017 39.2122 35.4691 39.2206C35.2642 39.2219 35.0592 39.2206 34.7836 39.2206C34.7836 39.4601 34.7836 39.6623 34.7836 39.8631C34.7836 42.1094 34.7878 44.357 34.7823 46.6032C34.7781 48.722 33.5054 49.9961 31.3991 49.9975C24.0718 49.9988 16.746 49.9988 9.41874 49.9975C7.311 49.9975 6.02725 48.7151 6.02448 46.6129C6.02309 45.0923 6.02309 43.5704 6.02448 42.0498C6.02448 41.1732 6.24467 40.953 7.1282 40.953C15.5786 40.9516 24.0275 40.953 32.4779 40.953C32.6981 40.9544 32.9196 40.9544 33.1938 40.9544ZM39.8868 35.4524C40.3494 35.03 40.78 34.6395 41.2301 34.2296C40.8798 33.7809 40.5571 33.3557 40.222 32.9416C39.9616 32.6204 39.9588 32.3005 40.125 31.9307C40.3784 31.3657 40.6291 30.7951 40.8174 30.2066C40.9656 29.7454 41.2412 29.5294 41.701 29.4657C42.2092 29.3964 42.7133 29.2967 43.2202 29.2095C43.2202 28.5835 43.2202 28.0047 43.2202 27.4133C42.6621 27.3455 42.133 27.2693 41.6026 27.2181C41.1637 27.1765 40.9407 26.9314 40.7953 26.5339C40.5889 25.9689 40.3674 25.4053 40.0959 24.8694C39.891 24.4622 39.9021 24.1202 40.1652 23.7615C40.4795 23.3322 40.7814 22.8959 41.0819 22.4708C40.6416 22.0304 40.2316 21.6191 39.8023 21.1884C39.3827 21.5236 38.9617 21.8518 38.5504 22.1911C38.2167 22.4666 37.8843 22.4708 37.4952 22.288C36.9509 22.0318 36.397 21.7839 35.8251 21.6039C35.3625 21.4585 35.1368 21.187 35.0703 20.7314C35.0066 20.3049 34.9457 19.877 34.8487 19.4574C34.8238 19.3466 34.6742 19.1901 34.5745 19.1846C34.0621 19.1569 33.5484 19.1721 33.0124 19.1721C32.9404 19.7565 32.8684 20.2841 32.8144 20.8131C32.7701 21.2466 32.5347 21.4765 32.1303 21.6191C31.5639 21.8199 31.0044 22.0512 30.4671 22.3198C30.0627 22.522 29.7206 22.5165 29.3606 22.2492C28.934 21.9321 28.4937 21.633 28.0588 21.3255C27.6226 21.7604 27.2113 22.1717 26.7861 22.5968C27.1005 22.9943 27.3996 23.3959 27.7251 23.7753C28.063 24.1686 28.0824 24.5467 27.84 25.0078C27.5852 25.4939 27.3609 26.0077 27.2141 26.5339C27.0714 27.0422 26.7875 27.2887 26.2876 27.3621C25.7835 27.4355 25.2822 27.5352 24.7656 27.6266C24.7656 28.1348 24.7836 28.5835 24.7601 29.0308C24.7435 29.3549 24.8903 29.4504 25.1825 29.4671C25.5605 29.4892 25.9372 29.5502 26.3153 29.582C26.7792 29.6208 27.0576 29.8382 27.2099 30.3007C27.3927 30.8547 27.6295 31.3948 27.894 31.9155C28.117 32.3531 28.1087 32.7256 27.8109 33.1161C27.5007 33.5247 27.2141 33.9498 26.9246 34.3584C27.3664 34.8015 27.7652 35.2031 28.1959 35.6352C28.6155 35.3042 29.0393 34.9801 29.4506 34.6422C29.783 34.3708 30.1139 34.3473 30.5058 34.5287C31.0667 34.789 31.64 35.0328 32.2244 35.2322C32.6344 35.3721 32.8573 35.6047 32.921 36.0299C33 36.57 33.108 37.1059 33.1994 37.6252C33.8295 37.6252 34.407 37.6252 35.0094 37.6252C35.0662 37.0948 35.1271 36.6004 35.1686 36.1033C35.2102 35.6116 35.4595 35.3361 35.9303 35.1782C36.4829 34.9926 37.0257 34.7627 37.5464 34.4996C37.9508 34.2946 38.2915 34.2988 38.6515 34.5702C39.0656 34.8804 39.4935 35.1726 39.8868 35.4524ZM7.58243 42.5442C7.58243 43.8917 7.58243 45.217 7.58243 46.5423C7.58243 47.8634 8.15438 48.4395 9.46721 48.4395C16.7571 48.4395 24.0455 48.4395 31.3354 48.4395C31.4392 48.4395 31.5431 48.4423 31.647 48.4381C32.5707 48.4021 33.198 47.7831 33.2132 46.8538C33.2298 45.7834 33.2188 44.7115 33.2188 43.641C33.2188 43.2837 33.2188 42.9264 33.2188 42.5442C24.6507 42.5442 16.145 42.5442 7.58243 42.5442Z" fill="url(#paint0_linear_231_65)"/>
<path id="Vector_2" d="M33.2137 7.47135C24.636 7.47135 16.1399 7.47135 7.58153 7.47135C7.58153 7.71231 7.58153 7.93112 7.58153 8.15131C7.58153 17.9505 7.58153 27.7511 7.58153 37.5503C7.58153 38.3895 7.33918 38.7745 6.8074 38.7814C6.27285 38.7883 6.02219 38.402 6.02219 37.5669C6.02219 26.2111 6.04712 14.8568 6.00003 3.50098C5.99172 1.35862 7.57184 -0.0123794 9.48016 8.42699e-05C16.7714 0.0499389 24.064 0.0194722 31.3552 0.020857C33.5087 0.020857 34.7758 1.2783 34.7786 3.42482C34.7814 5.98264 34.7772 8.54045 34.7758 11.0983C34.7758 11.1841 34.7772 11.2714 34.7744 11.3572C34.7537 11.8863 34.4628 12.2255 34.0225 12.238C33.5682 12.2519 33.2262 11.8946 33.2193 11.3475C33.2054 10.2591 33.2151 9.17056 33.2137 8.08068C33.2137 7.89373 33.2137 7.70677 33.2137 7.47135ZM33.1929 5.84969C33.1929 4.83598 33.2165 3.85274 33.1763 2.87226C33.1666 2.6216 32.9977 2.34879 32.8343 2.13968C32.4617 1.6619 31.9244 1.57604 31.3469 1.57604C24.3687 1.58158 17.389 1.5802 10.4108 1.5802C9.97871 1.5802 9.54663 1.56773 9.11594 1.58435C8.33904 1.61482 7.66047 2.15076 7.612 2.89719C7.54829 3.87212 7.59676 4.8526 7.59676 5.85108C16.1496 5.84969 24.6581 5.84969 33.1929 5.84969Z" fill="url(#paint1_linear_231_65)"/>
<path id="Vector_3" d="M23.2156 9.94586C23.1298 10.2381 23.0979 10.389 23.0411 10.5316C21.5552 14.2804 20.0637 18.0278 18.5792 21.778C18.4227 22.1741 18.1637 22.4234 17.7261 22.3887C17.1749 22.3444 16.8952 21.8057 17.1264 21.2199C17.8064 19.4875 18.5002 17.7592 19.1871 16.0295C19.9889 14.0118 20.7866 11.9913 21.5898 9.97494C21.8128 9.41684 22.177 9.16895 22.6063 9.3656C22.8611 9.48055 23.0384 9.76998 23.2156 9.94586Z" fill="url(#paint2_linear_231_65)"/>
<path id="Vector_4" d="M28.0638 15.8579C27.0833 14.912 26.1942 14.0908 25.355 13.2211C25.157 13.0162 25.006 12.6353 25.0407 12.3611C25.1168 11.7532 25.891 11.5898 26.377 12.0661C27.2176 12.8874 28.0347 13.7321 28.8601 14.5686C29.1024 14.8137 29.3545 15.0533 29.583 15.3122C29.8918 15.6626 29.9001 16.0601 29.5844 16.3869C28.5042 17.5058 27.4088 18.6096 26.2995 19.7008C25.956 20.0387 25.4907 19.9916 25.193 19.6593C24.9036 19.3366 24.9133 18.9031 25.2719 18.5486C26.1582 17.6734 27.0612 16.8203 28.0638 15.8579Z" fill="url(#paint3_linear_231_65)"/>
<path id="Vector_5" d="M12.8438 15.9351C13.6581 16.7189 14.4669 17.4972 15.2743 18.2755C15.3615 18.36 15.4487 18.4431 15.5291 18.5345C15.8739 18.9236 15.8919 19.3792 15.5761 19.6908C15.2466 20.0163 14.8076 20.0121 14.4281 19.6354C13.5196 18.7353 12.625 17.8213 11.7277 16.9114C10.7167 15.888 10.7181 15.8049 11.718 14.7968C12.5572 13.9506 13.3964 13.1031 14.2356 12.2569C14.7743 11.7141 15.1898 11.6338 15.5692 11.998C15.9459 12.3594 15.8614 12.8317 15.3213 13.3773C14.5431 14.1625 13.7648 14.9477 12.9865 15.7329C12.9616 15.7565 12.9449 15.7897 12.8438 15.9351Z" fill="url(#paint4_linear_231_65)"/>
<path id="Vector_6" d="M34.0314 24.2715C36.2971 24.2812 38.1417 26.1286 38.1486 28.3956C38.1555 30.6654 36.2624 32.564 33.9996 32.5571C31.716 32.5502 29.8603 30.6792 29.8672 28.3901C29.8741 26.094 31.7284 24.2605 34.0314 24.2715ZM34.7793 30.7942C35.9024 30.5435 36.7084 29.3304 36.5713 28.1782C36.4037 26.7615 35.2958 25.7921 33.8888 25.8323C32.612 25.8683 31.5193 26.9194 31.4307 28.1948C31.3462 29.4232 32.1411 30.6017 33.2158 30.7859C33.2158 30.5394 33.2158 30.2998 33.2158 30.0602C33.2172 29.3345 33.1992 28.6075 33.2296 27.8832C33.249 27.4082 33.6174 27.0883 34.037 27.1091C34.4428 27.1285 34.7405 27.4415 34.7723 27.8985C34.7862 28.1048 34.7793 28.3125 34.7793 28.5203C34.7807 29.275 34.7793 30.0284 34.7793 30.7942Z" fill="url(#paint5_linear_231_65)"/>
<path id="Vector_7" d="M20.4377 44.992C21.5428 44.992 22.6493 44.9865 23.7544 44.9948C24.3873 44.999 24.7044 45.269 24.7044 45.7689C24.703 46.2619 24.3693 46.5514 23.7544 46.5528C21.5262 46.5583 19.2979 46.5583 17.0697 46.5528C16.4355 46.5514 16.0699 46.2398 16.0865 45.7426C16.1017 45.2662 16.4438 44.9976 17.0697 44.9934C18.1928 44.9879 19.316 44.992 20.4377 44.992Z" fill="url(#paint6_linear_231_65)"/>
<path id="Vector_8" d="M22.3977 4.50038C21.7593 4.50038 21.1195 4.50869 20.4811 4.49761C19.9618 4.48792 19.6225 4.17079 19.6211 3.72902C19.6211 3.28864 19.959 2.95212 20.4783 2.9452C21.7385 2.92996 23.0001 2.92996 24.2603 2.94381C24.8198 2.94935 25.148 3.27618 25.1328 3.75257C25.1189 4.21788 24.8157 4.48792 24.2617 4.49761C23.6413 4.50869 23.0181 4.50038 22.3977 4.50038Z" fill="url(#paint7_linear_231_65)"/>
</g>
</g>
<defs>
<linearGradient id="paint0_linear_231_65" x1="6.02344" y1="17.5957" x2="37.909" y2="55.7652" gradientUnits="userSpaceOnUse">
<stop stop-color="#5E1914"/>
<stop offset="1" stop-color="#021624"/>
</linearGradient>
<linearGradient id="paint1_linear_231_65" x1="6" y1="0" x2="43.118" y2="27.5451" gradientUnits="userSpaceOnUse">
<stop stop-color="#5E1914"/>
<stop offset="1" stop-color="#021624"/>
</linearGradient>
<linearGradient id="paint2_linear_231_65" x1="17.0449" y1="9.29883" x2="27.1433" y2="14.0581" gradientUnits="userSpaceOnUse">
<stop stop-color="#5E1914"/>
<stop offset="1" stop-color="#021624"/>
</linearGradient>
<linearGradient id="paint3_linear_231_65" x1="24.9883" y1="11.7891" x2="32.1341" y2="16.027" gradientUnits="userSpaceOnUse">
<stop stop-color="#5E1914"/>
<stop offset="1" stop-color="#021624"/>
</linearGradient>
<linearGradient id="paint4_linear_231_65" x1="10.9688" y1="11.7754" x2="18.1201" y2="16.0147" gradientUnits="userSpaceOnUse">
<stop stop-color="#5E1914"/>
<stop offset="1" stop-color="#021624"/>
</linearGradient>
<linearGradient id="paint5_linear_231_65" x1="29.8672" y1="24.2715" x2="38.1528" y2="32.5529" gradientUnits="userSpaceOnUse">
<stop stop-color="#5E1914"/>
<stop offset="1" stop-color="#021624"/>
</linearGradient>
<linearGradient id="paint6_linear_231_65" x1="16.0859" y1="44.9902" x2="16.6373" y2="48.0234" gradientUnits="userSpaceOnUse">
<stop stop-color="#5E1914"/>
<stop offset="1" stop-color="#021624"/>
</linearGradient>
<linearGradient id="paint7_linear_231_65" x1="19.6211" y1="2.93359" x2="20.4481" y2="5.83764" gradientUnits="userSpaceOnUse">
<stop stop-color="#5E1914"/>
<stop offset="1" stop-color="#021624"/>
</linearGradient>
</defs>
</svg>
