<svg width="52" height="50" viewBox="0 0 52 50" fill="none" xmlns="http://www.w3.org/2000/svg">
<g id="Frame" clip-path="url(#clip0_231_17)">
<g id="Group">
<path id="Vector" d="M15.6948 50.0005C15.6372 49.9624 15.5846 49.9106 15.5211 49.8881C14.9653 49.6907 14.6099 49.3028 14.4174 48.7634C14.3935 48.6959 14.3945 48.6187 14.3906 48.5464C14.3667 48.1243 14.3816 47.71 14.4789 47.2917C14.6605 46.5159 15.0318 45.8494 15.5856 45.2788C16.1365 44.712 16.7935 44.3182 17.5658 44.1062C18.0243 43.9801 18.4859 43.9244 18.9593 43.9312C19.3643 43.9371 19.7692 43.9322 20.1742 43.9322C20.2556 43.9322 20.336 43.9322 20.4293 43.9322C20.7588 42.7244 21.0695 41.5352 21.3851 40.3108C21.2114 40.302 21.0903 40.2913 20.9702 40.2913C16.2357 40.2903 11.5012 40.2903 6.76675 40.2903C6.26849 40.2903 5.78313 40.2268 5.31265 40.0499C4.52258 39.7529 3.91811 39.2467 3.49529 38.5304C3.28486 38.1737 3.15285 37.7917 3.07444 37.3803C3.00893 37.0392 3.00596 36.7021 3.00596 36.363C3.00298 27.031 3.00496 17.7 3 8.36996C3 8.00938 3.03077 7.65271 3.11712 7.30875C3.25211 6.77326 3.50223 6.28565 3.88139 5.86742C4.54243 5.13747 5.35633 4.71826 6.35583 4.67038C6.5206 4.66256 6.68635 4.65865 6.85112 4.65865C8.96625 4.65768 11.0814 4.65572 13.1965 4.66159C13.4089 4.66256 13.5598 4.6137 13.7007 4.43684C14.1682 3.84662 15.0437 3.74304 15.6799 4.26485C15.7871 4.3528 15.8734 4.4642 15.9846 4.54628C16.0581 4.601 16.1573 4.65279 16.2457 4.65377C17.3861 4.66061 18.5266 4.65768 19.666 4.6567C19.6968 4.6567 19.7275 4.64497 19.798 4.63129C19.7345 4.54335 19.6948 4.46811 19.6372 4.41143C19.1012 3.8818 18.5583 3.35804 18.0243 2.82548C17.8248 2.62613 17.6144 2.42581 17.4625 2.19227C16.9782 1.44962 17.3672 0.413814 18.2427 0.185155C18.5524 0.10405 18.873 0.0473737 19.1916 0.0239216C19.7772 -0.0180969 20.3648 -0.00539365 20.9434 0.11089C22.0005 0.321959 22.9643 0.74019 23.8119 1.40076C24.5404 1.96947 25.128 2.65838 25.5429 3.48018C25.7275 3.84662 25.8784 4.2287 26.06 4.63716C26.1305 4.64302 26.2347 4.65768 26.339 4.65865C27.132 4.66061 27.9251 4.65963 28.7191 4.65963C34.1722 4.65963 39.6263 4.65963 45.0794 4.65963C45.261 4.65963 45.4427 4.66159 45.6243 4.67038C46.6913 4.72217 47.5419 5.18731 48.2149 5.99152C48.5494 6.39118 48.7538 6.85534 48.8868 7.34686C48.9543 7.59506 48.9841 7.85987 48.9891 8.11785C49.003 8.8175 49.005 9.51716 48.9901 10.2168C48.9811 10.6331 48.7796 10.8696 48.462 10.9888C48.061 11.1393 47.5687 10.8608 47.5092 10.4406C47.4903 10.3038 47.4804 10.165 47.4794 10.0272C47.4764 9.46635 47.4844 8.90447 47.4744 8.34357C47.4705 8.10026 47.4665 7.84815 47.4 7.61754C47.263 7.1397 46.9821 6.74492 46.5514 6.47033C46.2198 6.25926 45.8586 6.13321 45.4576 6.142C45.3504 6.14396 45.2432 6.14103 45.135 6.14103C38.9792 6.14103 32.8233 6.14103 26.6675 6.14103C26.5533 6.14103 26.4382 6.14103 26.2943 6.14103C26.3012 6.26904 26.2943 6.37359 26.3141 6.47327C26.4859 7.32047 26.8035 8.10612 27.3345 8.80089C27.7801 9.38426 28.336 9.86308 28.8561 10.3771C28.9692 10.4885 28.9911 10.4846 29.1141 10.3673C29.3345 10.1601 29.5578 9.9608 29.8308 9.81813C30.9722 9.22108 32.4849 9.58849 33.1141 10.8911C33.3246 11.3269 33.4079 11.7998 33.2928 12.2874C33.262 12.4203 33.2829 12.4438 33.4506 12.5034C33.8695 12.6519 34.2328 12.8865 34.5107 13.2275C34.8422 13.633 35.0407 14.0952 35.0357 14.6288C35.0337 14.8877 35.0447 14.875 35.2918 14.9463C36.1176 15.1848 36.7251 15.6616 37.0238 16.4844C37.136 16.7922 37.1429 17.102 37.1261 17.4186C37.1181 17.5788 37.1022 17.7391 37.0913 17.871C37.3573 18.0205 37.6055 18.1329 37.8208 18.2883C38.3002 18.6352 38.6079 19.1003 38.7072 19.6866C38.73 19.8224 38.7459 19.9612 38.7876 20.0912C38.8124 20.1703 38.871 20.2446 38.9315 20.3052C39.3901 20.7664 39.8605 21.2169 40.3112 21.6849C40.6873 22.0758 40.9484 22.536 41.0903 23.0618C41.1836 23.4077 41.2769 23.7585 41.2501 24.1142C41.138 25.6151 40.4015 26.7076 38.9841 27.3027C38.3092 27.5861 37.5955 27.6154 36.872 27.4561C36.1484 27.2978 35.5568 26.9284 35.0407 26.4223C34.7459 26.133 34.4531 25.8418 34.1563 25.5536C34.0233 25.4246 33.9876 25.4167 33.8387 25.5145C33.0457 26.0324 32.1722 26.3881 31.3017 26.7506C30.9385 26.902 30.5722 27.0496 30.2208 27.2245C30.0194 27.3252 29.8248 27.4571 29.66 27.6085C29.272 27.9642 28.9017 28.3395 28.5265 28.7079C28.4809 28.7528 28.4432 28.8046 28.3985 28.8564C28.5881 29.2434 28.7102 29.6401 28.6804 30.074C28.6328 30.7668 28.3419 31.3326 27.7732 31.742C27.267 32.1074 26.6983 32.255 26.069 32.1446C25.9995 32.1319 25.8943 32.1553 25.8466 32.2013C25.401 32.6332 24.9643 33.0729 24.5256 33.5117C24.5216 33.5156 24.5246 33.5273 24.5226 33.5546C24.5722 33.5634 24.6238 33.5781 24.6764 33.582C24.7509 33.5869 24.8253 33.584 24.8997 33.584C32.2864 33.584 39.6739 33.584 47.0605 33.583C47.4804 33.583 47.4794 33.6397 47.4794 33.1755C47.4794 26.8307 47.4784 20.4859 47.4804 14.1402C47.4804 13.9701 47.4893 13.7982 47.5092 13.6291C47.5469 13.3174 47.7801 13.0956 48.1136 13.0545C48.5156 13.0047 48.7459 13.1679 48.8928 13.4415C48.9663 13.5783 48.9921 13.7532 48.9921 13.9105C48.997 21.5081 49.002 29.1066 48.9911 36.7041C48.9891 38.2373 48.1355 39.5154 46.6079 40.0831C46.1891 40.2385 45.7434 40.2883 45.2938 40.2883C43.8397 40.2893 42.3856 40.2883 40.9315 40.2883C37.6184 40.2883 34.3052 40.2883 30.9911 40.2883C30.8859 40.2883 30.7806 40.2883 30.6427 40.2883C30.6556 40.4164 30.6516 40.5131 30.6754 40.603C30.7558 40.9069 30.8481 41.2079 30.9295 41.5108C31.0109 41.8147 31.0814 42.1215 31.1618 42.4264C31.2462 42.7459 31.3365 43.0635 31.4228 43.3831C31.4715 43.5609 31.5171 43.7397 31.5677 43.9303C31.8407 43.9303 32.0958 43.9303 32.3519 43.9303C32.6496 43.9303 32.9474 43.9205 33.2442 43.9322C35.0725 44.0065 36.4074 44.8361 37.2233 46.4592C37.533 47.0758 37.6561 47.7295 37.6194 48.4116C37.5846 49.0497 37.2501 49.4992 36.6864 49.7923C36.6 49.8373 36.5007 49.8578 36.4134 49.9008C36.3757 49.9194 36.3529 49.9653 36.3231 49.9985C29.4447 50.0005 22.5692 50.0005 15.6948 50.0005ZM8.95434 33.5068C8.96427 33.5273 8.97419 33.5478 8.98313 33.5693C9.07246 33.5742 9.16079 33.583 9.25012 33.583C13.5221 33.584 17.794 33.583 22.066 33.5859C22.2258 33.5859 22.3399 33.5439 22.4551 33.4286C23.1042 32.7788 23.7633 32.1387 24.4174 31.4938C24.4799 31.4322 24.5315 31.3599 24.5861 31.2954C24.2377 30.8811 18.07 24.8451 17.8933 24.7464C17.8278 24.8021 17.7563 24.8568 17.6928 24.9184C17.1906 25.4128 16.6893 25.9092 16.1871 26.4037C15.8238 26.7623 15.4645 27.1248 15.0933 27.4757C14.8094 27.7434 14.4194 27.759 14.1226 27.5362C13.8149 27.3056 13.7285 26.9548 13.9122 26.6079C13.9717 26.4965 14.07 26.4017 14.1623 26.3109C15.0169 25.4656 15.8715 24.6204 16.734 23.7829C16.8759 23.6451 16.9256 23.5161 16.86 23.3315C16.6883 22.8487 16.7012 22.367 16.864 21.8813C17.267 20.6784 18.7102 20.0276 19.9707 20.6257C20.1017 20.6882 20.2486 20.8113 20.3638 20.7879C20.4938 20.7615 20.6 20.6061 20.7112 20.5006C21.3216 19.9241 21.4268 19.2049 21.3117 18.4231C21.2531 18.0225 21.1876 17.6209 21.1568 17.2183C21.128 16.8303 21.1419 16.4443 21.2184 16.0544C21.2829 15.7271 21.3543 15.4017 21.4814 15.0998C21.6392 14.7235 21.8536 14.3698 22.0521 14.0112C22.1553 13.8255 22.1643 13.8284 21.9886 13.7131C21.1469 13.1649 20.2258 12.8513 19.2154 12.7839C18.9206 12.7643 18.6238 12.7203 18.335 12.6558C17.797 12.5337 17.2769 12.3529 16.7866 12.0979C15.7633 11.5663 14.9275 10.8324 14.3042 9.8709C13.9955 9.39501 13.7553 8.88884 13.5797 8.34846C13.4635 7.99277 13.3752 7.63317 13.3206 7.26771C13.2739 6.95501 13.2749 6.63548 13.2511 6.31985C13.2471 6.2661 13.2273 6.21431 13.2144 6.15764C13.1439 6.1508 13.0873 6.142 13.0308 6.142C10.8581 6.142 8.68437 6.14005 6.51166 6.14494C5.8794 6.14591 5.37419 6.41952 4.97419 6.89247C4.6268 7.30484 4.50868 7.7944 4.50868 8.31426C4.50571 11.5116 4.5067 14.7079 4.5067 17.9052C4.5067 23.0217 4.5067 28.1392 4.5067 33.2556C4.5067 33.583 4.5067 33.584 4.83027 33.584C5.39206 33.5849 5.95385 33.5771 6.51563 33.5879C6.70521 33.5918 6.83722 33.5302 6.96923 33.3983C8.41538 31.9658 9.86749 30.5391 11.3186 29.1114C11.4238 29.0079 11.5241 28.8974 11.6422 28.8114C11.8734 28.6414 12.1434 28.6287 12.3935 28.7411C12.6526 28.8583 12.8114 29.0665 12.8223 29.3704C12.8313 29.6166 12.736 29.8062 12.5653 29.9733C11.7395 30.7853 10.9156 31.6003 10.0888 32.4123C9.71166 32.7797 9.33151 33.1423 8.95434 33.5068ZM47.4248 35.0605C47.2819 35.0605 47.1509 35.0605 47.0208 35.0605C32.999 35.0605 18.9782 35.0605 4.95633 35.0605C4.91464 35.0605 4.87395 35.0605 4.83226 35.0605C4.5206 35.0614 4.50471 35.0751 4.50471 35.3712C4.50372 35.8021 4.50273 36.2331 4.50571 36.665C4.50769 36.9581 4.56228 37.2425 4.67047 37.5171C4.89181 38.078 5.29677 38.4483 5.85955 38.6692C6.16824 38.7903 6.48883 38.7913 6.81042 38.7913C19.6005 38.7913 32.3906 38.7913 45.1816 38.7913C45.2809 38.7913 45.3801 38.7913 45.4794 38.7894C46.0233 38.7757 46.4898 38.5832 46.871 38.1992C47.1886 37.8786 47.4159 37.5083 47.4357 37.051C47.4605 36.4666 47.4665 35.8813 47.4754 35.2969C47.4744 35.2266 47.4457 35.1572 47.4248 35.0605ZM27.3772 27.717C27.4377 27.6682 27.5102 27.6183 27.5717 27.5577C27.8526 27.2831 28.1355 27.0115 28.4074 26.7291C28.868 26.2483 29.4199 25.9141 30.0392 25.6679C30.6943 25.407 31.3444 25.1324 31.9856 24.8392C33.001 24.3761 33.8963 23.7301 34.7052 22.9758C35.4705 22.2624 36.2109 21.5227 36.9633 20.7957C37.1141 20.6501 37.2045 20.4801 37.2392 20.271C37.3275 19.7452 36.8978 19.3153 36.4948 19.3133C36.3797 19.3123 36.2625 19.3192 36.1484 19.3104C35.7871 19.2811 35.5022 19.1169 35.3325 18.7993C35.1548 18.4671 35.1608 18.1329 35.393 17.8173C35.4367 17.7586 35.4744 17.6961 35.5181 17.6375C35.7067 17.3824 35.6829 16.8548 35.3583 16.6056C35.0496 16.3691 34.7221 16.3124 34.3608 16.4434C33.9538 16.5909 33.6223 16.4854 33.3921 16.2382C33.1965 16.029 33.1677 15.5453 33.3424 15.2805C33.4169 15.1672 33.4963 15.0431 33.5231 14.9141C33.5886 14.5946 33.5201 14.2985 33.2541 14.0776C32.9871 13.8558 32.6883 13.7913 32.3558 13.9242C32.2794 13.9545 32.2 13.978 32.1216 14.0024C31.8328 14.0913 31.4963 13.9838 31.3047 13.7415C31.1251 13.5148 31.0844 13.1307 31.2332 12.8982C31.3156 12.7702 31.4318 12.6646 31.527 12.5444C31.7444 12.2699 31.8963 11.9933 31.7792 11.6122C31.6898 11.32 31.2968 11.0181 30.9891 11.021C30.6824 11.0249 30.4581 11.1539 30.2526 11.3572C29.2342 12.3617 28.2159 13.3653 27.1916 14.363C26.8055 14.7392 26.4203 15.1193 26.0055 15.4623C25.666 15.7437 25.2432 15.8463 24.7985 15.7867C24.3896 15.732 24.0293 15.561 23.7295 15.2766C23.6293 15.1818 23.535 15.0812 23.4318 14.9903C23.3881 14.9512 23.3285 14.9297 23.27 14.8975C23.2124 14.9884 23.1658 15.0538 23.128 15.1242C22.9285 15.4955 22.7797 15.8805 22.7042 16.3007C22.6486 16.6105 22.6228 16.9134 22.6635 17.2202C22.7399 17.7909 22.8323 18.3596 22.8452 18.9371C22.8541 19.329 22.8283 19.7169 22.7002 20.0902C22.4948 20.6882 22.1504 21.2012 21.6918 21.6419C21.6055 21.725 21.5261 21.8149 21.4596 21.8843C23.4377 23.8347 25.398 25.7666 27.3772 27.717ZM14.8323 5.56059C14.732 6.13614 14.7737 7.17683 14.9156 7.6234C15.0615 8.08462 15.2293 8.53706 15.4933 8.94942C16.3876 10.3478 17.671 11.1442 19.3385 11.3113C20.0074 11.3787 20.6615 11.4832 21.2918 11.7158C22.0918 12.0099 22.8293 12.4125 23.4685 12.9744C23.7931 13.2597 24.1027 13.5636 24.4174 13.8597C24.5305 13.9662 24.6357 14.0806 24.7519 14.1832C24.9325 14.3424 25.0457 14.3385 25.2253 14.1822C25.2501 14.1607 25.2759 14.1411 25.2997 14.1187C26.0342 13.3965 26.7687 12.6744 27.5032 11.9523C27.6342 11.8233 27.7643 11.6943 27.9062 11.5536C27.5747 11.2262 27.2591 10.9184 26.9474 10.6067C26.4571 10.1162 26.0094 9.59436 25.669 8.98851C25.4357 8.57223 25.2194 8.15009 25.0943 7.68887C25.004 7.3537 24.8948 7.02244 24.8283 6.68336C24.7429 6.24656 24.6863 5.80488 24.6278 5.36417C24.5772 4.98308 24.4551 4.61957 24.2814 4.28635C23.3861 2.57239 21.939 1.65287 19.9995 1.4848C19.6988 1.45841 19.3911 1.50825 19.0873 1.52877C19.0397 1.5317 18.994 1.56981 18.873 1.62649C18.9801 1.70075 19.0566 1.73886 19.1131 1.79456C19.8983 2.56555 20.6784 3.34338 21.4665 4.11144C21.9181 4.55117 22.2129 5.07786 22.3112 5.68664C22.4124 6.31496 22.3151 6.92961 21.9886 7.49246C21.5856 8.18527 20.9921 8.64748 20.2099 8.85366C19.6988 8.98753 19.1836 8.97287 18.6705 8.82044C18.1672 8.67191 17.7524 8.39146 17.3861 8.03283C16.6228 7.28432 15.8625 6.5319 15.0993 5.78338C15.0248 5.71302 14.9414 5.65146 14.8323 5.56059ZM26.0074 48.5034C29.2045 48.5034 32.4025 48.5034 35.5995 48.5034C35.6908 48.5034 35.7821 48.5083 35.8715 48.4995C36.0501 48.4819 36.1127 48.4096 36.1196 48.2308C36.1335 47.8937 36.0551 47.5761 35.932 47.2624C35.6471 46.5335 35.1429 46.0126 34.4313 45.6804C33.9747 45.4674 33.4883 45.4019 32.9881 45.4029C28.733 45.4048 24.4779 45.4039 20.2238 45.4039C19.7782 45.4039 19.3315 45.4029 18.8859 45.4048C18.4184 45.4068 17.9628 45.4781 17.5429 45.6882C16.5206 46.2012 15.937 47.0064 15.8764 48.1546C15.8645 48.3793 15.9032 48.5074 16.2179 48.5044C16.2923 48.5034 16.3667 48.5044 16.4412 48.5044C19.6293 48.5034 22.8184 48.5034 26.0074 48.5034ZM22.0184 43.8922C22.3102 43.9557 29.7821 43.942 29.9856 43.8755C29.6749 42.6951 29.3633 41.5137 29.0397 40.2893C27.0119 40.2893 24.9841 40.2893 22.9553 40.2893C22.7866 40.9128 22.6139 41.501 22.47 42.0951C22.3261 42.6961 22.1325 43.2853 22.0184 43.8922ZM18.2566 22.6103C18.2099 22.8976 18.3916 23.0881 18.5801 23.2738C20.9911 25.6474 23.402 28.0199 25.8139 30.3925C25.8893 30.4658 25.9717 30.5381 26.064 30.5879C26.5663 30.8567 27.137 30.5528 27.1836 29.9889C27.2064 29.7046 27.0308 29.5052 26.8422 29.3186C24.4432 26.9558 22.0432 24.592 19.6422 22.2302C19.5608 22.1501 19.4734 22.0748 19.3792 22.0103C19.131 21.8422 18.863 21.8295 18.6089 21.982C18.3826 22.1198 18.2258 22.3152 18.2566 22.6103ZM37.6739 26.089C37.8506 26.0558 38.0283 26.0255 38.204 25.9894C38.8997 25.8467 39.6481 25.1431 39.7107 24.2461C39.7543 23.6217 39.5926 23.0813 39.1529 22.6289C38.8908 22.3601 38.6208 22.0992 38.3509 21.8374C38.2069 21.6976 38.1722 21.6976 38.0273 21.8374C37.1519 22.6777 36.2774 23.5181 35.403 24.3604C35.266 24.4923 35.262 24.5295 35.3901 24.6565C35.6968 24.9604 35.9995 25.2702 36.3191 25.5604C36.6973 25.9024 37.1568 26.0597 37.6739 26.089ZM20.8432 6.17914C20.5494 6.11953 17.8615 6.13028 17.6839 6.18402C17.6868 6.19966 17.6839 6.22018 17.6938 6.22995C18.0015 6.5319 18.3062 6.83677 18.6198 7.13286C19.0308 7.52079 19.7057 7.51982 20.0998 7.31559C20.5573 7.07618 20.7816 6.69117 20.8432 6.17914Z" fill="url(#paint0_linear_231_17)"/>
</g>
</g>
<defs>
<linearGradient id="paint0_linear_231_17" x1="3" y1="0.00195312" x2="52.8254" y2="45.843" gradientUnits="userSpaceOnUse">
<stop stop-color="#5E1914"/>
<stop offset="1" stop-color="#021624"/>
</linearGradient>
<clipPath id="clip0_231_17">
<rect width="52" height="50" fill="white"/>
</clipPath>
</defs>
</svg>
