<svg width="40" height="40" viewBox="0 0 40 40" fill="none" xmlns="http://www.w3.org/2000/svg">
<g id="ion:flash-outline">
<path id="Vector" d="M24.6305 2.57813L7.5 23.75H17.5L15.0383 37.2836C15.0336 37.3101 15.0348 37.3374 15.0418 37.3634C15.0488 37.3895 15.0614 37.4137 15.0788 37.4343C15.0961 37.4549 15.1178 37.4715 15.1422 37.4829C15.1667 37.4942 15.1933 37.5001 15.2203 37.5C15.249 37.5 15.2773 37.4932 15.3029 37.4804C15.3286 37.4675 15.3508 37.4488 15.368 37.4258L32.5 16.25H22.5L24.9734 2.71484C24.9768 2.68788 24.9743 2.66051 24.9662 2.63457C24.9582 2.60863 24.9447 2.5847 24.9266 2.56437C24.9086 2.54405 24.8865 2.5278 24.8617 2.5167C24.8369 2.5056 24.81 2.49991 24.7828 2.5C24.7531 2.50012 24.7238 2.50726 24.6973 2.52083C24.6708 2.53441 24.6479 2.55404 24.6305 2.57813Z" stroke="#021624" stroke-width="3" stroke-linecap="round" stroke-linejoin="round"/>
</g>
</svg>
