<svg width="40" height="40" viewBox="0 0 40 40" fill="none" xmlns="http://www.w3.org/2000/svg">
<g id="fluent:person-support-20-regular">
<path id="Vector" d="M13.06 8.016C13.9509 6.46419 15.3363 5.25586 16.9948 4.58413C18.6532 3.91241 20.489 3.81608 22.2087 4.31054C23.9284 4.80501 25.4326 5.86172 26.481 7.31177C27.5294 8.76182 28.0614 10.5215 27.9919 12.3095C27.9225 14.0975 27.2557 15.8106 26.098 17.1749C24.9403 18.5393 23.3586 19.4762 21.6058 19.8358C19.8529 20.1954 18.0301 19.957 16.4288 19.1587C14.8274 18.3604 13.5398 17.0482 12.772 15.432C12.259 15.8073 11.6396 16.0091 11.004 16.008H10.004V16.518C10.004 16.898 10.148 17.244 10.384 17.506C10.5857 17.278 10.852 17.1169 11.1475 17.044C11.4431 16.9712 11.7538 16.9901 12.0383 17.0983C12.3228 17.2064 12.5676 17.3987 12.7402 17.6495C12.9127 17.9002 13.0047 18.1976 13.004 18.502C13.0039 18.711 12.96 18.9177 12.8753 19.1088C12.7906 19.2999 12.6669 19.4712 12.5121 19.6117C12.3573 19.7522 12.1748 19.8587 11.9764 19.9246C11.778 19.9904 11.5681 20.0141 11.36 19.994C10.4592 19.9624 9.60591 19.5823 8.97987 18.9339C8.35383 18.2855 8.00396 17.4193 8.004 16.518V9.014C8.004 8.74878 8.10936 8.49443 8.29689 8.30689C8.48443 8.11935 8.73878 8.014 9.004 8.014H13.004L13.06 8.016ZM14.004 12.238C14.0663 13.8074 14.7416 15.2899 15.8847 16.367C17.0279 17.4441 18.5479 18.03 20.1183 17.9988C21.6887 17.9677 23.1842 17.3219 24.2838 16.2003C25.3834 15.0787 25.9993 13.5707 25.9993 12C25.9993 10.4293 25.3834 8.92125 24.2838 7.79965C23.1842 6.67804 21.6887 6.03234 20.1183 6.00118C18.5479 5.97002 17.0279 6.5559 15.8847 7.633C14.7416 8.71011 14.0663 10.1925 14.004 11.762V12.238ZM12.004 11.724V10.014H10.004V14.008H11.004C11.2692 14.008 11.5236 13.9026 11.7111 13.7151C11.8986 13.5276 12.004 13.2732 12.004 13.008V12.276C11.9978 12.092 11.9978 11.9079 12.004 11.724ZM6 26C6 23.774 7.806 22 10.018 22H30C31.0609 22 32.0783 22.4214 32.8284 23.1716C33.5786 23.9217 34 24.9391 34 26C34 29.382 32.334 31.932 29.73 33.594C27.166 35.228 23.71 36 20 36C16.29 36 12.834 35.228 10.27 33.594C7.666 31.934 6 29.38 6 26ZM10.018 24C8.896 24 8 24.894 8 26C8 28.618 9.244 30.568 11.346 31.906C13.486 33.272 16.53 34 20 34C23.47 34 26.514 33.272 28.654 31.906C30.754 30.566 32 28.62 32 26C32 25.4696 31.7893 24.9609 31.4142 24.5858C31.0391 24.2107 30.5304 24 30 24H10.018Z" fill="#5E1914" stroke="#5E1914"/>
</g>
</svg>
