<svg width="50" height="50" viewBox="0 0 50 50" fill="none" xmlns="http://www.w3.org/2000/svg">
<g id="Frame">
<g id="Group">
<path id="Vector" d="M35.9562 23.489C32.2368 23.489 28.5173 23.4879 24.7979 23.4912C24.3377 23.4912 23.8887 23.4539 23.4699 23.2499C22.8153 22.9307 22.3429 22.4491 22.0938 21.7646C21.9709 21.4268 21.9073 21.0801 21.9073 20.7236C21.905 17.0709 21.9017 13.4181 21.9084 9.76535C21.9095 8.85491 22.2423 8.08157 22.9996 7.52104C23.3749 7.24243 23.796 7.05924 24.2718 7.02523C24.4483 7.01207 24.6248 7.00549 24.8013 7.00549C32.2502 7.0033 39.6979 7.00659 47.1457 7C47.903 6.99891 48.5743 7.18539 49.1339 7.69765C49.5271 8.05744 49.7873 8.49182 49.9124 9.01286C49.9671 9.23773 49.9984 9.45821 49.9984 9.68638C49.9984 13.394 49.9973 17.1016 49.9984 20.8081C49.9984 21.4685 49.7895 22.0542 49.3562 22.5577C48.8725 23.1193 48.256 23.4352 47.5032 23.4813C47.3267 23.4923 47.1502 23.489 46.9737 23.489C43.3023 23.489 39.6287 23.489 35.9562 23.489ZM35.9506 21.7361C39.6142 21.7361 43.2778 21.7361 46.9413 21.7361C47.062 21.7361 47.1837 21.7284 47.3043 21.735C47.807 21.7624 48.2191 21.3083 48.218 20.8081C48.2113 17.1005 48.2113 13.3929 48.218 9.68528C48.2191 9.23554 47.8695 8.73863 47.3077 8.75838C47.2239 8.76167 47.1401 8.75618 47.0564 8.75618C39.6455 8.75618 32.2345 8.75618 24.8236 8.75618C24.703 8.75618 24.5823 8.76057 24.4617 8.77154C24.2171 8.79348 24.0283 8.91414 23.8865 9.1083C23.7234 9.33317 23.6899 9.59094 23.6899 9.85859C23.691 13.4477 23.691 17.0358 23.691 20.6249C23.691 20.6885 23.6866 20.7533 23.6933 20.8169C23.7301 21.192 23.8686 21.5156 24.2473 21.6593C24.4226 21.7251 24.6281 21.7317 24.8203 21.7317C28.5307 21.7361 32.2401 21.7361 35.9506 21.7361Z" fill="url(#paint0_linear_231_52)"/>
<path id="Vector_2" d="M35.9635 42.8632C32.1983 42.8632 28.4331 42.8632 24.6679 42.8632C23.8581 42.8632 23.1656 42.5813 22.6183 41.9912C22.2721 41.6171 22.0554 41.1794 21.9694 40.6694C21.9113 40.3227 21.9057 39.9805 21.9057 39.635C21.9046 36.138 21.9023 32.641 21.9079 29.1451C21.909 28.4672 22.0866 27.8397 22.5446 27.3066C23.0651 26.6989 23.7375 26.406 24.5316 26.3523C24.6243 26.3457 24.717 26.3468 24.8109 26.3468C32.2296 26.3468 39.6483 26.3468 47.0671 26.3457C47.5742 26.3457 48.0668 26.4104 48.5225 26.6452C49.2462 27.0192 49.7154 27.5852 49.9131 28.375C49.9689 28.601 49.9991 28.8215 49.9991 29.0485C49.9991 32.755 49.9991 36.4616 49.9991 40.1692C49.9991 41.0182 49.6651 41.7136 49.0061 42.2621C48.566 42.6274 48.0489 42.8051 47.4826 42.8588C47.353 42.8709 47.2223 42.8654 47.0928 42.8654C43.3823 42.8632 39.6729 42.8632 35.9635 42.8632ZM35.9479 41.1103C39.2954 41.1103 42.6429 41.1103 45.9904 41.1103C46.4181 41.1103 46.8459 41.118 47.2737 41.107C47.6769 41.0961 47.9729 40.9249 48.1416 40.541C48.2175 40.3699 48.212 40.2043 48.212 40.0342C48.2142 36.4177 48.2131 32.8011 48.2131 29.1856C48.2131 29.1121 48.2075 29.0398 48.212 28.9663C48.2298 28.6679 47.916 28.2247 47.6043 28.1699C47.4145 28.137 47.2201 28.1008 47.028 28.1008C39.645 28.0975 32.262 28.0975 24.8779 28.0975C24.7852 28.0975 24.6914 28.0942 24.5986 28.1019C24.2658 28.1304 23.9832 28.2642 23.8235 28.5582C23.7151 28.7578 23.6872 28.986 23.6872 29.2196C23.6917 32.8088 23.6906 36.3979 23.6906 39.986C23.6906 40.0496 23.685 40.1143 23.6928 40.1779C23.752 40.6485 23.9151 40.926 24.3753 41.0719C24.5126 41.1158 24.669 41.1081 24.8164 41.1081C28.5281 41.1103 32.2385 41.1103 35.9479 41.1103Z" fill="url(#paint1_linear_231_52)"/>
<path id="Vector_3" d="M5.63118 34.7273C5.02244 34.1656 4.44945 33.6402 3.87981 33.1093C3.31799 32.585 2.74499 32.0705 2.20663 31.5242C1.57555 30.8825 1.35998 30.0818 1.48173 29.2152C1.57108 28.5757 1.86708 28.0097 2.363 27.5687C2.73159 27.2407 3.08789 26.8941 3.57041 26.7153C4.5254 26.3621 5.44241 26.429 6.25778 27.0345C6.77716 27.4206 7.23176 27.8934 7.70981 28.3333C8.36322 28.9344 9.01217 29.5421 9.66446 30.1454C9.72254 30.1992 9.79179 30.2408 9.87556 30.3023C10.166 30.0039 10.4463 29.7198 10.7233 29.4324C11.4661 28.6624 12.2089 27.8934 12.9483 27.1201C13.5548 26.485 14.2931 26.1756 15.181 26.2118C15.6178 26.2294 16.0333 26.3446 16.3918 26.5738C16.7604 26.8086 17.1145 27.0817 17.4261 27.3855C17.941 27.8901 18.1912 28.5187 18.2113 29.2415C18.2337 30.0697 17.9298 30.7608 17.3602 31.3531C16.4354 32.314 15.5083 33.2727 14.5835 34.2326C14.5153 34.3039 14.4517 34.3806 14.369 34.475C14.4517 34.5583 14.5187 34.6296 14.5902 34.6966C15.5876 35.6267 16.5817 36.5602 17.5858 37.4827C17.9589 37.825 18.2381 38.2265 18.3889 38.6959C18.5453 39.183 18.5877 39.6799 18.457 40.1998C18.2929 40.8525 17.9544 41.367 17.4451 41.8013C17.158 42.046 16.8822 42.3004 16.527 42.4496C15.4357 42.9059 14.407 42.7919 13.5179 42.0207C12.5629 41.1936 11.6571 40.3117 10.73 39.4539C10.5357 39.274 10.3369 39.0974 10.1414 38.9197C9.88227 39.1676 9.63207 39.3914 9.39975 39.6316C8.6123 40.4466 7.82932 41.266 7.04746 42.0865C6.34714 42.8215 5.48597 43.1045 4.48072 42.9652C4.1691 42.9224 3.8664 42.8193 3.59946 42.6482C3.06444 42.3048 2.54171 41.9439 2.19657 41.3955C1.95085 41.005 1.81011 40.587 1.77772 40.1198C1.71629 39.228 2.01898 38.4875 2.63888 37.8502C3.56818 36.8937 4.48966 35.9306 5.41337 34.9697C5.48039 34.8984 5.54294 34.8249 5.63118 34.7273ZM16.4298 29.3249C16.4577 29.122 16.3974 28.9158 16.25 28.76C16.0366 28.5351 15.8043 28.3267 15.563 28.1304C15.4033 27.9998 15.2023 27.9559 14.9889 27.9614C14.6438 27.9702 14.4048 28.1534 14.1814 28.3848C12.9985 29.6189 11.8079 30.8452 10.6273 32.0826C10.1995 32.5301 9.6734 32.5685 9.19423 32.1177C8.66703 31.6219 8.13313 31.1326 7.60258 30.6401C6.85758 29.9491 6.10588 29.2657 5.37093 28.5647C4.93755 28.1512 4.22494 28.183 3.88539 28.5955C3.77593 28.7282 3.63855 28.8379 3.51904 28.9629C3.33027 29.1626 3.2331 29.3918 3.23198 29.6748C3.23086 30.0171 3.39729 30.2573 3.63296 30.4745C4.78342 31.5374 5.93499 32.6003 7.0832 33.6654C7.26973 33.8388 7.45961 34.0132 7.61934 34.2106C7.75784 34.3817 7.84831 34.5912 7.788 34.8205C7.72991 35.041 7.62157 35.2362 7.45626 35.4063C6.65877 36.2246 5.86685 37.0473 5.07494 37.87C4.66167 38.2989 4.25734 38.7343 3.83736 39.1567C3.44197 39.5548 3.44755 40.2459 3.86082 40.5947C4.02166 40.7307 4.17021 40.8799 4.32882 41.0192C4.49301 41.1629 4.68624 41.2331 4.90851 41.2452C5.26258 41.2638 5.53289 41.1158 5.76633 40.8722C6.56941 40.0331 7.37361 39.1939 8.17781 38.3559C8.58214 37.9347 8.98648 37.5135 9.39416 37.0944C9.67563 36.8048 10.0129 36.6897 10.4005 36.8476C10.558 36.9123 10.7032 37.0231 10.8294 37.1383C11.398 37.6561 11.9575 38.1826 12.5227 38.7058C13.2219 39.353 13.9301 39.9914 14.6192 40.6485C15.0593 41.0686 15.725 41.0609 16.1193 40.6046C16.2377 40.4675 16.3806 40.3501 16.5013 40.2141C16.8531 39.8214 16.8576 39.2773 16.4935 38.8802C16.432 38.8133 16.3628 38.7519 16.2946 38.6894C15.3933 37.8557 14.4919 37.022 13.5916 36.1884C13.2431 35.8659 12.8913 35.5445 12.5462 35.2176C12.3027 34.9861 12.1452 34.7086 12.2189 34.3675C12.2647 34.1569 12.3753 33.9671 12.535 33.8047C13.0354 33.2958 13.528 32.7802 14.0217 32.2658C14.7253 31.5341 15.4257 30.8014 16.1316 30.0719C16.3293 29.8635 16.4588 29.6353 16.4298 29.3249Z" fill="url(#paint2_linear_231_52)"/>
<path id="Vector_4" d="M7.87737 17.1082C8.39452 16.5038 8.88597 15.929 9.37743 15.3542C10.443 14.107 11.5097 12.8598 12.5741 11.6126C13.4085 10.6352 14.2473 9.66006 15.075 8.67721C15.6111 8.0399 16.2947 7.71301 17.1313 7.71301C17.5345 7.71301 17.9243 7.81503 18.2739 8.01796C18.7944 8.31961 19.2858 8.65856 19.5941 9.18947C19.8655 9.65676 20.0253 10.1614 19.9605 10.6999C19.8979 11.2166 19.7214 11.7025 19.3685 12.1106C18.7486 12.828 18.1309 13.5487 17.511 14.266C16.3293 15.6317 15.1464 16.9963 13.9636 18.3609C13.2287 19.2088 12.4892 20.0512 11.7599 20.9035C11.0082 21.7822 10.0733 22.3614 8.93177 22.6202C6.82633 23.0974 4.72536 22.2901 3.51124 20.5789C2.98181 19.8329 2.52609 19.0355 2.04134 18.2589C1.49404 17.3824 0.955671 16.5016 0.405018 15.6273C0.077753 15.103 -0.0674497 14.537 0.0297244 13.9348C0.125782 13.3391 0.411719 12.8203 0.876368 12.4177C1.39351 11.9702 1.98661 11.64 2.67912 11.5753C3.65868 11.4842 4.47628 11.8342 5.0247 12.6426C5.61556 13.5125 6.1517 14.4185 6.71017 15.3092C7.04748 15.8467 7.38145 16.3864 7.71988 16.9228C7.75786 16.982 7.81147 17.0314 7.87737 17.1082ZM7.85057 21.0341C8.0371 21.0067 8.33867 20.9891 8.62237 20.9134C9.27802 20.7379 9.84319 20.4033 10.2889 19.89C11.054 19.0081 11.8202 18.1283 12.5842 17.2464C13.8497 15.7853 15.1118 14.322 16.3773 12.862C16.9079 12.2488 17.4496 11.6455 17.9757 11.029C18.1745 10.7965 18.2694 10.5387 18.1142 10.2283C18.0114 10.0231 17.8562 9.87944 17.683 9.74123C17.2027 9.36169 16.8018 9.37705 16.3952 9.85531C15.3687 11.0641 14.3221 12.2576 13.2845 13.4565C12.1039 14.8222 10.9233 16.1879 9.74267 17.5524C9.52822 17.8003 9.32158 18.057 9.09484 18.294C8.23703 19.188 6.8967 18.9389 6.34939 18.0603C5.58317 16.8307 4.80689 15.6065 4.03173 14.3812C3.85302 14.0982 3.67543 13.813 3.47215 13.5476C3.32359 13.3534 3.10132 13.281 2.85113 13.3315C2.55402 13.3918 2.29489 13.5344 2.06926 13.7275C1.81013 13.9501 1.6895 14.3659 1.89502 14.6609C1.96762 14.7651 2.03911 14.8683 2.10612 14.9758C3.01085 16.4303 3.91334 17.8848 4.81918 19.3382C5.48711 20.411 6.45885 20.9792 7.85057 21.0341Z" fill="url(#paint3_linear_231_52)"/>
<path id="Vector_5" d="M35.9792 16.6766C39.0374 16.6766 42.0944 16.6766 45.1526 16.6777C45.3369 16.6777 45.5179 16.6755 45.6966 16.7589C46.0819 16.9377 46.2941 17.3084 46.1959 17.7472C46.1154 18.107 45.8652 18.3505 45.4185 18.4229C45.328 18.4383 45.233 18.4295 45.1403 18.4295C39.0161 18.4295 32.8908 18.4284 26.7666 18.4317C26.4025 18.4317 26.0875 18.3582 25.8686 18.0467C25.6675 17.7615 25.624 17.462 25.7982 17.1527C25.9557 16.873 26.197 16.7029 26.5298 16.681C26.6404 16.6733 26.7532 16.6766 26.8638 16.6766C29.9019 16.6755 32.9411 16.6755 35.9792 16.6766Z" fill="url(#paint4_linear_231_52)"/>
<path id="Vector_6" d="M35.9798 12.0708C39.0469 12.0708 42.1141 12.0697 45.1801 12.0741C45.3432 12.0741 45.5163 12.0905 45.6682 12.1454C46.0781 12.2957 46.297 12.6862 46.1943 13.1381C46.1116 13.499 45.8681 13.7458 45.3867 13.8171C45.2951 13.8303 45.2013 13.8237 45.1086 13.8237C39.0023 13.8237 32.8971 13.8226 26.7907 13.8259C26.4299 13.8259 26.1105 13.7623 25.8826 13.4573C25.6648 13.1677 25.619 12.8606 25.7978 12.5414C25.9541 12.2617 26.1932 12.0894 26.5282 12.0741C26.6399 12.0686 26.7516 12.0708 26.8622 12.0708C29.9025 12.0697 32.9417 12.0708 35.9798 12.0708Z" fill="url(#paint5_linear_231_52)"/>
<path id="Vector_7" d="M35.9584 31.4319C38.9708 31.4319 41.9832 31.4319 44.9956 31.433C45.1531 31.433 45.3129 31.4341 45.4681 31.4538C45.8736 31.5054 46.1908 31.8377 46.2086 32.2162C46.231 32.678 45.9819 33.0345 45.5563 33.1332C45.4223 33.165 45.2816 33.1826 45.1431 33.1826C39.0155 33.1848 32.888 33.1848 26.7615 33.1848C26.4164 33.1848 26.1081 33.1146 25.878 32.8206C25.4033 32.214 25.9238 31.4725 26.4466 31.4516C26.5951 31.4461 26.7437 31.433 26.8922 31.433C29.9147 31.4319 32.9371 31.4319 35.9584 31.4319Z" fill="url(#paint6_linear_231_52)"/>
<path id="Vector_8" d="M35.9485 36.0452C38.9609 36.0452 41.9733 36.0452 44.9868 36.0452C45.1175 36.0452 45.2471 36.043 45.3766 36.0529C45.8212 36.0858 46.1775 36.405 46.2076 36.7889C46.2467 37.2803 46.0077 37.6335 45.5408 37.7487C45.39 37.786 45.2292 37.7959 45.0728 37.7959C41.9957 37.7981 38.9174 37.7981 35.8402 37.7981C32.8646 37.7981 29.8891 37.7981 26.9136 37.7981C26.8019 37.7981 26.6891 37.8047 26.5796 37.7915C26.1228 37.7399 25.8536 37.5568 25.7084 37.0763C25.6011 36.7231 25.8793 36.156 26.383 36.0726C26.5472 36.0452 26.717 36.0463 26.8834 36.0463C29.9047 36.0441 32.9272 36.0452 35.9485 36.0452Z" fill="url(#paint7_linear_231_52)"/>
</g>
</g>
<defs>
<linearGradient id="paint0_linear_231_52" x1="21.9044" y1="7" x2="36.3036" y2="31.5301" gradientUnits="userSpaceOnUse">
<stop stop-color="#5E1914"/>
<stop offset="1" stop-color="#021624"/>
</linearGradient>
<linearGradient id="paint1_linear_231_52" x1="21.9043" y1="26.3457" x2="36.3419" y2="50.8977" gradientUnits="userSpaceOnUse">
<stop stop-color="#5E1914"/>
<stop offset="1" stop-color="#021624"/>
</linearGradient>
<linearGradient id="paint2_linear_231_52" x1="1.44922" y1="26.209" x2="18.2372" y2="43.2917" gradientUnits="userSpaceOnUse">
<stop stop-color="#5E1914"/>
<stop offset="1" stop-color="#021624"/>
</linearGradient>
<linearGradient id="paint3_linear_231_52" x1="0" y1="7.71301" x2="14.4575" y2="26.9108" gradientUnits="userSpaceOnUse">
<stop stop-color="#5E1914"/>
<stop offset="1" stop-color="#021624"/>
</linearGradient>
<linearGradient id="paint4_linear_231_52" x1="25.6895" y1="16.6758" x2="25.9877" y2="20.1627" gradientUnits="userSpaceOnUse">
<stop stop-color="#5E1914"/>
<stop offset="1" stop-color="#021624"/>
</linearGradient>
<linearGradient id="paint5_linear_231_52" x1="25.6875" y1="12.0703" x2="25.9855" y2="15.556" gradientUnits="userSpaceOnUse">
<stop stop-color="#5E1914"/>
<stop offset="1" stop-color="#021624"/>
</linearGradient>
<linearGradient id="paint6_linear_231_52" x1="25.6915" y1="31.4319" x2="25.9889" y2="34.9123" gradientUnits="userSpaceOnUse">
<stop stop-color="#5E1914"/>
<stop offset="1" stop-color="#021624"/>
</linearGradient>
<linearGradient id="paint7_linear_231_52" x1="25.6855" y1="36.0449" x2="25.9834" y2="39.5291" gradientUnits="userSpaceOnUse">
<stop stop-color="#5E1914"/>
<stop offset="1" stop-color="#021624"/>
</linearGradient>
</defs>
</svg>
