<svg width="50" height="50" viewBox="0 0 50 50" fill="none" xmlns="http://www.w3.org/2000/svg">
<g id="Frame" clip-path="url(#clip0_231_78)">
<g id="Group">
<path id="Vector" d="M0 40.2802C0.0439711 40.2551 0.108462 40.2442 0.128982 40.2038C0.291186 39.886 0.536447 39.7396 0.857925 39.7407C1.65527 39.7407 2.45261 39.7407 3.24995 39.7407C3.33887 39.7407 3.42779 39.7407 3.5343 39.7407C3.54211 39.6577 3.55091 39.5889 3.55384 39.519C3.55677 39.4371 3.55482 39.3552 3.55482 39.2733C3.55482 29.6071 3.55482 19.9408 3.55482 10.2756C3.55482 9.94802 3.54602 9.62038 3.56459 9.29384C3.58902 8.85918 3.60758 8.42125 3.67891 7.99533C3.78151 7.3761 3.89388 6.7536 4.06586 6.15512C4.38636 5.0379 4.83682 3.98947 5.46707 3.03606C6.05335 2.14927 6.74614 1.40882 7.59039 0.843108C7.90307 0.633423 8.22943 0.452133 8.58022 0.335277C8.90072 0.228251 9.22416 0.129961 9.54759 0.0338554C9.60915 0.0152895 9.67657 0.0185658 9.74204 0.0174737C10.043 0.0109211 10.344 0.00218422 10.6449 0.00109211C20.2267 0 29.8104 0 39.3932 0C39.6131 0 39.8329 0.00764476 40.0518 0.00655265C40.4182 0.00546054 40.7651 0.105935 41.1169 0.209685C42.4106 0.587554 43.4131 1.44923 44.2623 2.55881C44.8456 3.3211 45.3078 4.17295 45.6381 5.10779C45.8022 5.57412 45.9674 6.04264 46.0963 6.52207C46.1999 6.90868 46.2585 7.31167 46.3211 7.71138C46.3856 8.12092 46.4325 8.53483 46.4843 8.94655C46.496 9.03611 46.5009 9.12784 46.5019 9.21849C46.5067 9.57342 46.5107 9.92727 46.5107 10.2822C46.5107 19.9659 46.5107 29.6507 46.5107 39.3345C46.5107 39.4601 46.5107 39.5846 46.5107 39.7396C46.6211 39.7396 46.708 39.7396 46.795 39.7396C47.5923 39.7396 48.3897 39.7364 49.187 39.7407C49.7127 39.744 50.0264 40.1219 49.9971 40.6472C49.9687 41.1463 49.9795 41.6508 49.9101 42.1423C49.8378 42.6457 49.7166 43.1416 49.5662 43.6297C49.3404 44.3614 49.0424 45.0462 48.6662 45.6927C47.9715 46.8875 47.0813 47.8529 45.9928 48.5999C45.512 48.9297 45.0098 49.2071 44.486 49.4234C44.0922 49.5861 43.6818 49.7051 43.2646 49.7969C42.6666 49.9279 42.0686 49.9945 41.4598 49.9945C30.5022 49.9913 19.5447 49.9924 8.58609 49.9924C8.3506 49.9924 8.1112 50.0142 7.87962 49.9782C7.5298 49.9236 7.17315 49.9192 6.83213 49.798C6.6797 49.7444 6.52042 49.7171 6.36408 49.6789C5.74262 49.5238 5.1622 49.253 4.59547 48.9297C3.66621 48.4001 2.86594 47.6946 2.17022 46.8329C1.52238 46.0302 1.02111 45.1226 0.65468 44.1266C0.462185 43.6046 0.295095 43.0662 0.225718 42.5005C0.198358 42.2766 0.16025 42.0549 0.128982 41.8321C0.114325 41.7317 0.104553 41.6301 0.000977135 41.5897C0 41.1539 0 40.7171 0 40.2802ZM5.11921 39.7407C5.23256 39.7407 5.33809 39.7407 5.44264 39.7407C10.4221 39.7407 15.4006 39.7407 20.3801 39.7407C20.4534 39.7407 20.5267 39.7429 20.6 39.7407C20.769 39.7342 20.9078 39.8161 21.0338 39.9297C21.2351 40.111 21.3191 40.3632 21.3221 40.6384C21.3309 41.3658 21.325 42.0931 21.326 42.8205C21.326 42.9155 21.3328 43.0116 21.3357 43.1001C23.803 43.1001 26.24 43.1001 28.6985 43.1001C28.7063 42.9679 28.717 42.8521 28.718 42.7375C28.7239 41.9916 28.7346 41.2457 28.7268 40.5008C28.7229 40.1699 28.8919 39.9952 29.1186 39.8554C29.2603 39.768 29.4118 39.7375 29.5779 39.7375C34.5974 39.7418 39.617 39.7407 44.6375 39.7407C44.7411 39.7407 44.8437 39.7407 44.9736 39.7407C44.9736 39.6075 44.9736 39.5103 44.9736 39.412C44.9736 29.654 44.9746 19.896 44.9697 10.138C44.9697 9.5494 44.9678 8.96075 44.8827 8.3721C44.788 7.72012 44.6629 7.08232 44.4802 6.45545C44.2711 5.73685 43.9838 5.0652 43.6222 4.42741C43.1776 3.64109 42.6295 2.97054 41.9367 2.45178C41.5107 2.13289 41.0446 1.8959 40.5492 1.78451C40.1974 1.70587 39.8339 1.65454 39.4655 1.65454C30.0362 1.66219 20.6068 1.66 11.1774 1.66328C10.725 1.66328 10.2726 1.63052 9.81923 1.73427C9.54465 1.79761 9.27399 1.85768 9.00723 1.96033C8.46688 2.16893 7.99687 2.50311 7.56791 2.91593C7.05198 3.41284 6.64061 4.00913 6.29373 4.66003C5.94782 5.30983 5.67715 5.99786 5.50127 6.72957C5.42603 7.04192 5.35275 7.35644 5.29412 7.67315C5.22865 8.027 5.15732 8.38303 5.13289 8.74233C5.09478 9.29494 5.08208 9.85082 5.08208 10.4045C5.07915 20.0173 5.08013 29.6289 5.08013 39.2416C5.08013 39.3421 5.07719 39.4415 5.08306 39.542C5.08697 39.6031 5.10455 39.6632 5.11921 39.7407ZM1.59859 41.392C1.61618 41.5886 1.62693 41.7393 1.64452 41.8889C1.65331 41.9599 1.68556 42.0276 1.6924 42.0986C1.7393 42.5595 1.88392 42.9941 2.0344 43.4168C2.22494 43.9541 2.46824 44.4663 2.76529 44.9468C3.21771 45.6763 3.75806 46.3043 4.39515 46.8307C4.8036 47.1682 5.24428 47.4467 5.70549 47.6815C5.95662 47.8103 6.21849 47.9195 6.48231 48.0113C6.68751 48.0823 6.9103 48.0921 7.11648 48.162C7.49951 48.2909 7.89916 48.2712 8.28904 48.3389C8.47958 48.3717 8.67891 48.3487 8.87434 48.3487C19.0092 48.3487 29.144 48.352 39.2799 48.3433C40.3176 48.3422 41.3592 48.4383 42.394 48.257C42.6646 48.21 42.9431 48.1991 43.205 48.1183C43.5558 48.0102 43.8949 47.854 44.2369 47.7131C44.7762 47.4914 45.2629 47.1572 45.7201 46.7783C46.4217 46.1962 47.0041 45.4819 47.4624 44.6498C47.8327 43.977 48.1347 43.2682 48.2842 42.4885C48.3252 42.2766 48.3623 42.0647 48.4141 41.8562C48.5167 41.4499 48.4835 41.3931 48.1141 41.3931C43.9906 41.3931 39.8661 41.3931 35.7426 41.3931C34.0512 41.3931 32.3588 41.3975 30.6674 41.3909C30.1104 41.3887 30.2218 41.487 30.2199 41.9064C30.2159 42.6064 30.2179 43.3065 30.216 44.0065C30.216 44.2916 30.0967 44.5034 29.8896 44.6585C29.7039 44.7983 29.4978 44.8474 29.2759 44.8474C26.4374 44.8463 23.5988 44.8474 20.7592 44.8431C20.6332 44.8431 20.5052 44.8092 20.3821 44.7721C20.0215 44.6629 19.8661 44.4379 19.8525 44.0251C19.8495 43.9257 19.8495 43.8252 19.8495 43.7247C19.8495 43.0607 19.8407 42.3967 19.8534 41.7338C19.8593 41.4433 19.7528 41.368 19.5368 41.392C19.5212 41.3942 19.5046 41.392 19.488 41.392C13.631 41.392 7.77506 41.392 1.91812 41.392C1.83115 41.392 1.74321 41.392 1.59859 41.392Z" fill="url(#paint0_linear_231_78)"/>
<path id="Vector_2" d="M25.0183 16.2751C20.2362 16.2751 15.4532 16.2751 10.6711 16.274C10.4962 16.274 10.3252 16.286 10.1571 16.1724C9.68415 15.8535 9.66852 14.9853 10.16 14.6872C10.3154 14.5933 10.5167 14.5911 10.6984 14.5528C10.7531 14.5408 10.8118 14.5507 10.8684 14.5507C20.2949 14.5507 29.7213 14.5496 39.1477 14.5539C39.3646 14.5539 39.5884 14.5791 39.7965 14.6435C40.0711 14.7287 40.2011 14.9941 40.2509 15.2835C40.3349 15.764 39.9959 16.2838 39.5122 16.2762C38.5692 16.2609 37.6253 16.2729 36.6814 16.2729C32.7934 16.2751 28.9054 16.2751 25.0183 16.2751Z" fill="url(#paint1_linear_231_78)"/>
<path id="Vector_3" d="M25.0419 9.8462C29.7928 9.8462 34.5436 9.8462 39.2954 9.84729C39.4478 9.84729 39.5934 9.85166 39.7459 9.91937C40.1035 10.0777 40.2931 10.3617 40.2569 10.7843C40.2344 11.0573 40.0517 11.4101 39.7205 11.4931C39.4948 11.5499 39.2729 11.563 39.0472 11.563C29.6345 11.563 20.2217 11.5641 10.809 11.5597C10.6097 11.5597 10.4045 11.5237 10.2139 11.4625C9.99993 11.3926 9.87192 11.1818 9.82698 10.9558C9.71265 10.3857 9.94716 9.92701 10.5198 9.85056C10.6165 9.83746 10.7152 9.84729 10.8129 9.84729C15.5559 9.8462 20.2989 9.8462 25.0419 9.8462Z" fill="url(#paint2_linear_231_78)"/>
<path id="Vector_4" d="M29.9126 25.8124C29.9126 24.9213 29.9321 24.0301 29.9048 23.1401C29.8892 22.6191 30.3103 22.1932 30.792 22.2849C31.0559 22.3352 31.3803 22.5372 31.3998 22.9413C31.4066 23.0865 31.4262 23.2307 31.4262 23.3759C31.4281 24.9671 31.4311 26.5573 31.4242 28.1485C31.4233 28.4837 31.4242 28.8278 31.3607 29.1532C31.2444 29.7484 30.9826 30.2682 30.5595 30.6701C30.2859 30.9301 29.9742 31.107 29.6331 31.2413C29.1973 31.4139 28.7527 31.4805 28.3013 31.4292C27.4346 31.3298 26.6783 30.9737 26.1702 30.1306C25.9816 29.8172 25.8682 29.471 25.7989 29.0953C25.7246 28.6967 25.7344 28.3014 25.7334 27.9027C25.7314 26.3487 25.7334 24.7935 25.7324 23.2394C25.7324 22.9893 25.7656 22.7491 25.9191 22.5569C26.1164 22.309 26.3793 22.2139 26.6578 22.2926C26.9275 22.369 27.1639 22.5307 27.203 22.8921C27.2235 23.0811 27.2577 23.2689 27.2587 23.4579C27.2665 24.9486 27.2675 26.4393 27.2695 27.93C27.2695 28.1932 27.2577 28.4564 27.2655 28.7185C27.2782 29.1521 27.5382 29.3967 27.846 29.5715C28.231 29.7888 28.6599 29.7681 29.0586 29.6687C29.4573 29.5704 29.7739 29.2821 29.8901 28.807C29.9194 28.688 29.9106 28.5547 29.9106 28.428C29.9136 27.5576 29.9126 26.685 29.9126 25.8124Z" fill="url(#paint3_linear_231_78)"/>
<path id="Vector_5" d="M16.5453 25.3849C16.5453 26.2302 16.5404 27.0755 16.5473 27.9208C16.5512 28.4876 16.4193 29.0063 16.1574 29.488C15.8838 29.9903 15.4978 30.3431 15.0161 30.5768C14.5266 30.8138 14.0165 30.9383 13.4879 30.8815C12.7013 30.7963 11.9801 30.5244 11.4525 29.8101C11.2092 29.4803 11.0245 29.1177 10.962 28.6896C10.9307 28.4767 10.8809 28.2626 10.8799 28.0496C10.8731 26.2313 10.8799 24.414 10.874 22.5957C10.8731 22.2091 11.0138 21.9426 11.3264 21.7886C11.8023 21.5538 12.3642 21.9644 12.3524 22.4635C12.3427 22.8905 12.3563 23.3175 12.3603 23.7446C12.3671 24.4086 12.3808 25.0715 12.3788 25.7355C12.3778 26.453 12.3661 27.1716 12.3515 27.8891C12.3407 28.4417 12.6485 28.8731 13.0765 29.0588C13.4361 29.2149 13.8005 29.1996 14.1504 29.1265C14.4601 29.062 14.7454 28.8764 14.9067 28.5247C15.0054 28.3085 15.0396 28.0857 15.0288 27.8487C15.0181 27.6128 14.9946 27.3769 14.9956 27.141C15.0034 25.6776 15.0151 24.2142 15.0317 22.7507C15.0347 22.5192 15.0327 22.2822 15.1568 22.0704C15.3561 21.7329 15.7968 21.651 16.0782 21.7831C16.4027 21.936 16.5512 22.2036 16.5473 22.6022C16.5404 23.5305 16.5463 24.4577 16.5453 25.3849C16.5463 25.3849 16.5463 25.3849 16.5453 25.3849Z" fill="url(#paint4_linear_231_78)"/>
<path id="Vector_6" d="M36.9808 26.9146C37.2515 27.3383 37.5202 27.7566 37.787 28.1759C38.1847 28.7995 38.5863 29.4199 38.9781 30.0489C39.2615 30.5043 39.0699 31.2109 38.5628 31.3551C38.2648 31.4403 37.9433 31.3496 37.7625 31.0646C37.2544 30.2662 36.7502 29.4635 36.2431 28.6652C36.1796 28.5647 36.1043 28.473 36.0154 28.3507C35.9646 28.3965 35.9109 28.4304 35.8776 28.4806C35.3216 29.3161 34.7647 30.1505 34.2146 30.9914C34.0856 31.188 33.9253 31.3256 33.725 31.4053C33.512 31.4905 33.3342 31.3725 33.1612 31.2601C32.7557 30.9958 32.7205 30.4038 32.9648 30.038C33.4543 29.303 33.9458 28.5702 34.4373 27.8363C34.623 27.5589 34.8077 27.2815 34.9914 27.0019C35.0236 26.9528 35.05 26.8982 35.0793 26.8458C34.8067 26.4133 34.5429 25.9895 34.2751 25.5691C33.854 24.9105 33.4348 24.2509 33.0068 23.5967C32.6795 23.0965 32.9404 22.6062 33.2775 22.3878C33.641 22.153 34.0123 22.2818 34.2458 22.651C34.7881 23.5083 35.3353 24.3623 35.8806 25.2174C35.9216 25.2819 35.9656 25.3441 36.0271 25.4358C36.1776 25.2141 36.3222 25.0045 36.4639 24.7926C36.9183 24.1155 37.3678 23.4362 37.826 22.7635C37.9628 22.5625 38.1319 22.3932 38.3771 22.39C38.682 22.3856 38.9185 22.5439 39.0817 22.8235C39.2478 23.1086 39.2429 23.4122 39.0729 23.6885C38.8432 24.0631 38.5931 24.4224 38.3517 24.7871C37.9355 25.4162 37.5173 26.0441 37.102 26.6743C37.059 26.7387 37.0297 26.8152 36.9808 26.9146Z" fill="url(#paint5_linear_231_78)"/>
<path id="Vector_7" d="M21.1309 33.2064C20.6609 33.2293 20.4196 32.8405 20.3893 32.4048C20.3776 32.2399 20.4333 32.0662 20.4714 31.9002C20.5603 31.5081 20.6551 31.1183 20.7518 30.7284C20.87 30.2522 20.999 29.7793 21.1133 29.301C21.2277 28.8226 21.3234 28.3388 21.4368 27.8616C21.5482 27.3931 21.6752 26.9278 21.7885 26.4593C21.8706 26.1208 21.9371 25.7768 22.0182 25.4382C22.0993 25.0996 22.1941 24.7655 22.2752 24.4269C22.3553 24.0971 22.4237 23.7629 22.5009 23.432C22.58 23.0924 22.665 22.7549 22.7461 22.4163C22.8272 22.0778 22.9035 21.737 22.9885 21.4007C23.0803 21.0392 23.1604 20.6701 23.2826 20.3217C23.3989 19.9886 23.777 19.8379 24.0809 19.9558C24.1561 19.9853 24.2441 19.9864 24.3105 20.0312C24.5831 20.2125 24.7268 20.4789 24.6672 20.8404C24.6203 21.1233 24.5529 21.4018 24.4893 21.6803C24.4151 22.0024 24.3359 22.3235 24.2578 22.6446C24.1698 23.0094 24.0809 23.373 23.9949 23.7378C23.9187 24.06 23.8444 24.3821 23.7682 24.7043C23.6832 25.0603 23.5962 25.4153 23.5112 25.7713C23.4331 26.1022 23.3559 26.4331 23.2787 26.764C23.1995 27.1026 23.1204 27.4422 23.0403 27.7808C22.9591 28.1193 22.8761 28.4579 22.794 28.7964C22.708 29.1525 22.6211 29.5074 22.5361 29.8634C22.4589 30.1845 22.3826 30.5067 22.3054 30.8278C22.2175 31.1925 22.1276 31.5562 22.0416 31.921C21.9957 32.1121 21.9498 32.3043 21.9136 32.4976C21.8335 32.9355 21.5316 33.2118 21.1309 33.2064Z" fill="url(#paint6_linear_231_78)"/>
<path id="Vector_8" d="M18.0117 26.2571C18.0117 25.0492 18.0127 23.8413 18.0107 22.6335C18.0107 22.3397 18.0899 22.0896 18.3039 21.905C18.7348 21.5337 19.4032 21.7871 19.4921 22.3036C19.5165 22.4445 19.5527 22.5865 19.5536 22.7285C19.5575 25.0994 19.5566 27.4693 19.5566 29.8403C19.5566 30.2007 19.4716 30.5229 19.1726 30.7063C18.8022 30.9335 18.3215 30.8505 18.1036 30.3787C18.0264 30.2105 18.0107 30.0369 18.0107 29.8545C18.0117 28.6553 18.0117 27.4562 18.0117 26.2571Z" fill="url(#paint7_linear_231_78)"/>
</g>
</g>
<defs>
<linearGradient id="paint0_linear_231_78" x1="0" y1="0" x2="49.9989" y2="49.999" gradientUnits="userSpaceOnUse">
<stop stop-color="#5E1914"/>
<stop offset="1" stop-color="#021624"/>
</linearGradient>
<linearGradient id="paint1_linear_231_78" x1="9.79688" y1="14.5469" x2="9.99258" y2="17.9946" gradientUnits="userSpaceOnUse">
<stop stop-color="#5E1914"/>
<stop offset="1" stop-color="#021624"/>
</linearGradient>
<linearGradient id="paint2_linear_231_78" x1="9.79883" y1="9.84375" x2="9.9923" y2="13.2716" gradientUnits="userSpaceOnUse">
<stop stop-color="#5E1914"/>
<stop offset="1" stop-color="#021624"/>
</linearGradient>
<linearGradient id="paint3_linear_231_78" x1="25.7324" y1="22.2656" x2="33.958" y2="27.3693" gradientUnits="userSpaceOnUse">
<stop stop-color="#5E1914"/>
<stop offset="1" stop-color="#021624"/>
</linearGradient>
<linearGradient id="paint4_linear_231_78" x1="10.874" y1="21.7207" x2="19.082" y2="26.7964" gradientUnits="userSpaceOnUse">
<stop stop-color="#5E1914"/>
<stop offset="1" stop-color="#021624"/>
</linearGradient>
<linearGradient id="paint5_linear_231_78" x1="32.8115" y1="22.2695" x2="41.4119" y2="28.2677" gradientUnits="userSpaceOnUse">
<stop stop-color="#5E1914"/>
<stop offset="1" stop-color="#021624"/>
</linearGradient>
<linearGradient id="paint6_linear_231_78" x1="20.3877" y1="19.916" x2="28.1624" y2="22.4271" gradientUnits="userSpaceOnUse">
<stop stop-color="#5E1914"/>
<stop offset="1" stop-color="#021624"/>
</linearGradient>
<linearGradient id="paint7_linear_231_78" x1="18.0107" y1="21.7285" x2="21.0159" y2="22.2391" gradientUnits="userSpaceOnUse">
<stop stop-color="#5E1914"/>
<stop offset="1" stop-color="#021624"/>
</linearGradient>
<clipPath id="clip0_231_78">
<rect width="50" height="50" fill="white"/>
</clipPath>
</defs>
</svg>
